<?xml version="1.0" standalone="no"?>
<!DOCTYPE svg PUBLIC "-//W3C//DTD SVG 1.1//EN" "http://www.w3.org/Graphics/SVG/1.1/DTD/svg11.dtd" >
<svg>
<metadata>
Created by FontForge 20120731 at Mon Apr 25 20:13:38 2016
 By www
Copyright (c) 2006 by Rian Hughes / Device. All rights reserved.
</metadata>
<defs>
<font id="ParalucentCondensedW00-Lt" horiz-adv-x="432" >
  <font-face 
    font-family="ParalucentCondensedW00-Lt"
    font-weight="300"
    font-stretch="normal"
    units-per-em="1000"
    panose-1="2 0 5 6 3 0 0 2 0 4"
    ascent="800"
    descent="-200"
    x-height="516"
    cap-height="640"
    bbox="-40 -254 1297 891"
    underline-thickness="50"
    underline-position="-125"
    unicode-range="U+0020-FB02"
  />
<missing-glyph horiz-adv-x="463" 
d="M60 640h343v-640h-343v640zM80 20l141 300l-141 302v-602zM384 622l-142 -302l142 -300v602zM102 20h259l-130 277zM231 343l130 279h-259z" />
    <glyph glyph-name=".notdef" horiz-adv-x="463" 
d="M60 640h343v-640h-343v640zM80 20l141 300l-141 302v-602zM384 622l-142 -302l142 -300v602zM102 20h259l-130 277zM231 343l130 279h-259z" />
    <glyph glyph-name="glyph1" horiz-adv-x="0" 
 />
    <glyph glyph-name="glyph1" horiz-adv-x="0" 
 />
    <glyph glyph-name="glyph2" horiz-adv-x="0" 
 />
    <glyph glyph-name="space" unicode=" " horiz-adv-x="200" 
 />
    <glyph glyph-name="exclam" unicode="!" horiz-adv-x="146" 
d="M105 387l-11 -242h-40l-9 242l-1 253h61v-253zM126 46q0 -28 -12.5 -39.5t-38.5 -11.5q-27 0 -40 11.5t-13 39.5q0 29 13 41t40 12q26 0 38.5 -12t12.5 -41z" />
    <glyph glyph-name="quotedbl" unicode="&#x22;" horiz-adv-x="226" 
d="M194 561l-10 -174h-40l-12 174v79h62v-79zM94 561l-9 -174h-40l-11 174v79h60v-79z" />
    <glyph glyph-name="numbersign" unicode="#" horiz-adv-x="587" 
d="M385 181l-45 -181h-65l45 181h-126l-45 -181h-67l47 181h-103v63h119l37 146h-156v64h173l47 186h64l-46 -186h126l49 186h63l-46 -186h106v-64h-123l-38 -146h161v-63h-177zM247 390l-37 -146h127l37 146h-127z" />
    <glyph glyph-name="dollar" unicode="$" horiz-adv-x="412" 
d="M387 142q0 -62 -42 -98t-106 -45v-127h-60v125q-81 11 -117 60t-38 137h65q2 -72 32.5 -104.5t92.5 -32.5q29 0 49.5 7t33.5 18t19 26t6 31q1 33 -20 51t-53 28.5t-70 19t-70.5 23.5t-54.5 40.5t-23 70.5q0 28 8 53t25.5 44.5t45.5 32.5t69 18v120h60v-123
q76 -11 107.5 -60t34.5 -126h-65q-5 67 -30.5 99t-83.5 32t-81.5 -24t-23.5 -62q1 -29 22.5 -45t54 -26.5t70 -20t69 -25.5t53 -43.5t21.5 -73.5z" />
    <glyph glyph-name="percent" unicode="%" horiz-adv-x="944" 
d="M911 227q0 -44 -7.5 -86t-27.5 -74.5t-54 -52.5t-88 -20t-88 20t-53.5 53t-26.5 74.5t-7 85.5q0 43 7 84.5t26.5 74.5t54 53t88.5 20q53 0 87.5 -20t54 -53t27 -74.5t7.5 -84.5zM430 0h-68l148 576h-194q44 -38 57 -80t13 -87q0 -44 -7 -86t-26.5 -74.5t-54 -52.5
t-89.5 -20q-54 0 -88.5 20t-53.5 52.5t-26 74.5t-7 86q0 43 7 84.5t27.5 74t57 52.5t95.5 20h371zM851 227q0 36 -5.5 66.5t-19 53.5t-35.5 36t-56 13t-56 -13t-35.5 -35.5t-19 -53.5t-5.5 -67t5.5 -67t18.5 -53.5t35.5 -35.5t55.5 -13q34 0 56.5 12.5t36 35t19 53.5t5.5 68
zM326 409q0 36 -5.5 66.5t-19 53t-35.5 35t-56 12.5t-56 -12.5t-35.5 -35t-19 -53t-5.5 -66.5q0 -37 5.5 -68t18.5 -53.5t35.5 -35t55.5 -12.5q34 0 56.5 12.5t36 35t19 53.5t5.5 68z" />
    <glyph glyph-name="ampersand" unicode="&#x26;" horiz-adv-x="517" 
d="M429 0l-53 82q-33 -48 -70 -68t-77 -20q-89 0 -138 51t-49 149q0 44 12 75t31.5 53t45.5 35.5t53 21.5l-110 185v76h331v-66h-259l219 -364q11 46 15.5 97t5.5 122h65q-1 -98 -11 -164.5t-29 -119.5l96 -145h-78zM220 325q-22 -4 -42 -12.5t-35 -24t-24 -38.5t-9 -56
q0 -38 9 -63.5t24.5 -41t37 -22.5t46.5 -7q26 0 56 13.5t57 58.5z" />
    <glyph glyph-name="quotesingle" unicode="'" horiz-adv-x="126" 
d="M94 561l-9 -174h-40l-11 174v79h60v-79z" />
    <glyph glyph-name="parenleft" unicode="(" horiz-adv-x="275" 
d="M260 -68q-69 3 -112 31.5t-67 79.5t-33 122t-9 157q0 85 9 155.5t33 121.5t67 80t112 31v-59q-50 -2 -81.5 -26t-49 -66.5t-24 -102t-6.5 -134.5t6.5 -135.5t24 -103.5t49 -67t81.5 -26v-58v0z" />
    <glyph glyph-name="parenright" unicode=")" horiz-adv-x="275" 
d="M236 322q0 -86 -8.5 -157t-33 -122t-67.5 -79.5t-112 -31.5v58q51 2 82.5 26t49 67t24 103.5t6.5 135.5t-6.5 135t-24.5 102.5t-49.5 66t-81.5 25.5v59q68 -2 111 -31t67.5 -80t33.5 -121.5t9 -155.5z" />
    <glyph glyph-name="asterisk" unicode="*" horiz-adv-x="360" 
d="M305 316l-99 76l4 -137h-59l3 137l-98 -76l-26 55l104 73l-104 71l26 55l98 -76l-3 146h59l-4 -146l99 76l26 -55l-105 -71l105 -73z" />
    <glyph glyph-name="plus" unicode="+" horiz-adv-x="489" 
d="M216 516h61v-226h184v-64h-184v-226h-61v226h-181v64h181v226z" />
    <glyph glyph-name="comma" unicode="," horiz-adv-x="151" 
d="M59 -132l16 128h-8q-20 0 -31 14t-11 37q0 29 13.5 40t38.5 11q26 0 39 -11t13 -40q0 -4 -1 -14t-4 -30t-7.5 -53t-11.5 -82h-46z" />
    <glyph glyph-name="hyphen" unicode="-" horiz-adv-x="300" 
d="M36 227v63h229v-63h-229z" />
    <glyph glyph-name="period" unicode="." horiz-adv-x="152" 
d="M129 47q0 -29 -13 -41t-39 -12t-39 12t-13 41q0 28 13.5 39.5t38.5 11.5q26 0 39 -11.5t13 -39.5z" />
    <glyph glyph-name="slash" unicode="/" horiz-adv-x="240" 
d="M71 0h-65l164 640h65z" />
    <glyph glyph-name="zero" unicode="0" horiz-adv-x="477" 
d="M445 319q0 -70 -8.5 -129.5t-31 -103t-63.5 -68t-105 -24.5q-63 0 -102.5 24.5t-62 68t-30.5 103t-8 130.5q0 70 8 130t30.5 103.5t62 68t102.5 24.5q64 0 105 -24.5t63.5 -68.5t31 -104t8.5 -130zM377 319q0 61 -6 109.5t-21.5 82.5t-42.5 52t-70 18q-41 0 -67 -18
t-41.5 -52t-21.5 -82t-6 -109t6 -109.5t21 -82t41.5 -51.5t67.5 -18q43 0 70 18t42.5 51.5t21.5 81.5t6 109z" />
    <glyph glyph-name="one" unicode="1" horiz-adv-x="226" 
d="M105 0v575h-94v55l103 10h60v-640h-69z" />
    <glyph glyph-name="two" unicode="2" horiz-adv-x="440" 
d="M406 444q-1 -52 -19.5 -86t-48 -59t-67 -44t-76.5 -41q-21 -12 -38 -25.5t-29.5 -29t-19.5 -35t-7 -44.5v-18h305v-62h-370v77q0 44 13 76.5t34 56.5t48 42t56 33q27 15 54 29t48.5 32.5t35.5 42.5t15 58q2 66 -25.5 100t-90.5 34q-62 0 -89.5 -34.5t-29.5 -110.5h-65
q1 47 10.5 85.5t31 66.5t55.5 43t84 15q54 0 90 -16t57.5 -43t30 -64t7.5 -79z" />
    <glyph glyph-name="three" unicode="3" horiz-adv-x="436" 
d="M404 200q0 -40 -10 -77t-32 -65.5t-57 -46t-86 -17.5q-50 0 -85.5 14.5t-58 41.5t-33.5 64t-12 82h65q3 -72 34 -104.5t92 -32.5q60 0 88 40t28 101q0 34 -7 61t-25 46t-49 28.5t-79 9.5h-53v59l187 170h-262v66h336v-83l-183 -153q104 -7 153 -55.5t49 -148.5z" />
    <glyph glyph-name="four" unicode="4" horiz-adv-x="456" 
d="M351 146v-146h-69v146h-266v70l249 424h86v-431h95v-63h-95zM282 554l-201 -345h201v345z" />
    <glyph glyph-name="five" unicode="5" horiz-adv-x="442" 
d="M417 212q0 -42 -10 -81t-32 -69.5t-57 -49t-86 -18.5t-86 15.5t-57.5 43t-33 65t-11.5 81.5h65q4 -140 125 -140q30 0 52 12t36 32.5t21 48.5t7 60q0 79 -35 114t-110 35h-145v279h332v-66h-266v-150h94q41 0 77 -11t62.5 -35.5t42 -65t15.5 -100.5z" />
    <glyph glyph-name="six" unicode="6" horiz-adv-x="465" 
d="M431 209q0 -41 -10 -80t-32.5 -69t-60 -48t-91.5 -18q-66 0 -106 25t-61 69t-28 104.5t-7 131.5q0 87 11 148t35 99.5t61.5 56.5t91.5 18q92 0 138 -46t49 -155h-66q-2 40 -10 66.5t-23 42.5t-37 22.5t-51 6.5q-41 0 -67 -18.5t-41 -55t-20 -90t-4 -123.5q17 55 52 84
t93 29q86 0 135 -49t49 -151zM365 209q0 31 -6.5 56t-22 43t-40.5 28t-62 10q-68 0 -96 -38t-28 -99q0 -71 32.5 -111t94.5 -40q27 0 50.5 8.5t40.5 26.5t27 46.5t10 69.5z" />
    <glyph glyph-name="seven" unicode="7" horiz-adv-x="376" 
d="M366 640v-73l-225 -567h-72l231 575h-281v65h347z" />
    <glyph glyph-name="eight" unicode="8" horiz-adv-x="476" 
d="M442 176q0 -36 -9.5 -68.5t-32.5 -58t-62 -40.5t-98 -15q-60 0 -99.5 15t-63 39.5t-33.5 56t-10 64.5q0 23 5.5 47.5t18.5 46.5t35.5 39.5t55.5 26.5q-33 9 -53.5 25t-31.5 36t-15 43.5t-4 48.5q0 34 8 64t30.5 52.5t61 35t100.5 12.5q57 0 93.5 -13t57 -35t28.5 -51
t8 -61q0 -23 -4 -47.5t-15 -46.5t-32 -38.5t-54 -23.5q32 -9 54 -25t35.5 -36.5t19.5 -44.5t6 -48zM366 471q0 24 -4 44.5t-17.5 35.5t-38.5 23t-67 8q-41 0 -66 -8t-38.5 -23t-18 -35.5t-4.5 -44.5t4.5 -45t18 -36t38.5 -24t66 -9t66 9t38.5 24t18 36t4.5 45zM375 176
q0 25 -6 48t-21.5 40t-42 27t-66.5 10q-41 0 -67.5 -10t-42 -27t-22 -40t-6.5 -48q0 -26 7 -47.5t23.5 -37.5t43.5 -24.5t66 -8.5t65 8.5t41 24t21.5 37.5t6.5 48z" />
    <glyph glyph-name="nine" unicode="9" horiz-adv-x="466" 
d="M431 315q0 -168 -48.5 -244.5t-156.5 -76.5q-91 0 -139 45t-52 147h66q1 -39 10.5 -64.5t25.5 -39.5t38.5 -19.5t50.5 -5.5q42 0 68.5 18t42 54t21 89t4.5 123q-13 -52 -48.5 -81.5t-94.5 -29.5q-87 0 -135.5 49t-48.5 150q0 42 9.5 81t32 69t59.5 48.5t91 18.5
q66 0 106.5 -25.5t62 -69.5t28.5 -104.5t7 -131.5zM356 429q0 72 -33 113t-96 41q-27 0 -50 -9t-40 -27.5t-26.5 -48t-9.5 -69.5q0 -62 29 -100t102 -38q69 0 96.5 37.5t27.5 100.5z" />
    <glyph glyph-name="colon" unicode=":" horiz-adv-x="152" 
d="M129 471q0 -29 -13 -41t-39 -12q-25 0 -38 12t-13 41t13 40t38 11q26 0 39 -11t13 -40zM129 46q0 -29 -13 -40.5t-39 -11.5t-39 11.5t-13 40.5t13.5 40t38.5 11q26 0 39 -11t13 -40z" />
    <glyph glyph-name="semicolon" unicode=";" horiz-adv-x="151" 
d="M129 470q0 -29 -13 -40.5t-39 -11.5t-39 11.5t-13 40.5t13.5 40.5t38.5 11.5q26 0 39 -11.5t13 -40.5zM59 -132l16 128h-8q-20 0 -31 14t-11 37q0 29 13.5 40t38.5 11q26 0 39 -11t13 -40q0 -4 -1 -14t-4 -30t-7.5 -53t-11.5 -82h-46z" />
    <glyph glyph-name="less" unicode="&#x3c;" horiz-adv-x="426" 
d="M179 462l-74 -173h296v-64h-297l75 -183h-67l-88 213l86 207h69z" />
    <glyph glyph-name="equal" unicode="=" horiz-adv-x="497" 
d="M36 334v63h425v-63h-425zM36 124v62h425v-62h-425z" />
    <glyph glyph-name="greater" unicode="&#x3e;" horiz-adv-x="426" 
d="M315 42h-69l76 183h-296v64h296l-76 180h69l89 -214z" />
    <glyph glyph-name="question" unicode="?" horiz-adv-x="422" 
d="M402 439q0 -58 -16.5 -97t-42 -62t-55 -33t-54.5 -10h-18l-7 -90h-59v149h60q25 0 47.5 7.5t40 24t27.5 44t10 67.5q0 64 -28.5 102.5t-87.5 38.5q-62 0 -92.5 -31t-32.5 -103h-67q1 45 12 81.5t33.5 63t58 41t86.5 14.5t86 -16.5t57 -45t32 -66t10 -79.5zM231 46
q0 -29 -12.5 -40.5t-38.5 -11.5t-39.5 11.5t-13.5 40.5t13.5 40t39.5 11t38.5 -11t12.5 -40z" />
    <glyph glyph-name="at" unicode="@" horiz-adv-x="704" 
d="M666 351q0 -53 -6 -98.5t-23.5 -79.5t-50 -53.5t-85.5 -19.5h-34l-7 76q-27 -43 -60.5 -62t-75.5 -19q-58 0 -96 32.5t-38 97.5q0 29 8 49.5t25 34.5t43 23.5t63 16.5l118 21q-2 60 -22.5 85.5t-74.5 25.5q-50 0 -70.5 -23t-23.5 -71l-61 -1q2 31 10 59t25 49.5t46 34
t73 12.5q53 0 84 -15t47.5 -41.5t21.5 -62t5 -76.5v-189q58 7 78 54.5t20 139.5q0 67 -11 125t-39.5 101.5t-77.5 68.5t-125 25q-75 0 -123.5 -28t-77 -76t-39.5 -111.5t-11 -135.5q0 -78 11.5 -142.5t43 -111t87 -72t143.5 -25.5h139v-62h-139q-111 0 -179.5 33.5
t-105.5 90.5t-49.5 132t-12.5 158q0 77 13 151t47.5 131.5t95.5 93t157 35.5q97 0 158.5 -33.5t96 -87.5t47 -122.5t12.5 -137.5zM339 297q-50 -9 -69 -24t-19 -47q0 -38 23 -56t60 -18q57 0 84 41t29 126z" />
    <glyph glyph-name="A" unicode="A" horiz-adv-x="494" 
d="M421 0l-41 136h-263l-42 -136h-71l201 640h87l199 -640h-70zM249 565l-117 -371h232z" />
    <glyph glyph-name="B" unicode="B" horiz-adv-x="476" 
d="M54 640h202q50 0 84.5 -13t55 -35.5t29 -53.5t7.5 -66q0 -19 -3 -38t-11.5 -36.5t-24.5 -33.5t-41 -28q28 -13 46.5 -31t30 -38t16 -42t4.5 -44q0 -35 -8 -68t-29.5 -58t-59 -40t-95.5 -15h-203v640zM366 462q0 26 -5 47t-17.5 35.5t-33 22.5t-51.5 8h-137v-219h148
q30 0 48.5 9t29 24t14.5 34t4 39zM379 181q0 24 -4.5 45t-16.5 36.5t-32.5 24.5t-51.5 9h-152v-232h137q38 0 61.5 8.5t36.5 24t17.5 37t4.5 47.5z" />
    <glyph glyph-name="C" unicode="C" horiz-adv-x="526" 
d="M424 392q0 86 -39.5 137.5t-115.5 51.5q-48 0 -79.5 -19.5t-49.5 -54.5t-25.5 -83t-7.5 -104t7.5 -104t25.5 -83t49.5 -54.5t79.5 -19.5q77 0 116.5 50.5t39.5 139.5h69q0 -54 -12.5 -100.5t-40 -81t-70 -54t-102.5 -19.5q-71 0 -115.5 27t-70 72t-35 104t-9.5 123
t9.5 123t35 104t70.5 72t115 27q59 0 101.5 -20t70 -54.5t40.5 -81t13 -98.5h-70z" />
    <glyph glyph-name="D" unicode="D" horiz-adv-x="504" 
d="M54 640h190q113 0 167.5 -82.5t54.5 -233.5q0 -75 -14.5 -135t-43.5 -102t-72 -64.5t-101 -22.5h-181v640zM400 324q0 70 -11 118.5t-32.5 78t-53.5 42.5t-73 13h-108v-512h103q42 0 74.5 14.5t55 45.5t34 80.5t11.5 119.5z" />
    <glyph glyph-name="E" unicode="E" horiz-adv-x="429" 
d="M54 0v640h345v-65h-277v-216h253v-64h-253v-230h277v-65h-345z" />
    <glyph glyph-name="F" unicode="F" horiz-adv-x="409" 
d="M122 575v-216h249v-64h-249v-295h-68v640h335v-65h-267z" />
    <glyph glyph-name="G" unicode="G" horiz-adv-x="540" 
d="M246 350h248v-350h-44l-13 117q-27 -62 -66.5 -92.5t-105.5 -30.5t-109.5 27t-69.5 72t-36.5 104t-10.5 123t9.5 123t35 104t70.5 72t115 27q59 0 101 -18t69 -49t39.5 -72t12.5 -86h-69q-2 74 -38.5 117t-114.5 43q-48 0 -79.5 -19.5t-49.5 -54.5t-25.5 -83t-7.5 -104
t8 -104t27 -83t50 -54.5t77 -19.5q80 0 117.5 58.5t39.5 166.5h-180v66z" />
    <glyph glyph-name="H" unicode="H" horiz-adv-x="520" 
d="M400 0v295h-278v-295h-68v640h68v-281h278v281h67v-640h-67z" />
    <glyph glyph-name="I" unicode="I" horiz-adv-x="175" 
d="M54 0v640h68v-640h-68z" />
    <glyph glyph-name="J" unicode="J" horiz-adv-x="272" 
d="M221 640l1 -449q0 -55 -8 -95t-31.5 -64t-65.5 -32t-111 1v63q46 -6 75 -2t45 19t22 41.5t6 64.5v453h67z" />
    <glyph glyph-name="K" unicode="K" horiz-adv-x="427" 
d="M361 0l-239 301v-301h-68v640h68v-278l227 278h87l-261 -306l274 -334h-88z" />
    <glyph glyph-name="L" unicode="L" horiz-adv-x="342" 
d="M54 0v640h68v-576h208v-64h-276z" />
    <glyph glyph-name="M" unicode="M" horiz-adv-x="679" 
d="M557 0v534l-183 -534h-68l-184 534v-534h-68v640h97l189 -551l186 551h100v-640h-69z" />
    <glyph glyph-name="N" unicode="N" horiz-adv-x="557" 
d="M56 640h84l296 -531v531h69v-640h-81l-299 537v-537h-69v640z" />
    <glyph glyph-name="O" unicode="O" horiz-adv-x="551" 
d="M514 319q0 -64 -10 -122.5t-36.5 -103.5t-72.5 -72t-119 -27t-119 27t-72.5 72t-36 104t-9.5 123t10 123t36.5 104t72.5 72t118 27q73 0 119 -27t72.5 -72t36.5 -104.5t10 -123.5zM445 319q0 57 -7.5 105t-26.5 83t-52 54.5t-83 19.5t-82.5 -19.5t-51.5 -54.5t-27 -83
t-8 -104t8 -104t27 -83t51.5 -54.5t82.5 -19.5t83 19.5t52 54.5t26.5 82.5t7.5 103.5z" />
    <glyph glyph-name="P" unicode="P" horiz-adv-x="474" 
d="M439 430q0 -32 -4 -67.5t-23.5 -66.5t-59.5 -51t-112 -20h-118v-225h-68v640h180q72 0 113 -21t61.5 -52.5t25.5 -68.5t5 -68zM371 430q0 26 -4 52t-18.5 46.5t-41 33.5t-71.5 13h-114v-288h117q45 0 71 12.5t39.5 32.5t17.5 46t4 52z" />
    <glyph glyph-name="Q" unicode="Q" horiz-adv-x="551" 
d="M287 0q-76 0 -124.5 25.5t-76 69t-37.5 101.5t-10 124q0 64 10 123t36.5 104t72.5 72t118 27q69 0 115 -25t73 -68.5t38.5 -103.5t11.5 -129q0 -38 -5.5 -77.5t-18.5 -75.5t-34 -65t-51 -46l106 -7v-49h-224zM445 319q0 57 -7.5 105t-26.5 83t-52 54.5t-83 19.5
t-82.5 -19.5t-51.5 -54.5t-27 -83t-8 -104t8 -103t27 -81t51.5 -52.5t82.5 -18.5t83 18.5t52 52.5t26.5 80.5t7.5 102.5z" />
    <glyph glyph-name="R" unicode="R" horiz-adv-x="474" 
d="M354 0l-232 269v-269h-68v640h176q71 0 112 -19.5t61.5 -48.5t26 -63t5.5 -63q0 -61 -17 -97t-45.5 -55.5t-64.5 -26t-73 -6.5h-26l235 -261h-90zM366 446q0 24 -4.5 47.5t-19 41.5t-41 29.5t-70.5 11.5h-109v-256h113q44 0 70 10.5t39.5 28.5t17.5 40.5t4 46.5z" />
    <glyph glyph-name="S" unicode="S" horiz-adv-x="505" 
d="M467 184q0 -32 -9 -65.5t-32.5 -61t-63.5 -45.5t-101 -18q-62 0 -104.5 16t-69.5 46t-39 71.5t-12 92.5h68q2 -75 38 -117t117 -42q40 0 67 9.5t43.5 25.5t23.5 37t7 44q1 33 -13.5 54t-38.5 34.5t-55.5 22t-64 17t-64 19t-56.5 27.5t-40.5 43.5t-15.5 66.5q-1 83 49 134
t151 51q100 0 154.5 -54t54.5 -160h-67q-2 42 -13.5 70.5t-30 46t-44 24.5t-55.5 7q-61 0 -97.5 -27.5t-34.5 -87.5q1 -38 27 -57.5t64.5 -32t83.5 -23t83.5 -29t64 -51t25.5 -88.5z" />
    <glyph glyph-name="T" unicode="T" horiz-adv-x="397" 
d="M232 575v-575h-66v575h-155v65h375v-65h-154z" />
    <glyph glyph-name="U" unicode="U" horiz-adv-x="520" 
d="M476 284q0 -77 -12 -132t-38 -90t-67 -51.5t-98 -16.5q-58 0 -98.5 16.5t-66.5 51.5t-38 90t-12 132v356h68v-355q0 -60 8 -103t25.5 -70t45.5 -39.5t68 -12.5t67.5 12t45 39t25.5 69.5t8 103.5v356h69v-356z" />
    <glyph glyph-name="V" unicode="V" horiz-adv-x="490" 
d="M277 0h-68l-208 640h74l169 -539l171 539h74z" />
    <glyph glyph-name="W" unicode="W" horiz-adv-x="752" 
d="M590 0h-80l-134 540l-131 -540h-79l-157 640h71l127 -544l132 544h78l133 -544l126 544h69z" />
    <glyph glyph-name="X" unicode="X" horiz-adv-x="460" 
d="M381 0l-151 274l-148 -274h-73l185 335l-173 305h79l130 -240l131 240h79l-171 -305l185 -335h-73z" />
    <glyph glyph-name="Y" unicode="Y" horiz-adv-x="476" 
d="M270 194v-194h-70v194l-196 446h75l157 -376l161 376h75z" />
    <glyph glyph-name="Z" unicode="Z" horiz-adv-x="436" 
d="M31 0v70l293 504h-292v66h367v-70l-299 -508h306v-62h-375z" />
    <glyph glyph-name="bracketleft" unicode="[" horiz-adv-x="251" 
d="M54 -65v772h181v-57h-120v-658h120v-57h-181z" />
    <glyph glyph-name="backslash" unicode="\" horiz-adv-x="234" 
d="M166 0l-162 640h65l163 -640h-66z" />
    <glyph glyph-name="bracketright" unicode="]" horiz-adv-x="251" 
d="M17 -65v57h119v658h-119v57h180v-772h-180z" />
    <glyph glyph-name="asciicircum" unicode="^" horiz-adv-x="431" 
d="M216 327l-175 -42v64l175 42l175 -45v-60z" />
    <glyph glyph-name="underscore" unicode="_" horiz-adv-x="582" 
d="M-13 -254v63h612v-63h-612z" />
    <glyph glyph-name="grave" unicode="`" horiz-adv-x="434" 
d="M42 627v60l352 -82v-64z" />
    <glyph glyph-name="a" unicode="a" horiz-adv-x="439" 
d="M360 0l-11 96q-56 -102 -163 -102q-34 0 -62.5 9.5t-49.5 28.5t-32.5 47.5t-11.5 66.5q0 68 39 101.5t126 47.5l140 22q-1 37 -7.5 64.5t-20 45.5t-36 26.5t-55.5 8.5q-60 0 -85.5 -32t-25.5 -96h-65q0 40 8 74.5t28.5 60t54 39.5t84.5 14q62 0 98.5 -17t56 -47.5
t25.5 -72.5t6 -91v-294h-41zM335 259l-129 -23q-58 -11 -83.5 -29t-25.5 -60q0 -49 28.5 -71t73.5 -22q27 0 51.5 10.5t43.5 31.5t30 53t11 76v34z" />
    <glyph glyph-name="b" unicode="b" horiz-adv-x="456" 
d="M44 707h66v-271q22 44 54.5 65t86.5 21t88 -21.5t53.5 -58t27 -84t7.5 -99.5q0 -53 -7.5 -100.5t-27.5 -84.5t-54 -58.5t-87 -21.5q-62 0 -98 24t-57 69l-11 -87h-41v707zM360 259q0 46 -5.5 82.5t-19.5 62.5t-38.5 40t-62.5 14q-39 0 -63.5 -14t-38 -40.5t-18.5 -63
t-5 -81.5q0 -48 5.5 -85.5t19.5 -64t39 -40t63 -13.5q37 0 61.5 14t38 40t19 63.5t5.5 85.5z" />
    <glyph glyph-name="c" unicode="c" 
d="M332 310q0 76 -29.5 112t-83.5 36q-37 0 -61.5 -15t-39.5 -42t-21 -64t-6 -80t6 -79.5t21 -63.5t39.5 -42t62.5 -15q54 0 83 34t29 109h67q0 -97 -42.5 -151.5t-135.5 -54.5q-60 0 -98.5 22.5t-60 59.5t-29.5 84t-8 96t8 97t30 85.5t59.5 60.5t97.5 23q91 0 135 -57.5
t44 -154.5h-67z" />
    <glyph glyph-name="d" unicode="d" horiz-adv-x="451" 
d="M409 0h-43l-10 87q-22 -45 -57 -69t-98 -24q-53 0 -87 21.5t-54 58.5t-27.5 84.5t-7.5 100.5q0 52 7 99.5t26.5 84t53.5 58t88 21.5t86.5 -21t55.5 -65v271h67v-707zM344 259q0 44 -5 80.5t-19 63t-39 41t-64 14.5q-38 0 -62 -14t-38 -40t-19.5 -62.5t-5.5 -82.5
q0 -47 5.5 -84.5t19.5 -63.5t38 -40t61 -14q39 0 63.5 13.5t39 39.5t20 63.5t5.5 85.5z" />
    <glyph glyph-name="e" unicode="e" 
d="M409 160q-5 -35 -16.5 -65t-33 -52.5t-54.5 -35.5t-79 -13q-62 0 -101.5 22.5t-61.5 60t-30 85t-8 97.5q0 49 8 96t30 84t61 60t101 23q58 0 94.5 -23.5t57 -63.5t27 -94.5t3.5 -115.5h-313q5 -84 35.5 -128t95.5 -44q54 0 80.5 29.5t34.5 77.5h69zM340 285
q0 40 -6.5 72.5t-21 55.5t-37 36t-54.5 13q-34 0 -57 -13t-38 -36t-22.5 -55.5t-9.5 -72.5h246z" />
    <glyph glyph-name="f" unicode="f" horiz-adv-x="260" 
d="M125 452v-452h-65v452h-54v45l54 17v46q0 86 42.5 122.5t147.5 29.5v-62q-37 2 -61 -2t-38 -14.5t-19.5 -29t-5.5 -45.5v-43h124v-64h-125z" />
    <glyph glyph-name="g" unicode="g" horiz-adv-x="422" 
d="M412 -68q0 -26 -8.5 -52t-30.5 -47.5t-60 -35t-96 -13.5q-57 0 -95 12.5t-60.5 35.5t-32 56.5t-10.5 75.5h66q1 -31 8 -53.5t22 -37t39.5 -21.5t62.5 -7q39 0 63.5 7t38.5 18.5t19.5 26.5t5.5 32q0 32 -23.5 48.5t-59.5 25.5t-77 15.5t-77 17t-59.5 29.5t-23.5 55
q0 23 14.5 40.5t51.5 28.5q-17 12 -28.5 29t-18.5 35.5t-9.5 38.5t-2.5 38q0 37 7.5 71t28.5 59.5t58 40.5t96 15h178l-2 -37l-72 -15q38 -26 51.5 -59t13.5 -76q0 -39 -7 -72.5t-27 -58.5t-55 -39.5t-91 -14.5q-23 0 -43 3.5t-37 8.5q-25 -4 -32 -12.5t-7 -19.5
q0 -20 24 -29.5t59.5 -16t77 -13t77 -21.5t59.5 -41t24 -71zM320 331q0 28 -4.5 50.5t-16.5 38t-33.5 23.5t-55.5 8q-32 0 -53.5 -8t-34 -23.5t-17.5 -38t-5 -50.5q0 -30 4.5 -54t17 -40.5t34 -25.5t55.5 -9q64 0 86.5 34t22.5 95z" />
    <glyph glyph-name="h" unicode="h" horiz-adv-x="445" 
d="M341 0v286q0 45 -4.5 77.5t-16.5 53.5t-34 30.5t-57 9.5t-58 -9.5t-36.5 -29.5t-19 -53t-5.5 -79v-286h-66v707h66v-267q19 38 51 60t83 22q52 0 83.5 -17.5t49 -49t23.5 -76t6 -99.5v-280h-65z" />
    <glyph glyph-name="i" unicode="i" horiz-adv-x="154" 
d="M130 622q0 -28 -12.5 -40t-38.5 -12q-28 0 -40.5 12t-12.5 40q0 29 12.5 40.5t40.5 11.5q26 0 38.5 -11.5t12.5 -40.5zM45 0v516h65v-516h-65z" />
    <glyph glyph-name="j" unicode="j" horiz-adv-x="150" 
d="M130 622q0 -28 -12 -40t-39 -12q-26 0 -39 12t-13 40q0 29 13 40.5t39 11.5t38.5 -11.5t12.5 -40.5zM110 516v-584q0 -38 -7 -66t-24 -46t-46 -24t-72 1v64q50 -8 67.5 8.5t17.5 62.5v584h64z" />
    <glyph glyph-name="k" unicode="k" horiz-adv-x="387" 
d="M375 516l-220 -247l239 -269h-89l-195 229v-229h-66v707h66v-398l177 207h88z" />
    <glyph glyph-name="l" unicode="l" horiz-adv-x="152" 
d="M44 0v707h66v-707h-66z" />
    <glyph glyph-name="m" unicode="m" horiz-adv-x="640" 
d="M535 0v304q0 74 -18 113.5t-70 39.5q-51 0 -71 -39t-20 -114v-304h-66v304q0 74 -18.5 113.5t-70.5 39.5q-51 0 -71 -39t-20 -114v-304h-66v516h35l16 -72q18 36 47 57t77 21q46 0 73 -22t44 -73q17 47 47 71t82 24q43 0 70 -17.5t42 -47.5t20 -70.5t5 -86.5v-300h-67z
" />
    <glyph glyph-name="n" unicode="n" horiz-adv-x="447" 
d="M342 0v285q0 43 -4.5 75.5t-16.5 54t-34 32.5t-57 11q-36 0 -59 -10.5t-36.5 -32.5t-19 -54.5t-5.5 -75.5v-285h-66v516h36l15 -82q19 38 55 63t95 25q52 0 84.5 -18t50 -50.5t23.5 -77t6 -97.5v-279h-67z" />
    <glyph glyph-name="o" unicode="o" horiz-adv-x="435" 
d="M411 257q0 -49 -8 -96.5t-30 -84.5t-59.5 -59.5t-96.5 -22.5t-96 23t-58.5 60t-29.5 84t-8 96q0 48 8 95.5t29.5 85t59 61t95.5 23.5q59 0 96.5 -23.5t59.5 -61t30 -85t8 -95.5zM344 257q0 42 -6 78.5t-20.5 64t-39 43t-61.5 15.5q-36 0 -60.5 -15.5t-38.5 -42.5t-20 -64
t-6 -79t6 -79t20 -64t38.5 -42.5t60.5 -15.5q37 0 61.5 15t39 42t20.5 64t6 80z" />
    <glyph glyph-name="p" unicode="p" horiz-adv-x="456" 
d="M44 516h41l11 -87q21 45 57 69t98 24q53 0 87 -22t54 -58.5t27.5 -85t7.5 -100.5t-7.5 -99.5t-27 -83.5t-53.5 -57.5t-88 -21.5t-86.5 20t-54.5 65v-279h-66v716zM360 256q0 47 -5.5 85t-19 64.5t-38 41t-61.5 14.5q-38 0 -63 -14.5t-39 -41t-19.5 -64.5t-5.5 -85
q0 -45 5 -81.5t18.5 -62.5t38 -40t63.5 -14q38 0 62.5 14t38.5 39.5t19.5 62t5.5 82.5z" />
    <glyph glyph-name="q" unicode="q" horiz-adv-x="454" 
d="M411 -200h-65v279q-23 -45 -55 -65t-86 -20t-88.5 21.5t-54.5 57.5t-27.5 83.5t-7.5 99.5t7.5 100.5t27.5 85t54.5 58.5t88.5 22q62 0 97.5 -25t57.5 -70l11 89h40v-716zM346 256q0 47 -5.5 85t-19.5 64.5t-38.5 40.5t-62.5 14t-62 -14.5t-38 -41t-19.5 -64t-5.5 -84.5
t5.5 -83.5t19.5 -62t38.5 -39t62.5 -13.5q39 0 63.5 14t38 40t18.5 62.5t5 81.5z" />
    <glyph glyph-name="r" unicode="r" horiz-adv-x="254" 
d="M247 455q-42 1 -69 -10t-42 -32.5t-20.5 -54t-5.5 -74.5v-284h-66v516h35l16 -81q19 41 53 63.5t99 23.5v-67v0z" />
    <glyph glyph-name="s" unicode="s" horiz-adv-x="412" 
d="M387 141q0 -26 -9 -52t-29.5 -47t-53 -34.5t-80.5 -13.5q-99 0 -144 48t-47 143h65q2 -69 32.5 -99.5t92.5 -30.5q58 0 82.5 25t25.5 57q1 33 -20 51t-53 29t-70 19.5t-70.5 23.5t-54.5 40.5t-23 70.5q0 31 9 59t30 48t54 32t81 12q47 0 79.5 -13t53 -37t30 -57.5
t11.5 -73.5h-63q-5 63 -30.5 92t-83.5 29t-81.5 -24.5t-23.5 -62.5q1 -30 22.5 -45.5t54 -26.5t70 -20t69 -25t53 -43.5t21.5 -73.5z" />
    <glyph glyph-name="t" unicode="t" horiz-adv-x="270" 
d="M255 -3q-105 -6 -147.5 30.5t-42.5 122.5v301h-54v46l54 19v124h67v-124h123v-65h-123v-301q0 -27 5.5 -45t19.5 -28.5t37.5 -15t60.5 -2.5v-62v0z" />
    <glyph glyph-name="u" unicode="u" horiz-adv-x="446" 
d="M362 0l-10 85q-20 -45 -54.5 -68t-93.5 -23q-53 0 -85 18t-49.5 50t-23.5 77t-6 98v279h65v-285q0 -43 4.5 -75.5t17 -54t34.5 -32.5t58 -11t58.5 11t36 33t18.5 55.5t5 77.5v281h67v-516h-42z" />
    <glyph glyph-name="v" unicode="v" horiz-adv-x="431" 
d="M246 0h-69l-171 516h73l133 -436l139 436h74z" />
    <glyph glyph-name="w" unicode="w" horiz-adv-x="624" 
d="M341 516l106 -425l97 425h71l-128 -516h-73l-105 425l-104 -425h-70l-124 516h71l90 -421l104 421h65z" />
    <glyph glyph-name="x" unicode="x" horiz-adv-x="402" 
d="M327 0l-126 212l-124 -212h-76l163 264l-155 252h72l119 -201l122 201h70l-155 -252l165 -264h-75z" />
    <glyph glyph-name="y" unicode="y" horiz-adv-x="451" 
d="M409 -1q0 -35 -6.5 -71.5t-26 -66t-56 -48t-96.5 -18.5q-53 0 -88.5 12.5t-57 35t-30.5 54t-9 69.5h66q0 -56 25 -83.5t94 -27.5q37 0 60 10.5t36 29.5t17.5 44t4.5 55v77q-21 -42 -52 -59.5t-81 -17.5q-53 0 -85.5 17.5t-50 49t-23.5 76t-6 98.5v281h66v-287
q0 -43 4.5 -75t17 -53.5t34.5 -32t58 -10.5t58.5 10.5t36 32.5t18.5 54.5t5 76.5v284h67v-517z" />
    <glyph glyph-name="z" unicode="z" horiz-adv-x="381" 
d="M27 0v64l247 390h-247v62h323v-64l-250 -390h256v-62h-329z" />
    <glyph glyph-name="braceleft" unicode="{" horiz-adv-x="301" 
d="M107 -68v364h-80v59h80v352h180v-57h-120v-659h120v-59h-180z" />
    <glyph glyph-name="bar" unicode="|" horiz-adv-x="155" 
d="M49 -66v773h60v-773h-60z" />
    <glyph glyph-name="braceright" unicode="}" horiz-adv-x="301" 
d="M196 296v-364h-181v59h120v659h-120v57h181v-352h79v-59h-79z" />
    <glyph glyph-name="asciitilde" unicode="~" horiz-adv-x="447" 
d="M429 379q0 -26 -3.5 -50t-14.5 -42t-31.5 -29t-54.5 -11q-27 0 -54 16t-51.5 35.5t-45 36t-34.5 16.5t-21.5 -7t-12 -19t-6 -28.5t-1.5 -35.5h-63q-2 24 0.5 51t13 50.5t32 39t59.5 15.5q26 0 51 -16.5t48.5 -36t44 -36t37.5 -16.5q15 0 23.5 6.5t13 17t5.5 23.5t1 27v20
h62q2 -13 2 -19v-8z" />
    <glyph glyph-name="uni00A0" unicode="&#xa0;" horiz-adv-x="200" 
 />
    <glyph glyph-name="exclamdown" unicode="&#xa1;" horiz-adv-x="146" 
d="M126 592q0 -28 -12.5 -39.5t-38.5 -11.5t-39.5 11.5t-13.5 39.5q0 29 13.5 41t39.5 12t38.5 -12t12.5 -41zM105 0h-61v276l7 218h45l9 -218v-276z" />
    <glyph glyph-name="cent" unicode="&#xa2;" horiz-adv-x="447" 
d="M352 311q0 76 -31.5 111t-88.5 35q-38 0 -63.5 -15t-41.5 -41t-23 -62.5t-7 -79.5t7 -79.5t23 -63.5t42.5 -42t64.5 -15q55 0 86.5 33.5t31.5 108.5h68q0 -88 -37.5 -141t-118.5 -64v-125h-62v126q-52 8 -85 33t-52 60t-26.5 78.5t-7.5 88.5q0 46 7.5 89.5t27 79
t52.5 59.5t84 32v123h62v-123q80 -11 118 -64t38 -142h-68z" />
    <glyph glyph-name="sterling" unicode="&#xa3;" horiz-adv-x="454" 
d="M356 444q-1 77 -23 106.5t-74 29.5q-51 0 -75 -33.5t-24 -107.5v-84h221v-63h-221v-112q0 -49 -9.5 -73t-33.5 -41h304v-66h-395v65q11 2 23 9t22 19.5t16.5 31.5t6.5 46v121h-63v63h63v84q0 44 8 82t26.5 65.5t50.5 43.5t80 16q49 0 80 -13.5t49 -39.5t25.5 -63.5
t7.5 -85.5h-65z" />
    <glyph glyph-name="yen" unicode="&#xa5;" horiz-adv-x="476" 
d="M294 254h150v-64h-174v-190h-70v190h-170v64h147l-173 386h70l162 -376l166 376h70z" />
    <glyph glyph-name="brokenbar" unicode="&#xa6;" horiz-adv-x="155" 
d="M49 381v326h60v-326h-60zM49 -66v333h60v-333h-60z" />
    <glyph glyph-name="section" unicode="&#xa7;" horiz-adv-x="437" 
d="M35 309q0 28 13 54.5t41 46.5q-17 15 -26 35.5t-9 49.5q0 31 9 58.5t29.5 48t53.5 32t81 11.5q47 0 79.5 -13t53 -37t30 -57t11.5 -73h-62q-5 62 -31 91t-83 29q-59 0 -82 -24t-23 -62q0 -30 21.5 -45.5t53.5 -26.5t70 -20t70 -25.5t53.5 -43.5t21.5 -73q0 -60 -55 -103
q16 -14 26 -34t10 -49q0 -32 -9 -59t-30 -47.5t-54 -32t-81 -11.5q-47 0 -79.5 13t-53 36.5t-30 56.5t-10.5 74h62q5 -63 31 -91.5t83 -28.5q58 0 81.5 24t23.5 62q0 29 -21.5 45t-53.5 26.5t-70 20t-70 25.5t-53.5 43.5t-21.5 73.5zM100 312q-1 -32 18.5 -49.5t49.5 -28.5
t66.5 -19t69.5 -21q21 11 30.5 29t10.5 38q1 32 -19 49.5t-50 28.5t-66.5 19.5t-68.5 21.5q-22 -11 -31 -29.5t-10 -38.5z" />
    <glyph glyph-name="dieresis" unicode="&#xa8;" horiz-adv-x="411" 
d="M331 612q0 -47 -47 -47q-48 0 -48 47q0 28 11.5 38.5t36.5 10.5t36 -10.5t11 -38.5zM199 612q0 -47 -48 -47q-49 0 -49 47q0 28 11.5 38.5t37.5 10.5q25 0 36.5 -10.5t11.5 -38.5z" />
    <glyph glyph-name="copyright" unicode="&#xa9;" horiz-adv-x="704" 
d="M666 320q0 -87 -15 -162.5t-51 -131t-96.5 -87.5t-151.5 -32t-151.5 32t-96.5 88t-50.5 131.5t-14.5 162.5q0 86 15 161t51 130.5t96 87.5t151 32t151.5 -32t96.5 -87.5t51 -130.5t15 -162zM605 320q0 80 -13 145t-42.5 110.5t-78 70.5t-119.5 25q-70 0 -118 -25
t-77.5 -71t-42.5 -111t-13 -144q0 -80 13 -145t42 -111t77 -70.5t119 -24.5q70 0 118.5 24.5t78.5 70.5t43 110.5t13 145.5zM447 355q0 71 -26.5 98t-66.5 27q-54 0 -79.5 -41t-25.5 -122q0 -161 106 -161q39 0 65.5 26t26.5 95h59q0 -182 -151 -182q-47 0 -78.5 17.5
t-50.5 47.5t-27.5 70.5t-8.5 86.5t8.5 86.5t27.5 71t50.5 48t78.5 17.5q73 0 112 -47t39 -138h-59z" />
    <glyph glyph-name="ordfeminine" unicode="&#xaa;" horiz-adv-x="434" 
d="M360 124l-11 96q-56 -102 -163 -102q-34 0 -62.5 9.5t-49.5 28.5t-32.5 47.5t-11.5 66.5q0 68 39 101.5t126 47.5l140 22q-1 37 -7.5 64.5t-20 45.5t-36 26.5t-55.5 8.5q-60 0 -85.5 -32t-25.5 -96h-65q0 40 8 74.5t28.5 60t54 39.5t84.5 14q62 0 98.5 -17t56 -47.5
t25.5 -72.5t6 -91v-294h-41zM335 383l-129 -23q-58 -11 -83.5 -29t-25.5 -60q0 -49 28.5 -71t73.5 -22q27 0 51.5 10.5t43.5 31.5t30 53t11 76v34z" />
    <glyph glyph-name="guillemotleft" unicode="&#xab;" horiz-adv-x="326" 
d="M220 259l81 -213h-66l-81 213l81 214h66zM92 259l82 -213h-65l-83 213l83 214h65z" />
    <glyph glyph-name="logicalnot" unicode="&#xac;" horiz-adv-x="497" 
d="M461 107h-61v227h-365v63h426v-290z" />
    <glyph glyph-name="uni00AD" unicode="&#xad;" horiz-adv-x="300" 
d="M36 227v63h229v-63h-229z" />
    <glyph glyph-name="registered" unicode="&#xae;" horiz-adv-x="704" 
d="M666 320q0 -87 -15 -162.5t-51 -131t-96.5 -87.5t-151.5 -32t-151.5 32t-96.5 88t-50.5 131.5t-14.5 162.5q0 86 15 161t51 130.5t96 87.5t151 32t151.5 -32t96.5 -87.5t51 -130.5t15 -162zM605 320q0 80 -13 145t-42.5 110.5t-78 70.5t-119.5 25q-70 0 -118 -25
t-77.5 -71t-42.5 -111t-13 -144q0 -80 13 -145t42 -111t77 -70.5t119 -24.5q70 0 118.5 24.5t78.5 70.5t43 110.5t13 145.5zM424 105l-148 167v-167h-59v426h133q52 0 82.5 -13.5t46 -34t19.5 -44t4 -42.5q0 -20 -4 -42.5t-16 -42.5t-34 -33t-59 -13h-38l154 -161h-81z
M444 397q0 15 -3 30t-12.5 26.5t-28 19t-49.5 7.5h-75v-163h78q31 0 49 7t27 18t11.5 25.5t2.5 29.5z" />
    <glyph glyph-name="macron" unicode="&#xaf;" horiz-adv-x="411" 
d="M35 576v64h336v-64h-336z" />
    <glyph glyph-name="degree" unicode="&#xb0;" horiz-adv-x="407" 
d="M381 413q0 -44 -6 -85.5t-25 -74t-53.5 -52.5t-91.5 -20q-58 0 -92.5 20t-53 52.5t-24.5 74t-6 85.5q0 43 6 85t24.5 75t53 53t92.5 20q57 0 91.5 -20t53.5 -53t25 -75t6 -85zM313 413q0 36 -4.5 67.5t-16.5 54.5t-33 36t-54 13t-54 -13t-33 -35.5t-16.5 -54t-4.5 -68.5
t4.5 -68.5t16.5 -54t33 -35.5t54 -13q32 0 53 13t33 35.5t17 54t5 68.5z" />
    <glyph glyph-name="plusminus" unicode="&#xb1;" horiz-adv-x="489" 
d="M216 640h61v-226h184v-64h-184v-226h-61v226h-181v64h181v226zM47 0v64h402v-64h-402z" />
    <glyph glyph-name="acute" unicode="&#xb4;" horiz-adv-x="434" 
d="M41 545v64l351 87v-64z" />
    <glyph glyph-name="mu" unicode="&#xb5;" horiz-adv-x="445" 
d="M232 -6q-47 0 -75.5 18.5t-46.5 54.5v-267h-66v716h66v-286q0 -93 26 -132.5t86 -39.5q36 0 58.5 11t36 33t18.5 55.5t5 77.5v281h66v-516h-42l-10 85q-20 -43 -48.5 -67t-73.5 -24z" />
    <glyph glyph-name="mu" unicode="&#x3bc;" horiz-adv-x="445" 
d="M232 -6q-47 0 -75.5 18.5t-46.5 54.5v-267h-66v716h66v-286q0 -93 26 -132.5t86 -39.5q36 0 58.5 11t36 33t18.5 55.5t5 77.5v281h66v-516h-42l-10 85q-20 -43 -48.5 -67t-73.5 -24z" />
    <glyph glyph-name="paragraph" unicode="&#xb6;" horiz-adv-x="255" 
d="M202 0h-67v461h-26q-22 0 -37 7.5t-24 20t-13 28.5t-4 33q0 18 4 34t13 28.5t23 20t34 7.5h97v-640z" />
    <glyph glyph-name="periodcentered" unicode="&#xb7;" horiz-adv-x="152" 
d="M127 321q0 -28 -12.5 -39.5t-38.5 -11.5t-38.5 11.5t-12.5 39.5q0 29 12.5 40t38.5 11t38.5 -11t12.5 -40z" />
    <glyph glyph-name="cedilla" unicode="&#xb8;" horiz-adv-x="440" 
d="M286 0q-2 -44 -9.5 -73t-21.5 -46t-35 -24.5t-49 -7.5h-127v61h121q31 0 44.5 19.5t15.5 70.5h61v0z" />
    <glyph glyph-name="ordmasculine" unicode="&#xba;" horiz-adv-x="446" 
d="M416 381q0 -49 -8 -96.5t-30 -84.5t-59.5 -59.5t-96.5 -22.5t-96 23t-58.5 60t-29.5 84t-8 96q0 48 8 95.5t29.5 85t59 61t95.5 23.5q59 0 96.5 -23.5t59.5 -61t30 -85t8 -95.5zM349 381q0 42 -6 78.5t-20.5 64t-39 43t-61.5 15.5q-36 0 -60.5 -15.5t-38.5 -42.5t-20 -64
t-6 -79t6 -79t20 -64t38.5 -42.5t60.5 -15.5q37 0 61.5 15t39 42t20.5 64t6 80z" />
    <glyph glyph-name="guillemotright" unicode="&#xbb;" horiz-adv-x="326" 
d="M219 46h-65l80 213l-80 214h65l82 -214zM91 46h-65l81 213l-81 214h65l83 -214z" />
    <glyph glyph-name="questiondown" unicode="&#xbf;" horiz-adv-x="427" 
d="M35 201q0 58 16.5 97t42 62t54.5 33t55 10h18l7 90h59v-149h-60q-25 0 -47.5 -7.5t-40 -24t-27.5 -44t-10 -67.5q0 -64 28.5 -102.5t87.5 -38.5q62 0 92.5 31t32.5 103h67q-2 -45 -12.5 -81.5t-33 -63t-58 -41t-86.5 -14.5t-86 16.5t-57 45t-32 66t-10 79.5zM206 594
q0 29 12.5 40.5t38.5 11.5t39.5 -11.5t13.5 -40.5t-13.5 -40t-39.5 -11t-38.5 11t-12.5 40z" />
    <glyph glyph-name="Agrave" unicode="&#xc0;" horiz-adv-x="494" 
d="M421 0l-41 136h-263l-42 -136h-71l201 640h87l199 -640h-70zM249 565l-117 -371h232zM74 751v60l352 -82v-64z" />
    <glyph glyph-name="Aacute" unicode="&#xc1;" horiz-adv-x="494" 
d="M421 0l-41 136h-263l-42 -136h-71l201 640h87l199 -640h-70zM249 565l-117 -371h232zM75 669v64l351 87v-64z" />
    <glyph glyph-name="Acircumflex" unicode="&#xc2;" horiz-adv-x="494" 
d="M421 0l-41 136h-263l-42 -136h-71l201 640h87l199 -640h-70zM249 565l-117 -371h232zM249 745l-175 -77v65l175 78l177 -78v-65z" />
    <glyph glyph-name="Atilde" unicode="&#xc3;" horiz-adv-x="494" 
d="M421 0l-41 136h-263l-42 -136h-71l201 640h87l199 -640h-70zM249 565l-117 -371h232zM449 801q0 -26 -3.5 -49t-14.5 -40t-31.5 -26.5t-54.5 -9.5q-26 0 -53.5 14.5t-52 31.5t-45.5 31.5t-34 14.5q-27 0 -33.5 -23.5t-7.5 -61.5h-63q-2 24 0.5 50t13 48.5t32 37
t59.5 14.5q25 0 50.5 -14.5t48.5 -31.5t44 -31.5t38 -14.5q25 0 34 15.5t9 51.5v20h62q2 -14 2 -19.5v-7.5z" />
    <glyph glyph-name="Adieresis" unicode="&#xc4;" horiz-adv-x="494" 
d="M421 0l-41 136h-263l-42 -136h-71l201 640h87l199 -640h-70zM249 565l-117 -371h232zM365 736q0 -47 -47 -47q-48 0 -48 47q0 28 11.5 38.5t36.5 10.5t36 -10.5t11 -38.5zM233 736q0 -47 -48 -47q-49 0 -49 47q0 28 11.5 38.5t37.5 10.5q25 0 36.5 -10.5t11.5 -38.5z" />
    <glyph glyph-name="Aring" unicode="&#xc5;" horiz-adv-x="494" 
d="M421 0l-41 136h-263l-42 -136h-71l201 640h87l199 -640h-70zM249 565l-117 -371h232zM364 783q0 -55 -24.5 -82t-88.5 -27q-67 0 -90.5 27t-23.5 82t23.5 81.5t90.5 26.5q64 0 88.5 -26.5t24.5 -81.5zM306 783q0 35 -14 44t-41 9t-41.5 -9t-14.5 -44t14.5 -45t41.5 -10
q26 0 40.5 10t14.5 45z" />
    <glyph glyph-name="AE" unicode="&#xc6;" horiz-adv-x="760" 
d="M386 0v136h-241l-76 -136h-72l355 640h378v-66h-278v-215h255v-64h-255v-230h278v-65h-344zM386 572l-210 -378h210v378z" />
    <glyph glyph-name="Ccedilla" unicode="&#xc7;" horiz-adv-x="526" 
d="M424 392q0 86 -39.5 137.5t-115.5 51.5q-48 0 -79.5 -19.5t-49.5 -54.5t-25.5 -83t-7.5 -104t7.5 -104t25.5 -83t49.5 -54.5t79.5 -19.5q77 0 116.5 50.5t39.5 139.5h69q0 -50 -11 -93.5t-34 -76.5t-60.5 -54.5t-89.5 -28.5q-3 -82 -30.5 -114.5t-83.5 -32.5h-109v61h103
q29 0 42.5 19.5t15.5 66.5q-61 8 -99.5 37t-60.5 73t-30 99t-8 115q0 64 9.5 123t35 104t70.5 72t115 27q59 0 101.5 -20t70 -54.5t40.5 -81t13 -98.5h-70z" />
    <glyph glyph-name="Egrave" unicode="&#xc8;" horiz-adv-x="429" 
d="M54 0v640h345v-65h-277v-216h253v-64h-253v-230h277v-65h-345zM48 751v60l352 -82v-64z" />
    <glyph glyph-name="Eacute" unicode="&#xc9;" horiz-adv-x="429" 
d="M54 0v640h345v-65h-277v-216h253v-64h-253v-230h277v-65h-345zM48 669v64l351 87v-64z" />
    <glyph glyph-name="Ecircumflex" unicode="&#xca;" horiz-adv-x="429" 
d="M54 0v640h345v-65h-277v-216h253v-64h-253v-230h277v-65h-345zM222 745l-175 -77v65l175 78l177 -78v-65z" />
    <glyph glyph-name="Edieresis" unicode="&#xcb;" horiz-adv-x="429" 
d="M54 0v640h345v-65h-277v-216h253v-64h-253v-230h277v-65h-345zM346 736q0 -47 -47 -47q-48 0 -48 47q0 28 11.5 38.5t36.5 10.5t36 -10.5t11 -38.5zM214 736q0 -47 -48 -47q-49 0 -49 47q0 28 11.5 38.5t37.5 10.5q25 0 36.5 -10.5t11.5 -38.5z" />
    <glyph glyph-name="Igrave" unicode="&#xcc;" horiz-adv-x="175" 
d="M24 715v64l136 -44v-63zM54 0v640h68v-640h-68z" />
    <glyph glyph-name="Iacute" unicode="&#xcd;" horiz-adv-x="175" 
d="M20 672v63l140 41v-64zM54 0v640h68v-640h-68z" />
    <glyph glyph-name="Icircumflex" unicode="&#xce;" horiz-adv-x="176" 
d="M87 720l-78 -45v66l78 45l79 -45v-66zM54 0v640h68v-640h-68z" />
    <glyph glyph-name="Idieresis" unicode="&#xcf;" horiz-adv-x="175" 
d="M201 734q0 -26 -11 -37t-36 -11t-36 11t-11 37q0 27 11 37.5t36 10.5t36 -10.5t11 -37.5zM69 734q0 -26 -11.5 -37t-36.5 -11q-26 0 -36.5 11t-10.5 37q0 27 10.5 37.5t36.5 10.5q25 0 36.5 -10.5t11.5 -37.5zM54 0v640h68v-640h-68z" />
    <glyph glyph-name="Eth" unicode="&#xd0;" horiz-adv-x="517" 
d="M71 295h-65v62h65v283h189q114 0 167.5 -82.5t53.5 -233.5q0 -75 -14 -135t-42.5 -102t-71.5 -64.5t-101 -22.5h-181v295zM415 324q0 70 -11 118.5t-32 78t-52.5 42.5t-72.5 13h-108v-219h115v-62h-115v-231h103q41 0 73.5 14.5t54.5 45.5t33.5 80.5t11.5 119.5z" />
    <glyph glyph-name="Ntilde" unicode="&#xd1;" horiz-adv-x="557" 
d="M56 640h84l296 -531v531h69v-640h-81l-299 537v-537h-69v640zM486 801q0 -26 -3.5 -49t-14.5 -40t-31.5 -26.5t-54.5 -9.5q-26 0 -53.5 14.5t-52 31.5t-45.5 31.5t-34 14.5q-27 0 -33.5 -23.5t-7.5 -61.5h-63q-2 24 0.5 50t13 48.5t32 37t59.5 14.5q25 0 50.5 -14.5
t48.5 -31.5t44 -31.5t38 -14.5q25 0 34 15.5t9 51.5v20h62q2 -14 2 -19.5v-7.5z" />
    <glyph glyph-name="Ograve" unicode="&#xd2;" horiz-adv-x="551" 
d="M514 319q0 -64 -10 -122.5t-36.5 -103.5t-72.5 -72t-119 -27t-119 27t-72.5 72t-36 104t-9.5 123t10 123t36.5 104t72.5 72t118 27q73 0 119 -27t72.5 -72t36.5 -104.5t10 -123.5zM445 319q0 57 -7.5 105t-26.5 83t-52 54.5t-83 19.5t-82.5 -19.5t-51.5 -54.5t-27 -83
t-8 -104t8 -104t27 -83t51.5 -54.5t82.5 -19.5t83 19.5t52 54.5t26.5 82.5t7.5 103.5zM97 751v60l352 -82v-64z" />
    <glyph glyph-name="Oacute" unicode="&#xd3;" horiz-adv-x="551" 
d="M514 319q0 -64 -10 -122.5t-36.5 -103.5t-72.5 -72t-119 -27t-119 27t-72.5 72t-36 104t-9.5 123t10 123t36.5 104t72.5 72t118 27q73 0 119 -27t72.5 -72t36.5 -104.5t10 -123.5zM445 319q0 57 -7.5 105t-26.5 83t-52 54.5t-83 19.5t-82.5 -19.5t-51.5 -54.5t-27 -83
t-8 -104t8 -104t27 -83t51.5 -54.5t82.5 -19.5t83 19.5t52 54.5t26.5 82.5t7.5 103.5zM98 669v64l351 87v-64z" />
    <glyph glyph-name="Ocircumflex" unicode="&#xd4;" horiz-adv-x="551" 
d="M514 319q0 -64 -10 -122.5t-36.5 -103.5t-72.5 -72t-119 -27t-119 27t-72.5 72t-36 104t-9.5 123t10 123t36.5 104t72.5 72t118 27q73 0 119 -27t72.5 -72t36.5 -104.5t10 -123.5zM445 319q0 57 -7.5 105t-26.5 83t-52 54.5t-83 19.5t-82.5 -19.5t-51.5 -54.5t-27 -83
t-8 -104t8 -104t27 -83t51.5 -54.5t82.5 -19.5t83 19.5t52 54.5t26.5 82.5t7.5 103.5zM272 745l-175 -77v65l175 78l177 -78v-65z" />
    <glyph glyph-name="Otilde" unicode="&#xd5;" horiz-adv-x="551" 
d="M514 319q0 -64 -10 -122.5t-36.5 -103.5t-72.5 -72t-119 -27t-119 27t-72.5 72t-36 104t-9.5 123t10 123t36.5 104t72.5 72t118 27q73 0 119 -27t72.5 -72t36.5 -104.5t10 -123.5zM445 319q0 57 -7.5 105t-26.5 83t-52 54.5t-83 19.5t-82.5 -19.5t-51.5 -54.5t-27 -83
t-8 -104t8 -104t27 -83t51.5 -54.5t82.5 -19.5t83 19.5t52 54.5t26.5 82.5t7.5 103.5zM484 801q0 -26 -3.5 -49t-14.5 -40t-31.5 -26.5t-54.5 -9.5q-26 0 -53.5 14.5t-52 31.5t-45.5 31.5t-34 14.5q-27 0 -33.5 -23.5t-7.5 -61.5h-63q-2 24 0.5 50t13 48.5t32 37t59.5 14.5
q25 0 50.5 -14.5t48.5 -31.5t44 -31.5t38 -14.5q25 0 34 15.5t9 51.5v20h62q2 -14 2 -19.5v-7.5z" />
    <glyph glyph-name="Odieresis" unicode="&#xd6;" horiz-adv-x="551" 
d="M514 319q0 -64 -10 -122.5t-36.5 -103.5t-72.5 -72t-119 -27t-119 27t-72.5 72t-36 104t-9.5 123t10 123t36.5 104t72.5 72t118 27q73 0 119 -27t72.5 -72t36.5 -104.5t10 -123.5zM445 319q0 57 -7.5 105t-26.5 83t-52 54.5t-83 19.5t-82.5 -19.5t-51.5 -54.5t-27 -83
t-8 -104t8 -104t27 -83t51.5 -54.5t82.5 -19.5t83 19.5t52 54.5t26.5 82.5t7.5 103.5zM392 736q0 -47 -47 -47q-48 0 -48 47q0 28 11.5 38.5t36.5 10.5t36 -10.5t11 -38.5zM260 736q0 -47 -48 -47q-49 0 -49 47q0 28 11.5 38.5t37.5 10.5q25 0 36.5 -10.5t11.5 -38.5z" />
    <glyph glyph-name="multiply" unicode="&#xd7;" horiz-adv-x="425" 
d="M327 0l-126 212l-124 -212h-76l163 264l-157 252h73l120 -201l122 201h70l-155 -252l165 -264h-75z" />
    <glyph glyph-name="Oslash" unicode="&#xd8;" horiz-adv-x="551" 
d="M388 622q37 -18 61.5 -49.5t39 -71t20 -86.5t5.5 -96q0 -64 -10 -122.5t-36.5 -103.5t-72.5 -72t-119 -27q-14 0 -27 1t-25 3l-17 -64h-61l21 82q-38 18 -63 49t-39.5 71t-20 87t-5.5 97q0 64 10 123t36.5 104t72.5 72t118 27q28 0 56 -5l17 66h61zM107 320
q0 -81 16.5 -143t61.5 -93l130 493q-9 2 -18.5 3t-20.5 1q-50 0 -82.5 -19.5t-51.5 -54.5t-27 -83t-8 -104zM445 319q0 80 -16 141.5t-59 93.5l-129 -492q16 -3 35 -3q50 0 83 19.5t52 54.5t26.5 82.5t7.5 103.5z" />
    <glyph glyph-name="Ugrave" unicode="&#xd9;" horiz-adv-x="520" 
d="M476 284q0 -77 -12 -132t-38 -90t-67 -51.5t-98 -16.5q-58 0 -98.5 16.5t-66.5 51.5t-38 90t-12 132v356h68v-355q0 -60 8 -103t25.5 -70t45.5 -39.5t68 -12.5t67.5 12t45 39t25.5 69.5t8 103.5v356h69v-356zM86 751v60l352 -82v-64z" />
    <glyph glyph-name="Uacute" unicode="&#xda;" horiz-adv-x="520" 
d="M476 284q0 -77 -12 -132t-38 -90t-67 -51.5t-98 -16.5q-58 0 -98.5 16.5t-66.5 51.5t-38 90t-12 132v356h68v-355q0 -60 8 -103t25.5 -70t45.5 -39.5t68 -12.5t67.5 12t45 39t25.5 69.5t8 103.5v356h69v-356zM86 669v64l351 87v-64z" />
    <glyph glyph-name="Ucircumflex" unicode="&#xdb;" horiz-adv-x="520" 
d="M476 284q0 -77 -12 -132t-38 -90t-67 -51.5t-98 -16.5q-58 0 -98.5 16.5t-66.5 51.5t-38 90t-12 132v356h68v-355q0 -60 8 -103t25.5 -70t45.5 -39.5t68 -12.5t67.5 12t45 39t25.5 69.5t8 103.5v356h69v-356zM260 745l-175 -77v65l175 78l177 -78v-65z" />
    <glyph glyph-name="Udieresis" unicode="&#xdc;" horiz-adv-x="520" 
d="M476 284q0 -77 -12 -132t-38 -90t-67 -51.5t-98 -16.5q-58 0 -98.5 16.5t-66.5 51.5t-38 90t-12 132v356h68v-355q0 -60 8 -103t25.5 -70t45.5 -39.5t68 -12.5t67.5 12t45 39t25.5 69.5t8 103.5v356h69v-356zM372 736q0 -47 -47 -47q-48 0 -48 47q0 28 11.5 38.5
t36.5 10.5t36 -10.5t11 -38.5zM240 736q0 -47 -48 -47q-49 0 -49 47q0 28 11.5 38.5t37.5 10.5q25 0 36.5 -10.5t11.5 -38.5z" />
    <glyph glyph-name="Yacute" unicode="&#xdd;" horiz-adv-x="476" 
d="M270 194v-194h-70v194l-196 446h75l157 -376l161 376h75zM62 669v64l351 87v-64z" />
    <glyph glyph-name="Thorn" unicode="&#xde;" horiz-adv-x="474" 
d="M439 327q0 -31 -4 -66.5t-23.5 -66t-59.5 -50.5t-112 -20h-118v-124h-68v640h68v-103h112q72 0 113 -21t61.5 -52.5t25.5 -68.5t5 -68zM371 327q0 26 -4 52.5t-18.5 47.5t-41 34t-71.5 13h-114v-288h117q45 0 71 12.5t39.5 32.5t17.5 45t4 51z" />
    <glyph glyph-name="germandbls" unicode="&#xdf;" horiz-adv-x="552" 
d="M65 560q0 40 8.5 69.5t27.5 48.5t49.5 28.5t74.5 9.5q59 0 93.5 -14t52.5 -38t23.5 -56t5.5 -68q0 -20 -0.5 -41t-0.5 -42q-24 0 -51 -1t-50 -8t-38 -23t-15 -46q0 -32 21.5 -48.5t54 -27.5t70 -20t70 -25t54 -43t21.5 -74q0 -26 -9 -52.5t-30 -47.5t-54 -34t-81 -13
q-99 0 -144 48t-47 142h65q2 -68 33 -97.5t92 -29.5q59 0 84 23.5t25 55.5q0 34 -21.5 52t-53.5 29t-70 19.5t-70.5 23t-54 40t-21.5 71.5q0 28 7 53t25 44.5t48 32.5t75 16v44q0 51 -25 68t-79 17q-26 0 -45 -4t-31 -16t-17.5 -34t-5.5 -58v-534h-66v452h-54v47l54 15v46z
" />
    <glyph glyph-name="agrave" unicode="&#xe0;" horiz-adv-x="439" 
d="M360 0l-11 96q-56 -102 -163 -102q-34 0 -62.5 9.5t-49.5 28.5t-32.5 47.5t-11.5 66.5q0 68 39 101.5t126 47.5l140 22q-1 37 -7.5 64.5t-20 45.5t-36 26.5t-55.5 8.5q-60 0 -85.5 -32t-25.5 -96h-65q0 40 8 74.5t28.5 60t54 39.5t84.5 14q62 0 98.5 -17t56 -47.5
t25.5 -72.5t6 -91v-294h-41zM335 259l-129 -23q-58 -11 -83.5 -29t-25.5 -60q0 -49 28.5 -71t73.5 -22q27 0 51.5 10.5t43.5 31.5t30 53t11 76v34zM41 627v60l352 -82v-64z" />
    <glyph glyph-name="aacute" unicode="&#xe1;" horiz-adv-x="439" 
d="M360 0l-11 96q-56 -102 -163 -102q-34 0 -62.5 9.5t-49.5 28.5t-32.5 47.5t-11.5 66.5q0 68 39 101.5t126 47.5l140 22q-1 37 -7.5 64.5t-20 45.5t-36 26.5t-55.5 8.5q-60 0 -85.5 -32t-25.5 -96h-65q0 40 8 74.5t28.5 60t54 39.5t84.5 14q62 0 98.5 -17t56 -47.5
t25.5 -72.5t6 -91v-294h-41zM335 259l-129 -23q-58 -11 -83.5 -29t-25.5 -60q0 -49 28.5 -71t73.5 -22q27 0 51.5 10.5t43.5 31.5t30 53t11 76v34zM41 545v64l351 87v-64z" />
    <glyph glyph-name="acircumflex" unicode="&#xe2;" horiz-adv-x="439" 
d="M360 0l-11 96q-56 -102 -163 -102q-34 0 -62.5 9.5t-49.5 28.5t-32.5 47.5t-11.5 66.5q0 68 39 101.5t126 47.5l140 22q-1 37 -7.5 64.5t-20 45.5t-36 26.5t-55.5 8.5q-60 0 -85.5 -32t-25.5 -96h-65q0 40 8 74.5t28.5 60t54 39.5t84.5 14q62 0 98.5 -17t56 -47.5
t25.5 -72.5t6 -91v-294h-41zM335 259l-129 -23q-58 -11 -83.5 -29t-25.5 -60q0 -49 28.5 -71t73.5 -22q27 0 51.5 10.5t43.5 31.5t30 53t11 76v34zM218 621l-175 -77v65l175 78l177 -78v-65z" />
    <glyph glyph-name="atilde" unicode="&#xe3;" horiz-adv-x="439" 
d="M360 0l-11 96q-56 -102 -163 -102q-34 0 -62.5 9.5t-49.5 28.5t-32.5 47.5t-11.5 66.5q0 68 39 101.5t126 47.5l140 22q-1 37 -7.5 64.5t-20 45.5t-36 26.5t-55.5 8.5q-60 0 -85.5 -32t-25.5 -96h-65q0 40 8 74.5t28.5 60t54 39.5t84.5 14q62 0 98.5 -17t56 -47.5
t25.5 -72.5t6 -91v-294h-41zM335 259l-129 -23q-58 -11 -83.5 -29t-25.5 -60q0 -49 28.5 -71t73.5 -22q27 0 51.5 10.5t43.5 31.5t30 53t11 76v34zM415 677q0 -26 -3.5 -49t-14.5 -40t-31.5 -26.5t-54.5 -9.5q-26 0 -53.5 14.5t-52 31.5t-45.5 31.5t-34 14.5
q-27 0 -33.5 -23.5t-7.5 -61.5h-63q-2 24 0.5 50t13 48.5t32 37t59.5 14.5q25 0 50.5 -14.5t48.5 -31.5t44 -31.5t38 -14.5q25 0 34 15.5t9 51.5v20h62q2 -14 2 -19.5v-7.5z" />
    <glyph glyph-name="adieresis" unicode="&#xe4;" horiz-adv-x="439" 
d="M360 0l-11 96q-56 -102 -163 -102q-34 0 -62.5 9.5t-49.5 28.5t-32.5 47.5t-11.5 66.5q0 68 39 101.5t126 47.5l140 22q-1 37 -7.5 64.5t-20 45.5t-36 26.5t-55.5 8.5q-60 0 -85.5 -32t-25.5 -96h-65q0 40 8 74.5t28.5 60t54 39.5t84.5 14q62 0 98.5 -17t56 -47.5
t25.5 -72.5t6 -91v-294h-41zM335 259l-129 -23q-58 -11 -83.5 -29t-25.5 -60q0 -49 28.5 -71t73.5 -22q27 0 51.5 10.5t43.5 31.5t30 53t11 76v34zM331 612q0 -47 -47 -47q-48 0 -48 47q0 28 11.5 38.5t36.5 10.5t36 -10.5t11 -38.5zM199 612q0 -47 -48 -47q-49 0 -49 47
q0 28 11.5 38.5t37.5 10.5q25 0 36.5 -10.5t11.5 -38.5z" />
    <glyph glyph-name="aring" unicode="&#xe5;" horiz-adv-x="439" 
d="M360 0l-11 96q-56 -102 -163 -102q-34 0 -62.5 9.5t-49.5 28.5t-32.5 47.5t-11.5 66.5q0 68 39 101.5t126 47.5l140 22q-1 37 -7.5 64.5t-20 45.5t-36 26.5t-55.5 8.5q-60 0 -85.5 -32t-25.5 -96h-65q0 40 8 74.5t28.5 60t54 39.5t84.5 14q62 0 98.5 -17t56 -47.5
t25.5 -72.5t6 -91v-294h-41zM335 259l-129 -23q-58 -11 -83.5 -29t-25.5 -60q0 -49 28.5 -71t73.5 -22q27 0 51.5 10.5t43.5 31.5t30 53t11 76v34zM330 659q0 -55 -24.5 -82t-88.5 -27q-67 0 -90.5 27t-23.5 82t23.5 81.5t90.5 26.5q64 0 88.5 -26.5t24.5 -81.5zM272 659
q0 35 -14 44t-41 9t-41.5 -9t-14.5 -44t14.5 -45t41.5 -10q26 0 40.5 10t14.5 45z" />
    <glyph glyph-name="ae" unicode="&#xe6;" horiz-adv-x="750" 
d="M726 164q-4 -35 -16 -66t-34 -54t-55.5 -36.5t-80.5 -13.5q-63 0 -100 25.5t-59 73.5v-93h-37l-14 74q-27 -44 -62.5 -62t-77.5 -18q-34 0 -62.5 9.5t-49.5 28.5t-32.5 47.5t-11.5 66.5q0 69 39.5 104t126.5 47l139 20q-1 37 -7.5 63.5t-20 44t-36 25.5t-55.5 8
q-18 0 -37.5 -2t-36 -13t-28 -34.5t-12.5 -66.5h-65q0 41 8.5 74t28.5 56.5t54.5 36.5t86.5 13q68 0 103.5 -27.5t52.5 -84.5q23 57 62.5 84.5t102.5 27.5q57 0 93.5 -23.5t57.5 -63.5t28.5 -94.5t5.5 -115.5h-320q5 -84 36.5 -126.5t97.5 -42.5q54 0 83.5 30t34.5 78h69z
M656 287q0 78 -28.5 124.5t-92.5 46.5q-34 0 -57.5 -12.5t-39 -35t-23.5 -54.5t-10 -71h251v2zM211 239q-58 -9 -84 -29.5t-26 -62.5q0 -49 28.5 -70t72.5 -21q27 0 52 10t44 31t30 52.5t11 75.5v31z" />
    <glyph glyph-name="ccedilla" unicode="&#xe7;" 
d="M332 310q0 76 -29.5 112t-83.5 36q-37 0 -61.5 -15t-39.5 -42t-21 -64t-6 -80t6 -79.5t21 -63.5t39.5 -42t62.5 -15q54 0 83 34t29 109h67q0 -88 -35 -141t-110 -63q-2 -42 -9.5 -70.5t-22 -45.5t-35 -24t-48.5 -7h-87v61h81q30 0 43.5 18.5t16.5 67.5q-51 5 -84 29
t-51.5 60t-25.5 80.5t-7 90.5q0 49 8 97t30 85.5t59.5 60.5t97.5 23q91 0 135 -57.5t44 -154.5h-67z" />
    <glyph glyph-name="egrave" unicode="&#xe8;" 
d="M409 160q-5 -35 -16.5 -65t-33 -52.5t-54.5 -35.5t-79 -13q-62 0 -101.5 22.5t-61.5 60t-30 85t-8 97.5q0 49 8 96t30 84t61 60t101 23q58 0 94.5 -23.5t57 -63.5t27 -94.5t3.5 -115.5h-313q5 -84 35.5 -128t95.5 -44q54 0 80.5 29.5t34.5 77.5h69zM340 285
q0 40 -6.5 72.5t-21 55.5t-37 36t-54.5 13q-34 0 -57 -13t-38 -36t-22.5 -55.5t-9.5 -72.5h246zM46 627v60l352 -82v-64z" />
    <glyph glyph-name="eacute" unicode="&#xe9;" 
d="M409 160q-5 -35 -16.5 -65t-33 -52.5t-54.5 -35.5t-79 -13q-62 0 -101.5 22.5t-61.5 60t-30 85t-8 97.5q0 49 8 96t30 84t61 60t101 23q58 0 94.5 -23.5t57 -63.5t27 -94.5t3.5 -115.5h-313q5 -84 35.5 -128t95.5 -44q54 0 80.5 29.5t34.5 77.5h69zM340 285
q0 40 -6.5 72.5t-21 55.5t-37 36t-54.5 13q-34 0 -57 -13t-38 -36t-22.5 -55.5t-9.5 -72.5h246zM41 545v64l351 87v-64z" />
    <glyph glyph-name="ecircumflex" unicode="&#xea;" 
d="M409 160q-5 -35 -16.5 -65t-33 -52.5t-54.5 -35.5t-79 -13q-62 0 -101.5 22.5t-61.5 60t-30 85t-8 97.5q0 49 8 96t30 84t61 60t101 23q58 0 94.5 -23.5t57 -63.5t27 -94.5t3.5 -115.5h-313q5 -84 35.5 -128t95.5 -44q54 0 80.5 29.5t34.5 77.5h69zM340 285
q0 40 -6.5 72.5t-21 55.5t-37 36t-54.5 13q-34 0 -57 -13t-38 -36t-22.5 -55.5t-9.5 -72.5h246zM220 621l-175 -77v65l175 78l177 -78v-65z" />
    <glyph glyph-name="edieresis" unicode="&#xeb;" 
d="M409 160q-5 -35 -16.5 -65t-33 -52.5t-54.5 -35.5t-79 -13q-62 0 -101.5 22.5t-61.5 60t-30 85t-8 97.5q0 49 8 96t30 84t61 60t101 23q58 0 94.5 -23.5t57 -63.5t27 -94.5t3.5 -115.5h-313q5 -84 35.5 -128t95.5 -44q54 0 80.5 29.5t34.5 77.5h69zM340 285
q0 40 -6.5 72.5t-21 55.5t-37 36t-54.5 13q-34 0 -57 -13t-38 -36t-22.5 -55.5t-9.5 -72.5h246zM336 612q0 -47 -47 -47q-48 0 -48 47q0 28 11.5 38.5t36.5 10.5t36 -10.5t11 -38.5zM204 612q0 -47 -48 -47q-49 0 -49 47q0 28 11.5 38.5t37.5 10.5q25 0 36.5 -10.5
t11.5 -38.5z" />
    <glyph glyph-name="igrave" unicode="&#xec;" horiz-adv-x="152" 
d="M15 605v64l134 -40v-64zM45 0v516h66v-516h-66z" />
    <glyph glyph-name="iacute" unicode="&#xed;" horiz-adv-x="154" 
d="M7 565v64l140 41v-64zM45 0v516h66v-516h-66z" />
    <glyph glyph-name="icircumflex" unicode="&#xee;" horiz-adv-x="155" 
d="M77 602l-80 -45v67l80 45l78 -45v-64zM45 0v516h66v-516h-66z" />
    <glyph glyph-name="idieresis" unicode="&#xef;" horiz-adv-x="154" 
d="M193 612q0 -47 -47 -47q-48 0 -48 47q0 28 11.5 38.5t36.5 10.5t36 -10.5t11 -38.5zM61 612q0 -47 -48 -47q-49 0 -49 47q0 28 11.5 38.5t37.5 10.5q25 0 36.5 -10.5t11.5 -38.5zM45 0v516h66v-516h-66z" />
    <glyph glyph-name="eth" unicode="&#xf0;" horiz-adv-x="435" 
d="M293 707q7 -10 13.5 -19.5t12.5 -20.5l94 32v-49l-72 -24q38 -77 54 -166.5t16 -202.5q0 -49 -8 -96.5t-30 -84.5t-59.5 -59.5t-96.5 -22.5t-96 23t-58.5 60t-29.5 84t-8 96q0 48 8 95.5t28.5 85t55.5 61t89 23.5q47 0 76.5 -19t46.5 -50q-17 83 -52 151l-93 -31v49
l70 23q-19 31 -44 62h83zM344 257q0 42 -6 78.5t-20.5 64t-39 43t-61.5 15.5q-39 0 -63 -15.5t-38 -42.5t-19 -64t-5 -79t6 -79t20 -64t38.5 -42.5t60.5 -15.5q37 0 61.5 15t39 42t20.5 64t6 80z" />
    <glyph glyph-name="ntilde" unicode="&#xf1;" horiz-adv-x="447" 
d="M342 0v285q0 43 -4.5 75.5t-16.5 54t-34 32.5t-57 11q-36 0 -59 -10.5t-36.5 -32.5t-19 -54.5t-5.5 -75.5v-285h-66v516h36l15 -82q19 38 55 63t95 25q52 0 84.5 -18t50 -50.5t23.5 -77t6 -97.5v-279h-67zM424 677q0 -26 -3.5 -49t-14.5 -40t-31.5 -26.5t-54.5 -9.5
q-26 0 -53.5 14.5t-52 31.5t-45.5 31.5t-34 14.5q-27 0 -33.5 -23.5t-7.5 -61.5h-63q-2 24 0.5 50t13 48.5t32 37t59.5 14.5q25 0 50.5 -14.5t48.5 -31.5t44 -31.5t38 -14.5q25 0 34 15.5t9 51.5v20h62q2 -14 2 -19.5v-7.5z" />
    <glyph glyph-name="ograve" unicode="&#xf2;" horiz-adv-x="435" 
d="M411 257q0 -49 -8 -96.5t-30 -84.5t-59.5 -59.5t-96.5 -22.5t-96 23t-58.5 60t-29.5 84t-8 96q0 48 8 95.5t29.5 85t59 61t95.5 23.5q59 0 96.5 -23.5t59.5 -61t30 -85t8 -95.5zM344 257q0 42 -6 78.5t-20.5 64t-39 43t-61.5 15.5q-36 0 -60.5 -15.5t-38.5 -42.5t-20 -64
t-6 -79t6 -79t20 -64t38.5 -42.5t60.5 -15.5q37 0 61.5 15t39 42t20.5 64t6 80zM42 627v60l352 -82v-64z" />
    <glyph glyph-name="oacute" unicode="&#xf3;" horiz-adv-x="435" 
d="M411 257q0 -49 -8 -96.5t-30 -84.5t-59.5 -59.5t-96.5 -22.5t-96 23t-58.5 60t-29.5 84t-8 96q0 48 8 95.5t29.5 85t59 61t95.5 23.5q59 0 96.5 -23.5t59.5 -61t30 -85t8 -95.5zM344 257q0 42 -6 78.5t-20.5 64t-39 43t-61.5 15.5q-36 0 -60.5 -15.5t-38.5 -42.5t-20 -64
t-6 -79t6 -79t20 -64t38.5 -42.5t60.5 -15.5q37 0 61.5 15t39 42t20.5 64t6 80zM38 545v64l351 87v-64z" />
    <glyph glyph-name="ocircumflex" unicode="&#xf4;" horiz-adv-x="435" 
d="M411 257q0 -49 -8 -96.5t-30 -84.5t-59.5 -59.5t-96.5 -22.5t-96 23t-58.5 60t-29.5 84t-8 96q0 48 8 95.5t29.5 85t59 61t95.5 23.5q59 0 96.5 -23.5t59.5 -61t30 -85t8 -95.5zM344 257q0 42 -6 78.5t-20.5 64t-39 43t-61.5 15.5q-36 0 -60.5 -15.5t-38.5 -42.5t-20 -64
t-6 -79t6 -79t20 -64t38.5 -42.5t60.5 -15.5q37 0 61.5 15t39 42t20.5 64t6 80zM216 621l-175 -77v65l175 78l177 -78v-65z" />
    <glyph glyph-name="otilde" unicode="&#xf5;" horiz-adv-x="435" 
d="M411 257q0 -49 -8 -96.5t-30 -84.5t-59.5 -59.5t-96.5 -22.5t-96 23t-58.5 60t-29.5 84t-8 96q0 48 8 95.5t29.5 85t59 61t95.5 23.5q59 0 96.5 -23.5t59.5 -61t30 -85t8 -95.5zM344 257q0 42 -6 78.5t-20.5 64t-39 43t-61.5 15.5q-36 0 -60.5 -15.5t-38.5 -42.5t-20 -64
t-6 -79t6 -79t20 -64t38.5 -42.5t60.5 -15.5q37 0 61.5 15t39 42t20.5 64t6 80zM416 677q0 -26 -3.5 -49t-14.5 -40t-31.5 -26.5t-54.5 -9.5q-26 0 -53.5 14.5t-52 31.5t-45.5 31.5t-34 14.5q-27 0 -33.5 -23.5t-7.5 -61.5h-63q-2 24 0.5 50t13 48.5t32 37t59.5 14.5
q25 0 50.5 -14.5t48.5 -31.5t44 -31.5t38 -14.5q25 0 34 15.5t9 51.5v20h62q2 -14 2 -19.5v-7.5z" />
    <glyph glyph-name="odieresis" unicode="&#xf6;" horiz-adv-x="435" 
d="M411 257q0 -49 -8 -96.5t-30 -84.5t-59.5 -59.5t-96.5 -22.5t-96 23t-58.5 60t-29.5 84t-8 96q0 48 8 95.5t29.5 85t59 61t95.5 23.5q59 0 96.5 -23.5t59.5 -61t30 -85t8 -95.5zM344 257q0 42 -6 78.5t-20.5 64t-39 43t-61.5 15.5q-36 0 -60.5 -15.5t-38.5 -42.5t-20 -64
t-6 -79t6 -79t20 -64t38.5 -42.5t60.5 -15.5q37 0 61.5 15t39 42t20.5 64t6 80zM334 612q0 -47 -47 -47q-48 0 -48 47q0 28 11.5 38.5t36.5 10.5t36 -10.5t11 -38.5zM202 612q0 -47 -48 -47q-49 0 -49 47q0 28 11.5 38.5t37.5 10.5q25 0 36.5 -10.5t11.5 -38.5z" />
    <glyph glyph-name="divide" unicode="&#xf7;" horiz-adv-x="497" 
d="M295 474q0 -26 -11 -37.5t-37 -11.5q-24 0 -36 11.5t-12 37.5t12 36.5t36 10.5q26 0 37 -10.5t11 -36.5zM36 226v63h425v-63h-425zM295 42q0 -25 -11 -36t-37 -11q-48 0 -48 47q0 28 12 38.5t36 10.5q26 0 37 -10.5t11 -38.5z" />
    <glyph glyph-name="oslash" unicode="&#xf8;" horiz-adv-x="435" 
d="M411 257q0 -49 -8 -96.5t-30 -84.5t-59.5 -59.5t-96.5 -22.5q-9 0 -18.5 0.5t-17.5 1.5l-16 -62h-63l22 81q-30 16 -49 42t-30 58.5t-15.5 68.5t-4.5 73q0 48 8 95.5t29.5 85t59 61t95.5 23.5q23 0 38 -4l17 64h63l-23 -83q29 -16 48 -42.5t30.5 -58.5t16 -68.5
t4.5 -72.5zM92 257q0 -57 10.5 -103t38.5 -71l98 374q-5 1 -10.5 1h-11.5q-36 0 -60.5 -15.5t-38.5 -42.5t-20 -64t-6 -79zM344 257q0 56 -11 102t-38 72l-98 -373q5 -2 10 -2h10q37 0 61.5 15t39 42t20.5 64t6 80z" />
    <glyph glyph-name="ugrave" unicode="&#xf9;" horiz-adv-x="446" 
d="M362 0l-10 85q-20 -45 -54.5 -68t-93.5 -23q-53 0 -85 18t-49.5 50t-23.5 77t-6 98v279h65v-285q0 -43 4.5 -75.5t17 -54t34.5 -32.5t58 -11t58.5 11t36 33t18.5 55.5t5 77.5v281h67v-516h-42zM44 627v60l352 -82v-64z" />
    <glyph glyph-name="uacute" unicode="&#xfa;" horiz-adv-x="446" 
d="M362 0l-10 85q-20 -45 -54.5 -68t-93.5 -23q-53 0 -85 18t-49.5 50t-23.5 77t-6 98v279h65v-285q0 -43 4.5 -75.5t17 -54t34.5 -32.5t58 -11t58.5 11t36 33t18.5 55.5t5 77.5v281h67v-516h-42zM45 545v64l351 87v-64z" />
    <glyph glyph-name="ucircumflex" unicode="&#xfb;" horiz-adv-x="446" 
d="M362 0l-10 85q-20 -45 -54.5 -68t-93.5 -23q-53 0 -85 18t-49.5 50t-23.5 77t-6 98v279h65v-285q0 -43 4.5 -75.5t17 -54t34.5 -32.5t58 -11t58.5 11t36 33t18.5 55.5t5 77.5v281h67v-516h-42zM221 621l-175 -77v65l175 78l177 -78v-65z" />
    <glyph glyph-name="udieresis" unicode="&#xfc;" horiz-adv-x="446" 
d="M362 0l-10 85q-20 -45 -54.5 -68t-93.5 -23q-53 0 -85 18t-49.5 50t-23.5 77t-6 98v279h65v-285q0 -43 4.5 -75.5t17 -54t34.5 -32.5t58 -11t58.5 11t36 33t18.5 55.5t5 77.5v281h67v-516h-42zM332 612q0 -47 -47 -47q-48 0 -48 47q0 28 11.5 38.5t36.5 10.5t36 -10.5
t11 -38.5zM200 612q0 -47 -48 -47q-49 0 -49 47q0 28 11.5 38.5t37.5 10.5q25 0 36.5 -10.5t11.5 -38.5z" />
    <glyph glyph-name="yacute" unicode="&#xfd;" horiz-adv-x="451" 
d="M409 -1q0 -35 -6.5 -71.5t-26 -66t-56 -48t-96.5 -18.5q-53 0 -88.5 12.5t-57 35t-30.5 54t-9 69.5h66q0 -56 25 -83.5t94 -27.5q37 0 60 10.5t36 29.5t17.5 44t4.5 55v77q-21 -42 -52 -59.5t-81 -17.5q-53 0 -85.5 17.5t-50 49t-23.5 76t-6 98.5v281h66v-287
q0 -43 4.5 -75t17 -53.5t34.5 -32t58 -10.5t58.5 10.5t36 32.5t18.5 54.5t5 76.5v284h67v-517zM48 545v64l351 87v-64z" />
    <glyph glyph-name="thorn" unicode="&#xfe;" horiz-adv-x="456" 
d="M110 434q23 45 55.5 66.5t86.5 21.5t88 -21.5t53.5 -58.5t26.5 -85t7 -101t-7.5 -100.5t-27 -83.5t-53.5 -57t-88 -21t-86.5 20t-54.5 65v-279h-66v872h66v-238zM360 256q0 47 -5.5 84.5t-19.5 63.5t-38 40t-62 14q-39 0 -63.5 -14t-38.5 -40t-19 -63.5t-5 -84.5
q0 -45 5 -81.5t18.5 -62.5t38 -40t63.5 -14q38 0 62.5 14t38.5 39.5t19.5 62t5.5 82.5z" />
    <glyph glyph-name="ydieresis" unicode="&#xff;" horiz-adv-x="451" 
d="M409 -1q0 -35 -6.5 -71.5t-26 -66t-56 -48t-96.5 -18.5q-53 0 -88.5 12.5t-57 35t-30.5 54t-9 69.5h66q0 -56 25 -83.5t94 -27.5q37 0 60 10.5t36 29.5t17.5 44t4.5 55v77q-21 -42 -52 -59.5t-81 -17.5q-53 0 -85.5 17.5t-50 49t-23.5 76t-6 98.5v281h66v-287
q0 -43 4.5 -75t17 -53.5t34.5 -32t58 -10.5t58.5 10.5t36 32.5t18.5 54.5t5 76.5v284h67v-517zM338 612q0 -47 -47 -47q-48 0 -48 47q0 28 11.5 38.5t36.5 10.5t36 -10.5t11 -38.5zM206 612q0 -47 -48 -47q-49 0 -49 47q0 28 11.5 38.5t37.5 10.5q25 0 36.5 -10.5
t11.5 -38.5z" />
    <glyph glyph-name="Amacron" unicode="&#x100;" horiz-adv-x="494" 
d="M421 0l-41 136h-263l-42 -136h-71l201 640h87l199 -640h-70zM249 565l-117 -371h232zM80 700v64h336v-64h-336z" />
    <glyph glyph-name="amacron" unicode="&#x101;" horiz-adv-x="439" 
d="M360 0l-11 96q-56 -102 -163 -102q-34 0 -62.5 9.5t-49.5 28.5t-32.5 47.5t-11.5 66.5q0 68 39 101.5t126 47.5l140 22q-1 37 -7.5 64.5t-20 45.5t-36 26.5t-55.5 8.5q-60 0 -85.5 -32t-25.5 -96h-65q0 40 8 74.5t28.5 60t54 39.5t84.5 14q62 0 98.5 -17t56 -47.5
t25.5 -72.5t6 -91v-294h-41zM335 259l-129 -23q-58 -11 -83.5 -29t-25.5 -60q0 -49 28.5 -71t73.5 -22q27 0 51.5 10.5t43.5 31.5t30 53t11 76v34zM50 576v64h336v-64h-336z" />
    <glyph glyph-name="Abreve" unicode="&#x102;" horiz-adv-x="494" 
d="M421 0l-41 136h-263l-42 -136h-71l201 640h87l199 -640h-70zM249 565l-117 -371h232zM402 834q-1 -44 -8.5 -72.5t-22 -45t-35.5 -22.5t-49 -6h-83q-55 0 -80 32.5t-27 113.5h60q1 -29 6 -46t12.5 -25.5t18 -10.5t22.5 -2h63q32 0 46 16.5t16 67.5h61z" />
    <glyph glyph-name="abreve" unicode="&#x103;" horiz-adv-x="439" 
d="M360 0l-11 96q-56 -102 -163 -102q-34 0 -62.5 9.5t-49.5 28.5t-32.5 47.5t-11.5 66.5q0 68 39 101.5t126 47.5l140 22q-1 37 -7.5 64.5t-20 45.5t-36 26.5t-55.5 8.5q-60 0 -85.5 -32t-25.5 -96h-65q0 40 8 74.5t28.5 60t54 39.5t84.5 14q62 0 98.5 -17t56 -47.5
t25.5 -72.5t6 -91v-294h-41zM335 259l-129 -23q-58 -11 -83.5 -29t-25.5 -60q0 -49 28.5 -71t73.5 -22q27 0 51.5 10.5t43.5 31.5t30 53t11 76v34zM372 710q-1 -44 -8.5 -72.5t-22 -45t-35.5 -22.5t-49 -6h-83q-55 0 -80 32.5t-27 113.5h60q1 -29 6 -46t12.5 -25.5t18 -10.5
t22.5 -2h63q32 0 46 16.5t16 67.5h61z" />
    <glyph glyph-name="Aogonek" unicode="&#x104;" horiz-adv-x="494" 
d="M460 -184q-45 0 -72 18t-27 52q0 25 13 53t47 61l-41 136h-263l-42 -136h-71l201 640h87l199 -640h1q-11 -11 -22.5 -23.5t-20.5 -25t-14.5 -25t-5.5 -22.5q0 -29 35 -29h30v-59h-34zM249 565l-117 -371h232z" />
    <glyph glyph-name="aogonek" unicode="&#x105;" horiz-adv-x="439" 
d="M367 -184q-45 0 -71.5 18t-26.5 52q0 23 15.5 52.5t49.5 61.5l23 22l-8 74q-56 -102 -163 -102q-34 0 -62.5 9.5t-49.5 28.5t-32.5 47.5t-11.5 66.5q0 68 39 101.5t126 47.5l140 22q-1 37 -7.5 64.5t-20 45.5t-36 26.5t-55.5 8.5q-60 0 -85.5 -32t-25.5 -96h-65
q0 40 8 74.5t28.5 60t54 39.5t84.5 14q62 0 98.5 -17t56 -47.5t25.5 -72.5t6 -91v-294q-11 -11 -22.5 -23.5t-21 -25t-15.5 -25t-6 -22.5q0 -29 35 -29h30v-59h-34zM335 259l-129 -23q-58 -11 -83.5 -29t-25.5 -60q0 -49 28.5 -71t73.5 -22q27 0 51.5 10.5t43.5 31.5t30 53
t11 76v34z" />
    <glyph glyph-name="Cacute" unicode="&#x106;" horiz-adv-x="526" 
d="M424 392q0 86 -39.5 137.5t-115.5 51.5q-48 0 -79.5 -19.5t-49.5 -54.5t-25.5 -83t-7.5 -104t7.5 -104t25.5 -83t49.5 -54.5t79.5 -19.5q77 0 116.5 50.5t39.5 139.5h69q0 -54 -12.5 -100.5t-40 -81t-70 -54t-102.5 -19.5q-71 0 -115.5 27t-70 72t-35 104t-9.5 123
t9.5 123t35 104t70.5 72t115 27q59 0 101.5 -20t70 -54.5t40.5 -81t13 -98.5h-70zM97 669v64l351 87v-64z" />
    <glyph glyph-name="cacute" unicode="&#x107;" 
d="M332 310q0 76 -29.5 112t-83.5 36q-37 0 -61.5 -15t-39.5 -42t-21 -64t-6 -80t6 -79.5t21 -63.5t39.5 -42t62.5 -15q54 0 83 34t29 109h67q0 -97 -42.5 -151.5t-135.5 -54.5q-60 0 -98.5 22.5t-60 59.5t-29.5 84t-8 96t8 97t30 85.5t59.5 60.5t97.5 23q91 0 135 -57.5
t44 -154.5h-67zM37 545v64l351 87v-64z" />
    <glyph glyph-name="Ccircumflex" unicode="&#x108;" horiz-adv-x="526" 
d="M424 392q0 86 -39.5 137.5t-115.5 51.5q-48 0 -79.5 -19.5t-49.5 -54.5t-25.5 -83t-7.5 -104t7.5 -104t25.5 -83t49.5 -54.5t79.5 -19.5q77 0 116.5 50.5t39.5 139.5h69q0 -54 -12.5 -100.5t-40 -81t-70 -54t-102.5 -19.5q-71 0 -115.5 27t-70 72t-35 104t-9.5 123
t9.5 123t35 104t70.5 72t115 27q59 0 101.5 -20t70 -54.5t40.5 -81t13 -98.5h-70zM271 745l-175 -77v65l175 78l177 -78v-65z" />
    <glyph glyph-name="ccircumflex" unicode="&#x109;" 
d="M332 310q0 76 -29.5 112t-83.5 36q-37 0 -61.5 -15t-39.5 -42t-21 -64t-6 -80t6 -79.5t21 -63.5t39.5 -42t62.5 -15q54 0 83 34t29 109h67q0 -97 -42.5 -151.5t-135.5 -54.5q-60 0 -98.5 22.5t-60 59.5t-29.5 84t-8 96t8 97t30 85.5t59.5 60.5t97.5 23q91 0 135 -57.5
t44 -154.5h-67zM216 621l-175 -77v65l175 78l177 -78v-65z" />
    <glyph glyph-name="Cdotaccent" unicode="&#x10a;" horiz-adv-x="526" 
d="M424 392q0 86 -39.5 137.5t-115.5 51.5q-48 0 -79.5 -19.5t-49.5 -54.5t-25.5 -83t-7.5 -104t7.5 -104t25.5 -83t49.5 -54.5t79.5 -19.5q77 0 116.5 50.5t39.5 139.5h69q0 -54 -12.5 -100.5t-40 -81t-70 -54t-102.5 -19.5q-71 0 -115.5 27t-70 72t-35 104t-9.5 123
t9.5 123t35 104t70.5 72t115 27q59 0 101.5 -20t70 -54.5t40.5 -81t13 -98.5h-70zM328 735q0 -28 -9.5 -39.5t-45.5 -11.5q-37 0 -46 11.5t-9 39.5q0 29 9 41.5t46 12.5t46 -12.5t9 -41.5z" />
    <glyph glyph-name="cdotaccent" unicode="&#x10b;" 
d="M332 310q0 76 -29.5 112t-83.5 36q-37 0 -61.5 -15t-39.5 -42t-21 -64t-6 -80t6 -79.5t21 -63.5t39.5 -42t62.5 -15q54 0 83 34t29 109h67q0 -97 -42.5 -151.5t-135.5 -54.5q-60 0 -98.5 22.5t-60 59.5t-29.5 84t-8 96t8 97t30 85.5t59.5 60.5t97.5 23q91 0 135 -57.5
t44 -154.5h-67zM276 611q0 -28 -9.5 -39.5t-45.5 -11.5q-37 0 -46 11.5t-9 39.5q0 29 9 41.5t46 12.5t46 -12.5t9 -41.5z" />
    <glyph glyph-name="Ccaron" unicode="&#x10c;" horiz-adv-x="526" 
d="M424 392q0 86 -39.5 137.5t-115.5 51.5q-48 0 -79.5 -19.5t-49.5 -54.5t-25.5 -83t-7.5 -104t7.5 -104t25.5 -83t49.5 -54.5t79.5 -19.5q77 0 116.5 50.5t39.5 139.5h69q0 -54 -12.5 -100.5t-40 -81t-70 -54t-102.5 -19.5q-71 0 -115.5 27t-70 72t-35 104t-9.5 123
t9.5 123t35 104t70.5 72t115 27q59 0 101.5 -20t70 -54.5t40.5 -81t13 -98.5h-70zM272 666l-176 79v65l176 -77l177 77v-65z" />
    <glyph glyph-name="ccaron" unicode="&#x10d;" 
d="M332 310q0 76 -29.5 112t-83.5 36q-37 0 -61.5 -15t-39.5 -42t-21 -64t-6 -80t6 -79.5t21 -63.5t39.5 -42t62.5 -15q54 0 83 34t29 109h67q0 -97 -42.5 -151.5t-135.5 -54.5q-60 0 -98.5 22.5t-60 59.5t-29.5 84t-8 96t8 97t30 85.5t59.5 60.5t97.5 23q91 0 135 -57.5
t44 -154.5h-67zM218 542l-176 79v65l176 -77l177 77v-65z" />
    <glyph glyph-name="Dcaron" unicode="&#x10e;" horiz-adv-x="504" 
d="M54 640h190q113 0 167.5 -82.5t54.5 -233.5q0 -75 -14.5 -135t-43.5 -102t-72 -64.5t-101 -22.5h-181v640zM400 324q0 70 -11 118.5t-32.5 78t-53.5 42.5t-73 13h-108v-512h103q42 0 74.5 14.5t55 45.5t34 80.5t11.5 119.5zM242 666l-176 79v65l176 -77l177 77v-65z" />
    <glyph glyph-name="dcaron" unicode="&#x10f;" horiz-adv-x="563" 
d="M409 0h-43l-10 87q-22 -45 -57 -69t-98 -24q-53 0 -87 21.5t-54 58.5t-27.5 84.5t-7.5 100.5q0 52 7 99.5t26.5 84t53.5 58t88 21.5t86.5 -21t55.5 -65v271h67v-707zM344 259q0 44 -5 80.5t-19 63t-39 41t-64 14.5q-38 0 -62 -14t-38 -40t-19.5 -62.5t-5.5 -82.5
q0 -47 5.5 -84.5t19.5 -63.5t38 -40t61 -14q39 0 63.5 13.5t39 39.5t20 63.5t5.5 85.5zM483 416l16 128h-8q-20 0 -31 14t-11 37q0 28 13.5 39.5t38.5 11.5q26 0 39 -11.5t13 -39.5q0 -4 -1 -12t-3.5 -27t-7.5 -52.5t-12 -87.5h-46z" />
    <glyph glyph-name="Dcroat" unicode="&#x110;" horiz-adv-x="517" 
d="M71 295h-65v62h65v283h189q114 0 167.5 -82.5t53.5 -233.5q0 -75 -14 -135t-42.5 -102t-71.5 -64.5t-101 -22.5h-181v295zM415 324q0 70 -11 118.5t-32 78t-52.5 42.5t-72.5 13h-108v-219h115v-62h-115v-231h103q41 0 73.5 14.5t54.5 45.5t33.5 80.5t11.5 119.5z" />
    <glyph glyph-name="dcroat" unicode="&#x111;" horiz-adv-x="451" 
d="M441 591h-32v-591h-43l-10 87q-22 -45 -57 -69t-98 -24q-53 0 -87 21.5t-54 58.5t-27.5 84.5t-7.5 100.5q0 52 7 99.5t26.5 84t53.5 58t88 21.5t86.5 -21t55.5 -65v155h-160v51h160v65h67v-65h32v-51zM344 259q0 44 -5 80.5t-19 63t-39 41t-64 14.5q-38 0 -62 -14
t-38 -40t-19.5 -62.5t-5.5 -82.5q0 -47 5.5 -84.5t19.5 -63.5t38 -40t61 -14q39 0 63.5 13.5t39 39.5t20 63.5t5.5 85.5z" />
    <glyph glyph-name="Emacron" unicode="&#x112;" horiz-adv-x="429" 
d="M54 0v640h345v-65h-277v-216h253v-64h-253v-230h277v-65h-345zM59 700v64h336v-64h-336z" />
    <glyph glyph-name="emacron" unicode="&#x113;" 
d="M409 160q-5 -35 -16.5 -65t-33 -52.5t-54.5 -35.5t-79 -13q-62 0 -101.5 22.5t-61.5 60t-30 85t-8 97.5q0 49 8 96t30 84t61 60t101 23q58 0 94.5 -23.5t57 -63.5t27 -94.5t3.5 -115.5h-313q5 -84 35.5 -128t95.5 -44q54 0 80.5 29.5t34.5 77.5h69zM340 285
q0 40 -6.5 72.5t-21 55.5t-37 36t-54.5 13q-34 0 -57 -13t-38 -36t-22.5 -55.5t-9.5 -72.5h246zM52 576v64h336v-64h-336z" />
    <glyph glyph-name="Ebreve" unicode="&#x114;" horiz-adv-x="429" 
d="M54 0v640h345v-65h-277v-216h253v-64h-253v-230h277v-65h-345zM379 834q-1 -44 -8.5 -72.5t-22 -45t-35.5 -22.5t-49 -6h-83q-55 0 -80 32.5t-27 113.5h60q1 -29 6 -46t12.5 -25.5t18 -10.5t22.5 -2h63q32 0 46 16.5t16 67.5h61z" />
    <glyph glyph-name="ebreve" unicode="&#x115;" 
d="M409 160q-5 -35 -16.5 -65t-33 -52.5t-54.5 -35.5t-79 -13q-62 0 -101.5 22.5t-61.5 60t-30 85t-8 97.5q0 49 8 96t30 84t61 60t101 23q58 0 94.5 -23.5t57 -63.5t27 -94.5t3.5 -115.5h-313q5 -84 35.5 -128t95.5 -44q54 0 80.5 29.5t34.5 77.5h69zM340 285
q0 40 -6.5 72.5t-21 55.5t-37 36t-54.5 13q-34 0 -57 -13t-38 -36t-22.5 -55.5t-9.5 -72.5h246zM377 710q-1 -44 -8.5 -72.5t-22 -45t-35.5 -22.5t-49 -6h-83q-55 0 -80 32.5t-27 113.5h60q1 -29 6 -46t12.5 -25.5t18 -10.5t22.5 -2h63q32 0 46 16.5t16 67.5h61z" />
    <glyph glyph-name="Edotaccent" unicode="&#x116;" horiz-adv-x="429" 
d="M54 0v640h345v-65h-277v-216h253v-64h-253v-230h277v-65h-345zM278 735q0 -28 -9.5 -39.5t-45.5 -11.5q-37 0 -46 11.5t-9 39.5q0 29 9 41.5t46 12.5t46 -12.5t9 -41.5z" />
    <glyph glyph-name="edotaccent" unicode="&#x117;" 
d="M409 160q-5 -35 -16.5 -65t-33 -52.5t-54.5 -35.5t-79 -13q-62 0 -101.5 22.5t-61.5 60t-30 85t-8 97.5q0 49 8 96t30 84t61 60t101 23q58 0 94.5 -23.5t57 -63.5t27 -94.5t3.5 -115.5h-313q5 -84 35.5 -128t95.5 -44q54 0 80.5 29.5t34.5 77.5h69zM340 285
q0 40 -6.5 72.5t-21 55.5t-37 36t-54.5 13q-34 0 -57 -13t-38 -36t-22.5 -55.5t-9.5 -72.5h246zM276 611q0 -28 -9.5 -39.5t-45.5 -11.5q-37 0 -46 11.5t-9 39.5q0 29 9 41.5t46 12.5t46 -12.5t9 -41.5z" />
    <glyph glyph-name="Eogonek" unicode="&#x118;" horiz-adv-x="429" 
d="M365 -184q-45 0 -72.5 18t-27.5 52q0 25 13.5 53t47.5 61h-272v640h345v-65h-277v-216h253v-64h-253v-230h277v-65q-11 -11 -22.5 -23.5t-21 -25t-15.5 -25t-6 -22.5q0 -29 35 -29h30v-59h-34z" />
    <glyph glyph-name="eogonek" unicode="&#x119;" 
d="M357 41q-20 -20 -36 -43.5t-16 -41.5q0 -13 8 -21t27 -8h30v-58h-34q-45 0 -72 18t-27 52q0 27 23 56q-7 0 -17 -0.5t-17 -0.5q-62 0 -101.5 22.5t-61.5 60t-30 85t-8 97.5q0 49 8 96t30 84t61 60t101 23q53 0 88 -20.5t56 -56t29.5 -83.5t8.5 -103v-34h-313
q5 -84 35.5 -128t95.5 -44q54 0 80.5 29.5t34.5 77.5h69q-5 -36 -17 -66t-35 -53zM340 285q0 40 -6.5 72.5t-21 55.5t-37 36t-54.5 13q-34 0 -57 -13t-38 -36t-22.5 -55.5t-9.5 -72.5h246z" />
    <glyph glyph-name="Ecaron" unicode="&#x11a;" horiz-adv-x="429" 
d="M54 0v640h345v-65h-277v-216h253v-64h-253v-230h277v-65h-345zM227 666l-176 79v65l176 -77l177 77v-65z" />
    <glyph glyph-name="ecaron" unicode="&#x11b;" 
d="M409 160q-5 -35 -16.5 -65t-33 -52.5t-54.5 -35.5t-79 -13q-62 0 -101.5 22.5t-61.5 60t-30 85t-8 97.5q0 49 8 96t30 84t61 60t101 23q58 0 94.5 -23.5t57 -63.5t27 -94.5t3.5 -115.5h-313q5 -84 35.5 -128t95.5 -44q54 0 80.5 29.5t34.5 77.5h69zM340 285
q0 40 -6.5 72.5t-21 55.5t-37 36t-54.5 13q-34 0 -57 -13t-38 -36t-22.5 -55.5t-9.5 -72.5h246zM223 542l-176 79v65l176 -77l177 77v-65z" />
    <glyph glyph-name="Gcircumflex" unicode="&#x11c;" horiz-adv-x="540" 
d="M246 350h248v-350h-44l-13 117q-27 -62 -66.5 -92.5t-105.5 -30.5t-109.5 27t-69.5 72t-36.5 104t-10.5 123t9.5 123t35 104t70.5 72t115 27q59 0 101 -18t69 -49t39.5 -72t12.5 -86h-69q-2 74 -38.5 117t-114.5 43q-48 0 -79.5 -19.5t-49.5 -54.5t-25.5 -83t-7.5 -104
t8 -104t27 -83t50 -54.5t77 -19.5q80 0 117.5 58.5t39.5 166.5h-180v66zM271 745l-175 -77v65l175 78l177 -78v-65z" />
    <glyph glyph-name="gcircumflex" unicode="&#x11d;" horiz-adv-x="422" 
d="M412 -68q0 -26 -8.5 -52t-30.5 -47.5t-60 -35t-96 -13.5q-57 0 -95 12.5t-60.5 35.5t-32 56.5t-10.5 75.5h66q1 -31 8 -53.5t22 -37t39.5 -21.5t62.5 -7q39 0 63.5 7t38.5 18.5t19.5 26.5t5.5 32q0 32 -23.5 48.5t-59.5 25.5t-77 15.5t-77 17t-59.5 29.5t-23.5 55
q0 23 14.5 40.5t51.5 28.5q-17 12 -28.5 29t-18.5 35.5t-9.5 38.5t-2.5 38q0 37 7.5 71t28.5 59.5t58 40.5t96 15h178l-2 -37l-72 -15q38 -26 51.5 -59t13.5 -76q0 -39 -7 -72.5t-27 -58.5t-55 -39.5t-91 -14.5q-23 0 -43 3.5t-37 8.5q-25 -4 -32 -12.5t-7 -19.5
q0 -20 24 -29.5t59.5 -16t77 -13t77 -21.5t59.5 -41t24 -71zM320 331q0 28 -4.5 50.5t-16.5 38t-33.5 23.5t-55.5 8q-32 0 -53.5 -8t-34 -23.5t-17.5 -38t-5 -50.5q0 -30 4.5 -54t17 -40.5t34 -25.5t55.5 -9q64 0 86.5 34t22.5 95zM215 621l-175 -77v65l175 78l177 -78v-65z
" />
    <glyph glyph-name="Gbreve" unicode="&#x11e;" horiz-adv-x="540" 
d="M246 350h248v-350h-44l-13 117q-27 -62 -66.5 -92.5t-105.5 -30.5t-109.5 27t-69.5 72t-36.5 104t-10.5 123t9.5 123t35 104t70.5 72t115 27q59 0 101 -18t69 -49t39.5 -72t12.5 -86h-69q-2 74 -38.5 117t-114.5 43q-48 0 -79.5 -19.5t-49.5 -54.5t-25.5 -83t-7.5 -104
t8 -104t27 -83t50 -54.5t77 -19.5q80 0 117.5 58.5t39.5 166.5h-180v66zM421 834q-1 -44 -8.5 -72.5t-22 -45t-35.5 -22.5t-49 -6h-83q-55 0 -80 32.5t-27 113.5h60q1 -29 6 -46t12.5 -25.5t18 -10.5t22.5 -2h63q32 0 46 16.5t16 67.5h61z" />
    <glyph glyph-name="gbreve" unicode="&#x11f;" horiz-adv-x="422" 
d="M412 -68q0 -26 -8.5 -52t-30.5 -47.5t-60 -35t-96 -13.5q-57 0 -95 12.5t-60.5 35.5t-32 56.5t-10.5 75.5h66q1 -31 8 -53.5t22 -37t39.5 -21.5t62.5 -7q39 0 63.5 7t38.5 18.5t19.5 26.5t5.5 32q0 32 -23.5 48.5t-59.5 25.5t-77 15.5t-77 17t-59.5 29.5t-23.5 55
q0 23 14.5 40.5t51.5 28.5q-17 12 -28.5 29t-18.5 35.5t-9.5 38.5t-2.5 38q0 37 7.5 71t28.5 59.5t58 40.5t96 15h178l-2 -37l-72 -15q38 -26 51.5 -59t13.5 -76q0 -39 -7 -72.5t-27 -58.5t-55 -39.5t-91 -14.5q-23 0 -43 3.5t-37 8.5q-25 -4 -32 -12.5t-7 -19.5
q0 -20 24 -29.5t59.5 -16t77 -13t77 -21.5t59.5 -41t24 -71zM320 331q0 28 -4.5 50.5t-16.5 38t-33.5 23.5t-55.5 8q-32 0 -53.5 -8t-34 -23.5t-17.5 -38t-5 -50.5q0 -30 4.5 -54t17 -40.5t34 -25.5t55.5 -9q64 0 86.5 34t22.5 95zM366 710q-1 -44 -8.5 -72.5t-22 -45
t-35.5 -22.5t-49 -6h-83q-55 0 -80 32.5t-27 113.5h60q1 -29 6 -46t12.5 -25.5t18 -10.5t22.5 -2h63q32 0 46 16.5t16 67.5h61z" />
    <glyph glyph-name="Gdotaccent" unicode="&#x120;" horiz-adv-x="540" 
d="M246 350h248v-350h-44l-13 117q-27 -62 -66.5 -92.5t-105.5 -30.5t-109.5 27t-69.5 72t-36.5 104t-10.5 123t9.5 123t35 104t70.5 72t115 27q59 0 101 -18t69 -49t39.5 -72t12.5 -86h-69q-2 74 -38.5 117t-114.5 43q-48 0 -79.5 -19.5t-49.5 -54.5t-25.5 -83t-7.5 -104
t8 -104t27 -83t50 -54.5t77 -19.5q80 0 117.5 58.5t39.5 166.5h-180v66zM327 735q0 -28 -9.5 -39.5t-45.5 -11.5q-37 0 -46 11.5t-9 39.5q0 29 9 41.5t46 12.5t46 -12.5t9 -41.5z" />
    <glyph glyph-name="gdotaccent" unicode="&#x121;" horiz-adv-x="422" 
d="M412 -68q0 -26 -8.5 -52t-30.5 -47.5t-60 -35t-96 -13.5q-57 0 -95 12.5t-60.5 35.5t-32 56.5t-10.5 75.5h66q1 -31 8 -53.5t22 -37t39.5 -21.5t62.5 -7q39 0 63.5 7t38.5 18.5t19.5 26.5t5.5 32q0 32 -23.5 48.5t-59.5 25.5t-77 15.5t-77 17t-59.5 29.5t-23.5 55
q0 23 14.5 40.5t51.5 28.5q-17 12 -28.5 29t-18.5 35.5t-9.5 38.5t-2.5 38q0 37 7.5 71t28.5 59.5t58 40.5t96 15h178l-2 -37l-72 -15q38 -26 51.5 -59t13.5 -76q0 -39 -7 -72.5t-27 -58.5t-55 -39.5t-91 -14.5q-23 0 -43 3.5t-37 8.5q-25 -4 -32 -12.5t-7 -19.5
q0 -20 24 -29.5t59.5 -16t77 -13t77 -21.5t59.5 -41t24 -71zM320 331q0 28 -4.5 50.5t-16.5 38t-33.5 23.5t-55.5 8q-32 0 -53.5 -8t-34 -23.5t-17.5 -38t-5 -50.5q0 -30 4.5 -54t17 -40.5t34 -25.5t55.5 -9q64 0 86.5 34t22.5 95zM270 611q0 -28 -9.5 -39.5t-45.5 -11.5
q-37 0 -46 11.5t-9 39.5q0 29 9 41.5t46 12.5t46 -12.5t9 -41.5z" />
    <glyph glyph-name="uni0122" unicode="&#x122;" horiz-adv-x="540" 
d="M246 350h248v-350h-44l-13 117q-27 -62 -66.5 -92.5t-105.5 -30.5t-109.5 27t-69.5 72t-36.5 104t-10.5 123t9.5 123t35 104t70.5 72t115 27q59 0 101 -18t69 -49t39.5 -72t12.5 -86h-69q-2 74 -38.5 117t-114.5 43q-48 0 -79.5 -19.5t-49.5 -54.5t-25.5 -83t-7.5 -104
t8 -104t27 -83t50 -54.5t77 -19.5q80 0 117.5 58.5t39.5 166.5h-180v66zM247 -213l13 90h-4q-20 0 -29.5 12.5t-9.5 34.5q0 25 12.5 35.5t35.5 10.5t34.5 -10.5t11.5 -35.5q0 -3 -0.5 -8t-2.5 -19t-6.5 -39.5t-11.5 -70.5h-43z" />
    <glyph glyph-name="uni0123" unicode="&#x123;" horiz-adv-x="422" 
d="M412 -68q0 -26 -8.5 -52t-30.5 -47.5t-60 -35t-96 -13.5q-57 0 -95 12.5t-60.5 35.5t-32 56.5t-10.5 75.5h66q1 -31 8 -53.5t22 -37t39.5 -21.5t62.5 -7q39 0 63.5 7t38.5 18.5t19.5 26.5t5.5 32q0 32 -23.5 48.5t-59.5 25.5t-77 15.5t-77 17t-59.5 29.5t-23.5 55
q0 23 14.5 40.5t51.5 28.5q-17 12 -28.5 29t-18.5 35.5t-9.5 38.5t-2.5 38q0 37 7.5 71t28.5 59.5t58 40.5t96 15h178l-2 -37l-72 -15q38 -26 51.5 -59t13.5 -76q0 -39 -7 -72.5t-27 -58.5t-55 -39.5t-91 -14.5q-23 0 -43 3.5t-37 8.5q-25 -4 -32 -12.5t-7 -19.5
q0 -20 24 -29.5t59.5 -16t77 -13t77 -21.5t59.5 -41t24 -71zM320 331q0 28 -4.5 50.5t-16.5 38t-33.5 23.5t-55.5 8q-32 0 -53.5 -8t-34 -23.5t-17.5 -38t-5 -50.5q0 -30 4.5 -54t17 -40.5t34 -25.5t55.5 -9q64 0 86.5 34t22.5 95zM228 728l-13 -90h4q20 0 29.5 -12.5
t9.5 -34.5q0 -25 -12.5 -35.5t-35.5 -10.5t-34.5 10.5t-11.5 35.5q0 3 0.5 8t2.5 19t6 39.5t12 70.5h43z" />
    <glyph glyph-name="Hcircumflex" unicode="&#x124;" horiz-adv-x="520" 
d="M400 0v295h-278v-295h-68v640h68v-281h278v281h67v-640h-67zM259 745l-175 -77v65l175 78l177 -78v-65z" />
    <glyph glyph-name="hcircumflex" unicode="&#x125;" horiz-adv-x="445" 
d="M76 775l-79 -45v66l79 45l79 -45v-66zM341 0v286q0 45 -4.5 77.5t-16.5 53.5t-34 30.5t-57 9.5t-58 -9.5t-36.5 -29.5t-19 -53t-5.5 -79v-286h-66v707h66v-267q19 38 51 60t83 22q52 0 83.5 -17.5t49 -49t23.5 -76t6 -99.5v-280h-65z" />
    <glyph glyph-name="Hbar" unicode="&#x126;" horiz-adv-x="520" 
d="M400 0v295h-278v-295h-68v462h-35v64h35v114h68v-114h278v114h67v-114h35v-64h-35v-462h-67zM400 359v103h-278v-103h278z" />
    <glyph glyph-name="hbar" unicode="&#x127;" horiz-adv-x="445" 
d="M110 592v-152q19 38 51 60t83 22q52 0 83.5 -17.5t49 -49t23.5 -76t6 -99.5v-280h-65v286q0 45 -4.5 77.5t-16.5 53.5t-34 30.5t-57 9.5t-58 -9.5t-36.5 -29.5t-19 -53t-5.5 -79v-286h-66v707h66v-63h299v-52h-299z" />
    <glyph glyph-name="Itilde" unicode="&#x128;" horiz-adv-x="175" 
d="M-40 715q0 42 15 68t57 26q20 0 34.5 -11t27 -24t24.5 -24t27 -11q12 0 15.5 8.5t3.5 27.5v25h56v-25q0 -44 -15 -68.5t-59 -24.5q-23 0 -40.5 11t-31 23.5t-23 23.5t-17.5 11q-13 0 -16.5 -8.5t-3.5 -27.5v-26h-54v26zM54 0v640h68v-640h-68z" />
    <glyph glyph-name="itilde" unicode="&#x129;" horiz-adv-x="154" 
d="M-40 592q0 42 15 68t57 26q20 0 34.5 -11t27 -24t24.5 -24t27 -11q12 0 15.5 8.5t3.5 27.5v25h56v-25q0 -44 -15 -68t-59 -24q-23 0 -40.5 11t-31 23.5t-23 23.5t-17.5 11q-13 0 -16.5 -9t-3.5 -28v-26h-54v26zM45 0v516h66v-516h-66z" />
    <glyph glyph-name="Imacron" unicode="&#x12a;" horiz-adv-x="175" 
d="M11 700v64h156v-64h-156zM54 0v640h68v-640h-68z" />
    <glyph glyph-name="imacron" unicode="&#x12b;" horiz-adv-x="154" 
d="M1 566v64h156v-64h-156zM45 0v516h66v-516h-66z" />
    <glyph glyph-name="Ibreve" unicode="&#x12c;" horiz-adv-x="175" 
d="M214 829q-2 -44 -9.5 -72.5t-21.5 -45t-35 -23t-49 -6.5h-25q-55 0 -80 33t-27 114h64q1 -29 5.5 -46t11.5 -25.5t16.5 -10.5t21.5 -2h4q31 0 44 16.5t15 67.5h65zM54 0v640h68v-640h-68z" />
    <glyph glyph-name="ibreve" unicode="&#x12d;" horiz-adv-x="154" 
d="M206 705q-2 -44 -9.5 -72.5t-21.5 -45t-35 -22.5t-49 -6h-25q-54 0 -79 32.5t-27 113.5h64q1 -29 5 -46t11 -25.5t17 -10.5t22 -2h3q16 0 27 3.5t18 13t10 25.5t4 42h65zM45 0v516h66v-516h-66z" />
    <glyph glyph-name="Iogonek" unicode="&#x12e;" horiz-adv-x="175" 
d="M89 -184q-45 0 -72 18t-27 52q0 25 15 53t49 61v640h68v-640q-11 -11 -22.5 -23.5t-21 -25t-15.5 -25t-6 -22.5q0 -29 35 -29h30v-59h-33z" />
    <glyph glyph-name="iogonek" unicode="&#x12f;" horiz-adv-x="154" 
d="M76 -184q-92 0 -92 70q0 25 13.5 53t47.5 61v516h65v-516q-11 -11 -22.5 -23.5t-21 -25t-15.5 -25t-6 -22.5q0 -29 35 -29h30v-59h-34zM130 622q0 -28 -12.5 -40t-38.5 -12q-28 0 -40.5 12t-12.5 40q0 29 12.5 40.5t40.5 11.5q26 0 38.5 -11.5t12.5 -40.5z" />
    <glyph glyph-name="Idotaccent" unicode="&#x130;" horiz-adv-x="175" 
d="M54 0v640h68v-640h-68zM143 735q0 -28 -9.5 -39.5t-45.5 -11.5q-37 0 -46 11.5t-9 39.5q0 29 9 41.5t46 12.5t46 -12.5t9 -41.5z" />
    <glyph glyph-name="dotlessi" unicode="&#x131;" horiz-adv-x="154" 
d="M45 0v516h66v-516h-66z" />
    <glyph glyph-name="Jcircumflex" unicode="&#x134;" horiz-adv-x="272" 
d="M186 720l-79 -45v66l79 45l79 -45v-66zM221 640l1 -449q0 -55 -8 -95t-31.5 -64t-65.5 -32t-111 1v63q46 -6 75 -2t45 19t22 41.5t6 64.5v453h67z" />
    <glyph glyph-name="jcircumflex" unicode="&#x135;" horiz-adv-x="150" 
d="M110 516v-584q0 -38 -7 -66t-24 -46t-46 -24t-72 1v64q50 -8 67.5 8.5t17.5 62.5v584h64zM77 602l-80 -45v67l80 45l78 -45v-64z" />
    <glyph glyph-name="uni0136" unicode="&#x136;" horiz-adv-x="427" 
d="M361 0l-239 301v-301h-68v640h68v-278l227 278h87l-261 -306l274 -334h-88zM206 -213l13 90h-4q-20 0 -29.5 12.5t-9.5 34.5q0 25 12.5 35.5t35.5 10.5t34.5 -10.5t11.5 -35.5q0 -3 -0.5 -8t-2.5 -19t-6.5 -39.5t-11.5 -70.5h-43z" />
    <glyph glyph-name="uni0137" unicode="&#x137;" horiz-adv-x="387" 
d="M375 516l-220 -247l239 -269h-89l-195 229v-229h-66v707h66v-398l177 207h88zM186 -213l13 90h-4q-20 0 -29.5 12.5t-9.5 34.5q0 25 12.5 35.5t35.5 10.5t34.5 -10.5t11.5 -35.5q0 -3 -0.5 -8t-2.5 -19t-6.5 -39.5t-11.5 -70.5h-43z" />
    <glyph glyph-name="kgreenlandic" unicode="&#x138;" horiz-adv-x="387" 
d="M375 516l-220 -247l239 -269h-89l-195 229v-229h-66v516h66v-207l177 207h88z" />
    <glyph glyph-name="Lacute" unicode="&#x139;" horiz-adv-x="342" 
d="M21 672v63l140 41v-64zM54 0v640h68v-576h208v-64h-276z" />
    <glyph glyph-name="lacute" unicode="&#x13a;" horiz-adv-x="152" 
d="M10 735v59l140 41v-60zM44 0v707h66v-707h-66z" />
    <glyph glyph-name="uni013B" unicode="&#x13b;" horiz-adv-x="342" 
d="M54 0v640h68v-576h208v-64h-276zM163 -213l13 90h-4q-20 0 -29.5 12.5t-9.5 34.5q0 25 12.5 35.5t35.5 10.5t34.5 -10.5t11.5 -35.5q0 -3 -0.5 -8t-2.5 -19t-6.5 -39.5t-11.5 -70.5h-43z" />
    <glyph glyph-name="uni013C" unicode="&#x13c;" horiz-adv-x="152" 
d="M44 0v707h66v-707h-66zM59 -213l13 90h-4q-20 0 -29.5 12.5t-9.5 34.5q0 25 12.5 35.5t35.5 10.5t34.5 -10.5t11.5 -35.5q0 -3 -0.5 -8t-2.5 -19t-6.5 -39.5t-11.5 -70.5h-43z" />
    <glyph glyph-name="Lcaron" unicode="&#x13d;" horiz-adv-x="342" 
d="M54 0v640h68v-576h208v-64h-276zM195 416l16 128h-8q-20 0 -31 14t-11 37q0 28 13.5 39.5t38.5 11.5q26 0 39 -11.5t13 -39.5q0 -4 -1 -12t-3.5 -27t-7.5 -52.5t-12 -87.5h-46z" />
    <glyph glyph-name="lcaron" unicode="&#x13e;" horiz-adv-x="262" 
d="M44 0v707h66v-707h-66zM182 416l16 128h-8q-20 0 -31 14t-11 37q0 28 13.5 39.5t38.5 11.5q26 0 39 -11.5t13 -39.5q0 -4 -1 -12t-3.5 -27t-7.5 -52.5t-12 -87.5h-46z" />
    <glyph glyph-name="Ldot" unicode="&#x13f;" horiz-adv-x="342" 
d="M54 0v640h68v-576h208v-64h-276zM273 321q0 -28 -12.5 -39.5t-38.5 -11.5t-38.5 11.5t-12.5 39.5q0 29 12.5 40t38.5 11t38.5 -11t12.5 -40z" />
    <glyph glyph-name="ldot" unicode="&#x140;" horiz-adv-x="259" 
d="M44 0v707h66v-707h-66zM243 321q0 -28 -12.5 -39.5t-38.5 -11.5t-38.5 11.5t-12.5 39.5q0 29 12.5 40t38.5 11t38.5 -11t12.5 -40z" />
    <glyph glyph-name="Lslash" unicode="&#x141;" horiz-adv-x="342" 
d="M54 0v231l-50 -22v58l50 23v350h68v-318l115 54v-59l-115 -54v-199h208v-64h-276z" />
    <glyph glyph-name="lslash" unicode="&#x142;" horiz-adv-x="224" 
d="M142 248v-248h-65v216l-60 -34v58l60 34v433h65v-400l60 33v-59z" />
    <glyph glyph-name="Nacute" unicode="&#x143;" horiz-adv-x="557" 
d="M56 640h84l296 -531v531h69v-640h-81l-299 537v-537h-69v640zM101 669v64l351 87v-64z" />
    <glyph glyph-name="nacute" unicode="&#x144;" horiz-adv-x="447" 
d="M342 0v285q0 43 -4.5 75.5t-16.5 54t-34 32.5t-57 11q-36 0 -59 -10.5t-36.5 -32.5t-19 -54.5t-5.5 -75.5v-285h-66v516h36l15 -82q19 38 55 63t95 25q52 0 84.5 -18t50 -50.5t23.5 -77t6 -97.5v-279h-67zM50 545v64l351 87v-64z" />
    <glyph glyph-name="uni0145" unicode="&#x145;" horiz-adv-x="557" 
d="M56 640h84l296 -531v531h69v-640h-81l-299 537v-537h-69v640zM264 -213l13 90h-4q-20 0 -29.5 12.5t-9.5 34.5q0 25 12.5 35.5t35.5 10.5t34.5 -10.5t11.5 -35.5q0 -3 -0.5 -8t-2.5 -19t-6.5 -39.5t-11.5 -70.5h-43z" />
    <glyph glyph-name="uni0146" unicode="&#x146;" horiz-adv-x="447" 
d="M342 0v285q0 43 -4.5 75.5t-16.5 54t-34 32.5t-57 11q-36 0 -59 -10.5t-36.5 -32.5t-19 -54.5t-5.5 -75.5v-285h-66v516h36l15 -82q19 38 55 63t95 25q52 0 84.5 -18t50 -50.5t23.5 -77t6 -97.5v-279h-67zM216 -213l13 90h-4q-20 0 -29.5 12.5t-9.5 34.5q0 25 12.5 35.5
t35.5 10.5t34.5 -10.5t11.5 -35.5q0 -3 -0.5 -8t-2.5 -19t-6.5 -39.5t-11.5 -70.5h-43z" />
    <glyph glyph-name="Ncaron" unicode="&#x147;" horiz-adv-x="557" 
d="M56 640h84l296 -531v531h69v-640h-81l-299 537v-537h-69v640zM276 666l-176 79v65l176 -77l177 77v-65z" />
    <glyph glyph-name="ncaron" unicode="&#x148;" horiz-adv-x="447" 
d="M342 0v285q0 43 -4.5 75.5t-16.5 54t-34 32.5t-57 11q-36 0 -59 -10.5t-36.5 -32.5t-19 -54.5t-5.5 -75.5v-285h-66v516h36l15 -82q19 38 55 63t95 25q52 0 84.5 -18t50 -50.5t23.5 -77t6 -97.5v-279h-67zM233 542l-176 79v65l176 -77l177 77v-65z" />
    <glyph glyph-name="Eng" unicode="&#x14a;" horiz-adv-x="557" 
d="M56 640h84l296 -531v531h69v-640q0 -55 -8 -95t-31.5 -64t-66 -32t-110.5 1v62q43 -6 71 -3.5t44.5 15.5t23.5 36.5t8 60.5l-311 556v-537h-69v640z" />
    <glyph glyph-name="eng" unicode="&#x14b;" horiz-adv-x="447" 
d="M342 285q0 43 -4.5 75.5t-16.5 54t-34 32.5t-57 11q-36 0 -59 -10.5t-36.5 -32.5t-19 -54.5t-5.5 -75.5v-285h-66v516h36l15 -82q19 38 55 63t95 25q52 0 84.5 -18t50 -50.5t23.5 -77t6 -97.5v-346q0 -66 -23.5 -102.5t-86.5 -36.5q-9 0 -20 1t-22 3v64q16 -3 29 -3
q32 0 44 18t12 56v352z" />
    <glyph glyph-name="Omacron" unicode="&#x14c;" horiz-adv-x="551" 
d="M514 319q0 -64 -10 -122.5t-36.5 -103.5t-72.5 -72t-119 -27t-119 27t-72.5 72t-36 104t-9.5 123t10 123t36.5 104t72.5 72t118 27q73 0 119 -27t72.5 -72t36.5 -104.5t10 -123.5zM445 319q0 57 -7.5 105t-26.5 83t-52 54.5t-83 19.5t-82.5 -19.5t-51.5 -54.5t-27 -83
t-8 -104t8 -104t27 -83t51.5 -54.5t82.5 -19.5t83 19.5t52 54.5t26.5 82.5t7.5 103.5zM107 700v64h336v-64h-336z" />
    <glyph glyph-name="omacron" unicode="&#x14d;" horiz-adv-x="435" 
d="M411 257q0 -49 -8 -96.5t-30 -84.5t-59.5 -59.5t-96.5 -22.5t-96 23t-58.5 60t-29.5 84t-8 96q0 48 8 95.5t29.5 85t59 61t95.5 23.5q59 0 96.5 -23.5t59.5 -61t30 -85t8 -95.5zM344 257q0 42 -6 78.5t-20.5 64t-39 43t-61.5 15.5q-36 0 -60.5 -15.5t-38.5 -42.5t-20 -64
t-6 -79t6 -79t20 -64t38.5 -42.5t60.5 -15.5q37 0 61.5 15t39 42t20.5 64t6 80zM51 576v64h336v-64h-336z" />
    <glyph glyph-name="Obreve" unicode="&#x14e;" horiz-adv-x="551" 
d="M514 319q0 -64 -10 -122.5t-36.5 -103.5t-72.5 -72t-119 -27t-119 27t-72.5 72t-36 104t-9.5 123t10 123t36.5 104t72.5 72t118 27q73 0 119 -27t72.5 -72t36.5 -104.5t10 -123.5zM445 319q0 57 -7.5 105t-26.5 83t-52 54.5t-83 19.5t-82.5 -19.5t-51.5 -54.5t-27 -83
t-8 -104t8 -104t27 -83t51.5 -54.5t82.5 -19.5t83 19.5t52 54.5t26.5 82.5t7.5 103.5zM429 834q-1 -44 -8.5 -72.5t-22 -45t-35.5 -22.5t-49 -6h-83q-55 0 -80 32.5t-27 113.5h60q1 -29 6 -46t12.5 -25.5t18 -10.5t22.5 -2h63q32 0 46 16.5t16 67.5h61z" />
    <glyph glyph-name="obreve" unicode="&#x14f;" horiz-adv-x="435" 
d="M411 257q0 -49 -8 -96.5t-30 -84.5t-59.5 -59.5t-96.5 -22.5t-96 23t-58.5 60t-29.5 84t-8 96q0 48 8 95.5t29.5 85t59 61t95.5 23.5q59 0 96.5 -23.5t59.5 -61t30 -85t8 -95.5zM344 257q0 42 -6 78.5t-20.5 64t-39 43t-61.5 15.5q-36 0 -60.5 -15.5t-38.5 -42.5t-20 -64
t-6 -79t6 -79t20 -64t38.5 -42.5t60.5 -15.5q37 0 61.5 15t39 42t20.5 64t6 80zM369 710q-1 -44 -8.5 -72.5t-22 -45t-35.5 -22.5t-49 -6h-83q-55 0 -80 32.5t-27 113.5h60q1 -29 6 -46t12.5 -25.5t18 -10.5t22.5 -2h63q32 0 46 16.5t16 67.5h61z" />
    <glyph glyph-name="Ohungarumlaut" unicode="&#x150;" horiz-adv-x="551" 
d="M514 319q0 -64 -10 -122.5t-36.5 -103.5t-72.5 -72t-119 -27t-119 27t-72.5 72t-36 104t-9.5 123t10 123t36.5 104t72.5 72t118 27q73 0 119 -27t72.5 -72t36.5 -104.5t10 -123.5zM445 319q0 57 -7.5 105t-26.5 83t-52 54.5t-83 19.5t-82.5 -19.5t-51.5 -54.5t-27 -83
t-8 -104t8 -104t27 -83t51.5 -54.5t82.5 -19.5t83 19.5t52 54.5t26.5 82.5t7.5 103.5zM306 668v65l158 77v-65zM111 668v65l155 77l1 -65z" />
    <glyph glyph-name="ohungarumlaut" unicode="&#x151;" horiz-adv-x="435" 
d="M411 257q0 -49 -8 -96.5t-30 -84.5t-59.5 -59.5t-96.5 -22.5t-96 23t-58.5 60t-29.5 84t-8 96q0 48 8 95.5t29.5 85t59 61t95.5 23.5q59 0 96.5 -23.5t59.5 -61t30 -85t8 -95.5zM344 257q0 42 -6 78.5t-20.5 64t-39 43t-61.5 15.5q-36 0 -60.5 -15.5t-38.5 -42.5t-20 -64
t-6 -79t6 -79t20 -64t38.5 -42.5t60.5 -15.5q37 0 61.5 15t39 42t20.5 64t6 80zM238 544v65l158 77v-65zM43 544v65l155 77l1 -65z" />
    <glyph glyph-name="OE" unicode="&#x152;" horiz-adv-x="827" 
d="M447 0l2 115q-28 -63 -68.5 -92t-103.5 -29q-72 0 -118.5 27t-73 72t-36.5 104t-10 123t10 123t37 104t73 72t118 27q63 0 106 -29.5t66 -91.5l-2 115h344v-66h-276v-214h254v-66h-254v-227h276v-67h-344zM447 319q0 57 -8.5 104.5t-28 82t-52.5 54t-81 19.5t-80.5 -19.5
t-52.5 -54t-28.5 -82t-8.5 -103.5t8.5 -103.5t28.5 -82t52.5 -54t80.5 -19.5t81 19.5t52.5 54t28 81.5t8.5 103z" />
    <glyph glyph-name="oe" unicode="&#x153;" horiz-adv-x="785" 
d="M761 160q-5 -35 -17 -65t-33.5 -52.5t-55 -35.5t-79.5 -13q-73 0 -112 34t-59 99q-21 -65 -59.5 -99t-111.5 -34q-63 0 -103 23t-62.5 60t-31 84t-8.5 96q0 48 8.5 95.5t31 85t62.5 61t103 23.5q72 0 110.5 -35.5t60.5 -99.5q20 66 59 100.5t111 34.5q57 0 93.5 -23.5
t57.5 -63.5t28 -94.5t5 -115.5h-318q4 -84 35.5 -126.5t97.5 -42.5q55 0 82 28t35 76h70zM692 287q0 78 -29 124.5t-93 46.5q-34 0 -57.5 -12.5t-39 -35t-23 -54.5t-9.5 -71h251v2zM372 257q0 41 -6 76.5t-21.5 62t-42.5 41.5t-68 15t-67.5 -15t-42.5 -41.5t-22 -62
t-6 -76.5q0 -42 6 -77.5t22 -61.5t42.5 -40.5t67.5 -14.5t68 14.5t42.5 40.5t21.5 61.5t6 77.5z" />
    <glyph glyph-name="Racute" unicode="&#x154;" horiz-adv-x="474" 
d="M354 0l-232 269v-269h-68v640h176q71 0 112 -19.5t61.5 -48.5t26 -63t5.5 -63q0 -61 -17 -97t-45.5 -55.5t-64.5 -26t-73 -6.5h-26l235 -261h-90zM366 446q0 24 -4.5 47.5t-19 41.5t-41 29.5t-70.5 11.5h-109v-256h113q44 0 70 10.5t39.5 28.5t17.5 40.5t4 46.5zM58 669
v64l351 87v-64z" />
    <glyph glyph-name="racute" unicode="&#x155;" horiz-adv-x="254" 
d="M36 545v64l214 75v-64zM247 455q-42 1 -69 -10t-42 -32.5t-20.5 -54t-5.5 -74.5v-284h-66v516h35l16 -81q19 41 53 63.5t99 23.5v-67z" />
    <glyph glyph-name="uni0156" unicode="&#x156;" horiz-adv-x="474" 
d="M354 0l-232 269v-269h-68v640h176q71 0 112 -19.5t61.5 -48.5t26 -63t5.5 -63q0 -61 -17 -97t-45.5 -55.5t-64.5 -26t-73 -6.5h-26l235 -261h-90zM366 446q0 24 -4.5 47.5t-19 41.5t-41 29.5t-70.5 11.5h-109v-256h113q44 0 70 10.5t39.5 28.5t17.5 40.5t4 46.5z
M221 -213l13 90h-4q-20 0 -29.5 12.5t-9.5 34.5q0 25 12.5 35.5t35.5 10.5t34.5 -10.5t11.5 -35.5q0 -3 -0.5 -8t-2.5 -19t-6.5 -39.5t-11.5 -70.5h-43z" />
    <glyph glyph-name="uni0157" unicode="&#x157;" horiz-adv-x="254" 
d="M247 455q-42 1 -69 -10t-42 -32.5t-20.5 -54t-5.5 -74.5v-284h-66v516h35l16 -81q19 41 53 63.5t99 23.5v-67zM61 -213l13 90h-4q-20 0 -29.5 12.5t-9.5 34.5q0 25 12.5 35.5t35.5 10.5t34.5 -10.5t11.5 -35.5q0 -3 -0.5 -8t-2.5 -19t-6.5 -39.5t-11.5 -70.5h-43z" />
    <glyph glyph-name="Rcaron" unicode="&#x158;" horiz-adv-x="474" 
d="M354 0l-232 269v-269h-68v640h176q71 0 112 -19.5t61.5 -48.5t26 -63t5.5 -63q0 -61 -17 -97t-45.5 -55.5t-64.5 -26t-73 -6.5h-26l235 -261h-90zM366 446q0 24 -4.5 47.5t-19 41.5t-41 29.5t-70.5 11.5h-109v-256h113q44 0 70 10.5t39.5 28.5t17.5 40.5t4 46.5zM233 666
l-176 79v65l176 -77l177 77v-65z" />
    <glyph glyph-name="rcaron" unicode="&#x159;" horiz-adv-x="254" 
d="M141 554l-114 66v65l114 -69l114 69v-65zM247 455q-42 1 -69 -10t-42 -32.5t-20.5 -54t-5.5 -74.5v-284h-66v516h35l16 -81q19 41 53 63.5t99 23.5v-67z" />
    <glyph glyph-name="Sacute" unicode="&#x15a;" horiz-adv-x="505" 
d="M467 184q0 -32 -9 -65.5t-32.5 -61t-63.5 -45.5t-101 -18q-62 0 -104.5 16t-69.5 46t-39 71.5t-12 92.5h68q2 -75 38 -117t117 -42q40 0 67 9.5t43.5 25.5t23.5 37t7 44q1 33 -13.5 54t-38.5 34.5t-55.5 22t-64 17t-64 19t-56.5 27.5t-40.5 43.5t-15.5 66.5q-1 83 49 134
t151 51q100 0 154.5 -54t54.5 -160h-67q-2 42 -13.5 70.5t-30 46t-44 24.5t-55.5 7q-61 0 -97.5 -27.5t-34.5 -87.5q1 -38 27 -57.5t64.5 -32t83.5 -23t83.5 -29t64 -51t25.5 -88.5zM77 669v64l351 87v-64z" />
    <glyph glyph-name="sacute" unicode="&#x15b;" horiz-adv-x="412" 
d="M387 141q0 -26 -9 -52t-29.5 -47t-53 -34.5t-80.5 -13.5q-99 0 -144 48t-47 143h65q2 -69 32.5 -99.5t92.5 -30.5q58 0 82.5 25t25.5 57q1 33 -20 51t-53 29t-70 19.5t-70.5 23.5t-54.5 40.5t-23 70.5q0 31 9 59t30 48t54 32t81 12q47 0 79.5 -13t53 -37t30 -57.5
t11.5 -73.5h-63q-5 63 -30.5 92t-83.5 29t-81.5 -24.5t-23.5 -62.5q1 -30 22.5 -45.5t54 -26.5t70 -20t69 -25t53 -43.5t21.5 -73.5zM31 545v64l351 87v-64z" />
    <glyph glyph-name="Scircumflex" unicode="&#x15c;" horiz-adv-x="505" 
d="M467 184q0 -32 -9 -65.5t-32.5 -61t-63.5 -45.5t-101 -18q-62 0 -104.5 16t-69.5 46t-39 71.5t-12 92.5h68q2 -75 38 -117t117 -42q40 0 67 9.5t43.5 25.5t23.5 37t7 44q1 33 -13.5 54t-38.5 34.5t-55.5 22t-64 17t-64 19t-56.5 27.5t-40.5 43.5t-15.5 66.5q-1 83 49 134
t151 51q100 0 154.5 -54t54.5 -160h-67q-2 42 -13.5 70.5t-30 46t-44 24.5t-55.5 7q-61 0 -97.5 -27.5t-34.5 -87.5q1 -38 27 -57.5t64.5 -32t83.5 -23t83.5 -29t64 -51t25.5 -88.5zM254 745l-175 -77v65l175 78l177 -78v-65z" />
    <glyph glyph-name="scircumflex" unicode="&#x15d;" horiz-adv-x="412" 
d="M387 141q0 -26 -9 -52t-29.5 -47t-53 -34.5t-80.5 -13.5q-99 0 -144 48t-47 143h65q2 -69 32.5 -99.5t92.5 -30.5q58 0 82.5 25t25.5 57q1 33 -20 51t-53 29t-70 19.5t-70.5 23.5t-54.5 40.5t-23 70.5q0 31 9 59t30 48t54 32t81 12q47 0 79.5 -13t53 -37t30 -57.5
t11.5 -73.5h-63q-5 63 -30.5 92t-83.5 29t-81.5 -24.5t-23.5 -62.5q1 -30 22.5 -45.5t54 -26.5t70 -20t69 -25t53 -43.5t21.5 -73.5zM205 621l-175 -77v65l175 78l177 -78v-65z" />
    <glyph glyph-name="Scedilla" unicode="&#x15e;" horiz-adv-x="505" 
d="M467 184q0 -30 -8 -61.5t-28 -58.5t-54 -46.5t-86 -23.5q-2 -42 -9.5 -70t-22 -44.5t-35 -23.5t-48.5 -7h-107v61h101q30 0 43.5 18t16.5 66q-53 4 -89.5 22t-60 47t-34 69t-10.5 88h68q2 -75 38 -118t117 -43q40 0 67 10t43.5 26.5t23.5 37.5t7 44q1 33 -13.5 54
t-38.5 34.5t-55.5 22t-64 17t-64 19t-56.5 27.5t-40.5 43.5t-15.5 66.5q-1 83 49 134t151 51q100 0 154.5 -54t54.5 -160h-67q-2 42 -13.5 70.5t-30 46t-44 24.5t-55.5 7q-61 0 -97.5 -27.5t-34.5 -87.5q1 -38 27 -57.5t64.5 -32t83.5 -23t83.5 -29t64 -51t25.5 -88.5z" />
    <glyph glyph-name="scedilla" unicode="&#x15f;" horiz-adv-x="412" 
d="M387 141q0 -24 -7.5 -48.5t-25 -45t-45 -34.5t-67.5 -18q-2 -42 -9.5 -70t-22 -45t-35 -24t-48.5 -7h-92v61h86q30 0 43.5 18t16.5 67q-81 8 -118 55.5t-39 134.5h65q2 -69 32.5 -99t92.5 -30q58 0 82.5 24.5t25.5 56.5q1 33 -20 51t-53.5 29t-70.5 19.5t-70.5 23.5
t-54.5 40.5t-22 70.5q0 31 9 59t30 48t54 32t81 12q47 0 79.5 -13t53 -37t30 -57.5t11.5 -73.5h-63q-5 63 -30.5 92t-83.5 29t-81.5 -24.5t-23.5 -62.5q0 -30 21.5 -45.5t53.5 -26.5t70 -20t70 -25t53.5 -43.5t21.5 -73.5z" />
    <glyph glyph-name="Scaron" unicode="&#x160;" horiz-adv-x="505" 
d="M467 184q0 -32 -9 -65.5t-32.5 -61t-63.5 -45.5t-101 -18q-62 0 -104.5 16t-69.5 46t-39 71.5t-12 92.5h68q2 -75 38 -117t117 -42q40 0 67 9.5t43.5 25.5t23.5 37t7 44q1 33 -13.5 54t-38.5 34.5t-55.5 22t-64 17t-64 19t-56.5 27.5t-40.5 43.5t-15.5 66.5q-1 83 49 134
t151 51q100 0 154.5 -54t54.5 -160h-67q-2 42 -13.5 70.5t-30 46t-44 24.5t-55.5 7q-61 0 -97.5 -27.5t-34.5 -87.5q1 -38 27 -57.5t64.5 -32t83.5 -23t83.5 -29t64 -51t25.5 -88.5zM255 666l-176 79v65l176 -77l177 77v-65z" />
    <glyph glyph-name="scaron" unicode="&#x161;" horiz-adv-x="412" 
d="M387 141q0 -26 -9 -52t-29.5 -47t-53 -34.5t-80.5 -13.5q-99 0 -144 48t-47 143h65q2 -69 32.5 -99.5t92.5 -30.5q58 0 82.5 25t25.5 57q1 33 -20 51t-53 29t-70 19.5t-70.5 23.5t-54.5 40.5t-23 70.5q0 31 9 59t30 48t54 32t81 12q47 0 79.5 -13t53 -37t30 -57.5
t11.5 -73.5h-63q-5 63 -30.5 92t-83.5 29t-81.5 -24.5t-23.5 -62.5q1 -30 22.5 -45.5t54 -26.5t70 -20t69 -25t53 -43.5t21.5 -73.5zM206 542l-176 79v65l176 -77l177 77v-65z" />
    <glyph glyph-name="Tcaron" unicode="&#x164;" horiz-adv-x="397" 
d="M232 575v-575h-66v575h-155v65h375v-65h-154zM198 666l-176 79v65l176 -77l177 77v-65z" />
    <glyph glyph-name="tcaron" unicode="&#x165;" horiz-adv-x="270" 
d="M255 -3q-105 -6 -147.5 30.5t-42.5 122.5v301h-54v46l54 19v124h67v-124h123v-65h-123v-301q0 -27 5.5 -45t19.5 -28.5t37.5 -15t60.5 -2.5v-62zM210 542l16 128h-8q-20 0 -31 14t-11 37q0 28 13.5 39.5t38.5 11.5q26 0 39 -11.5t13 -39.5q0 -4 -1 -12t-3.5 -27
t-7.5 -52.5t-12 -87.5h-46z" />
    <glyph glyph-name="Tbar" unicode="&#x166;" horiz-adv-x="397" 
d="M232 281v-281h-66v281h-107v64h107v230h-155v65h375v-65h-154v-230h108v-64h-108z" />
    <glyph glyph-name="tbar" unicode="&#x167;" horiz-adv-x="270" 
d="M132 242v-92q0 -27 5.5 -45t19.5 -28.5t37.5 -15t60.5 -2.5v-62q-105 -6 -147.5 30.5t-42.5 122.5v92h-54v52h54v157h-54v46l54 19v124h67v-124h123v-65h-123v-157h104v-52h-104z" />
    <glyph glyph-name="Utilde" unicode="&#x168;" horiz-adv-x="520" 
d="M476 284q0 -77 -12 -132t-38 -90t-67 -51.5t-98 -16.5q-58 0 -98.5 16.5t-66.5 51.5t-38 90t-12 132v356h68v-355q0 -60 8 -103t25.5 -70t45.5 -39.5t68 -12.5t67.5 12t45 39t25.5 69.5t8 103.5v356h69v-356zM460 801q0 -26 -3.5 -49t-14.5 -40t-31.5 -26.5t-54.5 -9.5
q-26 0 -53.5 14.5t-52 31.5t-45.5 31.5t-34 14.5q-27 0 -33.5 -23.5t-7.5 -61.5h-63q-2 24 0.5 50t13 48.5t32 37t59.5 14.5q25 0 50.5 -14.5t48.5 -31.5t44 -31.5t38 -14.5q25 0 34 15.5t9 51.5v20h62q2 -14 2 -19.5v-7.5z" />
    <glyph glyph-name="utilde" unicode="&#x169;" horiz-adv-x="446" 
d="M362 0l-10 85q-20 -45 -54.5 -68t-93.5 -23q-53 0 -85 18t-49.5 50t-23.5 77t-6 98v279h65v-285q0 -43 4.5 -75.5t17 -54t34.5 -32.5t58 -11t58.5 11t36 33t18.5 55.5t5 77.5v281h67v-516h-42zM419 677q0 -26 -3.5 -49t-14.5 -40t-31.5 -26.5t-54.5 -9.5
q-26 0 -53.5 14.5t-52 31.5t-45.5 31.5t-34 14.5q-27 0 -33.5 -23.5t-7.5 -61.5h-63q-2 24 0.5 50t13 48.5t32 37t59.5 14.5q25 0 50.5 -14.5t48.5 -31.5t44 -31.5t38 -14.5q25 0 34 15.5t9 51.5v20h62q2 -14 2 -19.5v-7.5z" />
    <glyph glyph-name="Umacron" unicode="&#x16a;" horiz-adv-x="520" 
d="M476 284q0 -77 -12 -132t-38 -90t-67 -51.5t-98 -16.5q-58 0 -98.5 16.5t-66.5 51.5t-38 90t-12 132v356h68v-355q0 -60 8 -103t25.5 -70t45.5 -39.5t68 -12.5t67.5 12t45 39t25.5 69.5t8 103.5v356h69v-356zM91 700v64h336v-64h-336z" />
    <glyph glyph-name="umacron" unicode="&#x16b;" horiz-adv-x="446" 
d="M362 0l-10 85q-20 -45 -54.5 -68t-93.5 -23q-53 0 -85 18t-49.5 50t-23.5 77t-6 98v279h65v-285q0 -43 4.5 -75.5t17 -54t34.5 -32.5t58 -11t58.5 11t36 33t18.5 55.5t5 77.5v281h67v-516h-42zM57 576v64h336v-64h-336z" />
    <glyph glyph-name="Ubreve" unicode="&#x16c;" horiz-adv-x="520" 
d="M476 284q0 -77 -12 -132t-38 -90t-67 -51.5t-98 -16.5q-58 0 -98.5 16.5t-66.5 51.5t-38 90t-12 132v356h68v-355q0 -60 8 -103t25.5 -70t45.5 -39.5t68 -12.5t67.5 12t45 39t25.5 69.5t8 103.5v356h69v-356zM413 834q-1 -44 -8.5 -72.5t-22 -45t-35.5 -22.5t-49 -6h-83
q-55 0 -80 32.5t-27 113.5h60q1 -29 6 -46t12.5 -25.5t18 -10.5t22.5 -2h63q32 0 46 16.5t16 67.5h61z" />
    <glyph glyph-name="ubreve" unicode="&#x16d;" horiz-adv-x="446" 
d="M362 0l-10 85q-20 -45 -54.5 -68t-93.5 -23q-53 0 -85 18t-49.5 50t-23.5 77t-6 98v279h65v-285q0 -43 4.5 -75.5t17 -54t34.5 -32.5t58 -11t58.5 11t36 33t18.5 55.5t5 77.5v281h67v-516h-42zM372 710q-1 -44 -8.5 -72.5t-22 -45t-35.5 -22.5t-49 -6h-83q-55 0 -80 32.5
t-27 113.5h60q1 -29 6 -46t12.5 -25.5t18 -10.5t22.5 -2h63q32 0 46 16.5t16 67.5h61z" />
    <glyph glyph-name="Uring" unicode="&#x16e;" horiz-adv-x="520" 
d="M476 284q0 -77 -12 -132t-38 -90t-67 -51.5t-98 -16.5q-58 0 -98.5 16.5t-66.5 51.5t-38 90t-12 132v356h68v-355q0 -60 8 -103t25.5 -70t45.5 -39.5t68 -12.5t67.5 12t45 39t25.5 69.5t8 103.5v356h69v-356zM375 783q0 -55 -24.5 -82t-88.5 -27q-67 0 -90.5 27t-23.5 82
t23.5 81.5t90.5 26.5q64 0 88.5 -26.5t24.5 -81.5zM317 783q0 35 -14 44t-41 9t-41.5 -9t-14.5 -44t14.5 -45t41.5 -10q26 0 40.5 10t14.5 45z" />
    <glyph glyph-name="uring" unicode="&#x16f;" horiz-adv-x="446" 
d="M362 0l-10 85q-20 -45 -54.5 -68t-93.5 -23q-53 0 -85 18t-49.5 50t-23.5 77t-6 98v279h65v-285q0 -43 4.5 -75.5t17 -54t34.5 -32.5t58 -11t58.5 11t36 33t18.5 55.5t5 77.5v281h67v-516h-42zM334 659q0 -55 -24.5 -82t-88.5 -27q-67 0 -90.5 27t-23.5 82t23.5 81.5
t90.5 26.5q64 0 88.5 -26.5t24.5 -81.5zM276 659q0 35 -14 44t-41 9t-41.5 -9t-14.5 -44t14.5 -45t41.5 -10q26 0 40.5 10t14.5 45z" />
    <glyph glyph-name="Uhungarumlaut" unicode="&#x170;" horiz-adv-x="520" 
d="M476 284q0 -77 -12 -132t-38 -90t-67 -51.5t-98 -16.5q-58 0 -98.5 16.5t-66.5 51.5t-38 90t-12 132v356h68v-355q0 -60 8 -103t25.5 -70t45.5 -39.5t68 -12.5t67.5 12t45 39t25.5 69.5t8 103.5v356h69v-356zM277 668v65l158 77v-65zM82 668v65l155 77l1 -65z" />
    <glyph glyph-name="uhungarumlaut" unicode="&#x171;" horiz-adv-x="446" 
d="M362 0l-10 85q-20 -45 -54.5 -68t-93.5 -23q-53 0 -85 18t-49.5 50t-23.5 77t-6 98v279h65v-285q0 -43 4.5 -75.5t17 -54t34.5 -32.5t58 -11t58.5 11t36 33t18.5 55.5t5 77.5v281h67v-516h-42zM241 544v65l158 77v-65zM46 544v65l155 77l1 -65z" />
    <glyph glyph-name="Uogonek" unicode="&#x172;" horiz-adv-x="520" 
d="M316 -175q-45 0 -72 18t-27 52q0 22 10.5 46t36.5 53h-3q-58 0 -98.5 16.5t-66.5 51.5t-38 90t-12 132v356h68v-355q0 -60 8 -103t25.5 -70t45.5 -39.5t68 -12.5t67.5 12t45 39t25.5 69.5t8 103.5v356h69v-356q0 -122 -30.5 -189t-99.5 -90q-11 -10 -22 -22t-19.5 -24.5
t-14 -24.5t-5.5 -22q0 -28 35 -28h30v-59h-34z" />
    <glyph glyph-name="uogonek" unicode="&#x173;" horiz-adv-x="446" 
d="M370 -184q-45 0 -72 18t-27 52q0 25 15.5 52.5t49.5 61.5l24 24l-8 61q-20 -45 -54.5 -68t-93.5 -23q-53 0 -85 18t-49.5 50t-23.5 77t-6 98v279h65v-285q0 -43 4.5 -75.5t17 -54t34.5 -32.5t58 -11t58.5 11t36 33t18.5 55.5t5 77.5v281h67v-516q-11 -11 -22.5 -23.5
t-21 -25t-15.5 -25t-6 -22.5q0 -29 35 -29h30v-59h-34z" />
    <glyph glyph-name="Wcircumflex" unicode="&#x174;" horiz-adv-x="752" 
d="M590 0h-80l-134 540l-131 -540h-79l-157 640h71l127 -544l132 544h78l133 -544l126 544h69zM376 745l-175 -77v65l175 78l177 -78v-65z" />
    <glyph glyph-name="wcircumflex" unicode="&#x175;" horiz-adv-x="624" 
d="M341 516l106 -425l97 425h71l-128 -516h-73l-105 425l-104 -425h-70l-124 516h71l90 -421l104 421h65zM307 621l-175 -77v65l175 78l177 -78v-65z" />
    <glyph glyph-name="Ycircumflex" unicode="&#x176;" horiz-adv-x="476" 
d="M270 194v-194h-70v194l-196 446h75l157 -376l161 376h75zM236 745l-175 -77v65l175 78l177 -78v-65z" />
    <glyph glyph-name="ycircumflex" unicode="&#x177;" horiz-adv-x="451" 
d="M409 -1q0 -35 -6.5 -71.5t-26 -66t-56 -48t-96.5 -18.5q-53 0 -88.5 12.5t-57 35t-30.5 54t-9 69.5h66q0 -56 25 -83.5t94 -27.5q37 0 60 10.5t36 29.5t17.5 44t4.5 55v77q-21 -42 -52 -59.5t-81 -17.5q-53 0 -85.5 17.5t-50 49t-23.5 76t-6 98.5v281h66v-287
q0 -43 4.5 -75t17 -53.5t34.5 -32t58 -10.5t58.5 10.5t36 32.5t18.5 54.5t5 76.5v284h67v-517zM225 621l-175 -77v65l175 78l177 -78v-65z" />
    <glyph glyph-name="Ydieresis" unicode="&#x178;" horiz-adv-x="476" 
d="M270 194v-194h-70v194l-196 446h75l157 -376l161 376h75zM351 736q0 -47 -47 -47q-48 0 -48 47q0 28 11.5 38.5t36.5 10.5t36 -10.5t11 -38.5zM219 736q0 -47 -48 -47q-49 0 -49 47q0 28 11.5 38.5t37.5 10.5q25 0 36.5 -10.5t11.5 -38.5z" />
    <glyph glyph-name="Zacute" unicode="&#x179;" horiz-adv-x="436" 
d="M31 0v70l293 504h-292v66h367v-70l-299 -508h306v-62h-375zM40 669v64l351 87v-64z" />
    <glyph glyph-name="zacute" unicode="&#x17a;" horiz-adv-x="381" 
d="M27 0v64l247 390h-247v62h323v-64l-250 -390h256v-62h-329zM13 545v64l351 87v-64z" />
    <glyph glyph-name="Zdotaccent" unicode="&#x17b;" horiz-adv-x="436" 
d="M31 0v70l293 504h-292v66h367v-70l-299 -508h306v-62h-375zM267 735q0 -28 -9.5 -39.5t-45.5 -11.5q-37 0 -46 11.5t-9 39.5q0 29 9 41.5t46 12.5t46 -12.5t9 -41.5z" />
    <glyph glyph-name="zdotaccent" unicode="&#x17c;" horiz-adv-x="381" 
d="M27 0v64l247 390h-247v62h323v-64l-250 -390h256v-62h-329zM243 611q0 -28 -9.5 -39.5t-45.5 -11.5q-37 0 -46 11.5t-9 39.5q0 29 9 41.5t46 12.5t46 -12.5t9 -41.5z" />
    <glyph glyph-name="Zcaron" unicode="&#x17d;" horiz-adv-x="436" 
d="M31 0v70l293 504h-292v66h367v-70l-299 -508h306v-62h-375zM214 666l-176 79v65l176 -77l177 77v-65z" />
    <glyph glyph-name="zcaron" unicode="&#x17e;" horiz-adv-x="381" 
d="M27 0v64l247 390h-247v62h323v-64l-250 -390h256v-62h-329zM192 542l-176 79v65l176 -77l177 77v-65z" />
    <glyph glyph-name="florin" unicode="&#x192;" horiz-adv-x="267" 
d="M61 452h-54v45l54 17v46q0 79 35.5 116t122.5 37h16t16 -1v-62q-6 0 -12 0.5t-11 0.5q-58 0 -78.5 -21t-20.5 -71v-43h122v-64h-125v-523q0 -65 -26 -97.5t-94 -32.5q-8 0 -15.5 0.5t-16.5 1.5v61q6 -1 12 -1h11q38 0 51 16t13 52v523z" />
    <glyph glyph-name="uni0218" unicode="&#x218;" horiz-adv-x="505" 
d="M467 184q0 -32 -9 -65.5t-32.5 -61t-63.5 -45.5t-101 -18q-62 0 -104.5 16t-69.5 46t-39 71.5t-12 92.5h68q2 -75 38 -117t117 -42q40 0 67 9.5t43.5 25.5t23.5 37t7 44q1 33 -13.5 54t-38.5 34.5t-55.5 22t-64 17t-64 19t-56.5 27.5t-40.5 43.5t-15.5 66.5q-1 83 49 134
t151 51q100 0 154.5 -54t54.5 -160h-67q-2 42 -13.5 70.5t-30 46t-44 24.5t-55.5 7q-61 0 -97.5 -27.5t-34.5 -87.5q1 -38 27 -57.5t64.5 -32t83.5 -23t83.5 -29t64 -51t25.5 -88.5zM237 -213l13 90h-4q-20 0 -29.5 12.5t-9.5 34.5q0 25 12.5 35.5t35.5 10.5t34.5 -10.5
t11.5 -35.5q0 -3 -0.5 -8t-2.5 -19t-6.5 -39.5t-11.5 -70.5h-43z" />
    <glyph glyph-name="uni0219" unicode="&#x219;" horiz-adv-x="412" 
d="M387 141q0 -26 -9 -52t-29.5 -47t-53 -34.5t-80.5 -13.5q-99 0 -144 48t-47 143h65q2 -69 32.5 -99.5t92.5 -30.5q58 0 82.5 25t25.5 57q1 33 -20 51t-53 29t-70 19.5t-70.5 23.5t-54.5 40.5t-23 70.5q0 31 9 59t30 48t54 32t81 12q47 0 79.5 -13t53 -37t30 -57.5
t11.5 -73.5h-63q-5 63 -30.5 92t-83.5 29t-81.5 -24.5t-23.5 -62.5q1 -30 22.5 -45.5t54 -26.5t70 -20t69 -25t53 -43.5t21.5 -73.5zM185 -213l13 90h-4q-20 0 -29.5 12.5t-9.5 34.5q0 25 12.5 35.5t35.5 10.5t34.5 -10.5t11.5 -35.5q0 -3 -0.5 -8t-2.5 -19t-6.5 -39.5
t-11.5 -70.5h-43z" />
    <glyph glyph-name="uni021A" unicode="&#x21a;" horiz-adv-x="397" 
d="M232 575v-575h-66v575h-155v65h375v-65h-154zM182 -213l13 90h-4q-20 0 -29.5 12.5t-9.5 34.5q0 25 12.5 35.5t35.5 10.5t34.5 -10.5t11.5 -35.5q0 -3 -0.5 -8t-2.5 -19t-6.5 -39.5t-11.5 -70.5h-43z" />
    <glyph glyph-name="uni021B" unicode="&#x21b;" horiz-adv-x="270" 
d="M255 -3q-105 -6 -147.5 30.5t-42.5 122.5v301h-54v46l54 19v124h67v-124h123v-65h-123v-301q0 -27 5.5 -45t19.5 -28.5t37.5 -15t60.5 -2.5v-62zM127 -213l13 90h-4q-20 0 -29.5 12.5t-9.5 34.5q0 25 12.5 35.5t35.5 10.5t34.5 -10.5t11.5 -35.5q0 -3 -0.5 -8t-2.5 -19
t-6.5 -39.5t-11.5 -70.5h-43z" />
    <glyph glyph-name="circumflex" unicode="&#x2c6;" horiz-adv-x="431" 
d="M215 621l-175 -77v65l175 78l177 -78v-65z" />
    <glyph glyph-name="caron" unicode="&#x2c7;" horiz-adv-x="435" 
d="M217 542l-176 79v65l176 -77l177 77v-65z" />
    <glyph glyph-name="breve" unicode="&#x2d8;" horiz-adv-x="460" 
d="M382 710q-1 -44 -8.5 -72.5t-22 -45t-35.5 -22.5t-49 -6h-83q-55 0 -80 32.5t-27 113.5h60q1 -29 6 -46t12.5 -25.5t18 -10.5t22.5 -2h63q32 0 46 16.5t16 67.5h61v0z" />
    <glyph glyph-name="dotaccent" unicode="&#x2d9;" horiz-adv-x="439" 
d="M276 611q0 -28 -9.5 -39.5t-45.5 -11.5q-37 0 -46 11.5t-9 39.5q0 29 9 41.5t46 12.5t46 -12.5t9 -41.5z" />
    <glyph glyph-name="ring" unicode="&#x2da;" horiz-adv-x="439" 
d="M334 659q0 -55 -24.5 -82t-88.5 -27q-67 0 -90.5 27t-23.5 82t23.5 81.5t90.5 26.5q64 0 88.5 -26.5t24.5 -81.5zM276 659q0 35 -14 44t-41 9t-41.5 -9t-14.5 -44t14.5 -45t41.5 -10q26 0 40.5 10t14.5 45z" />
    <glyph glyph-name="ogonek" unicode="&#x2db;" horiz-adv-x="190" 
d="M127 -184q-45 0 -71.5 18t-26.5 52q0 25 15.5 53t49.5 61h67q-11 -11 -22.5 -23.5t-21 -25t-15.5 -25t-6 -22.5q0 -29 35 -29h30v-59h-34z" />
    <glyph glyph-name="tilde" unicode="&#x2dc;" horiz-adv-x="460" 
d="M429 677q0 -26 -3.5 -49t-14.5 -40t-31.5 -26.5t-54.5 -9.5q-26 0 -53.5 14.5t-52 31.5t-45.5 31.5t-34 14.5q-27 0 -33.5 -23.5t-7.5 -61.5h-63q-2 24 0.5 50t13 48.5t32 37t59.5 14.5q25 0 50.5 -14.5t48.5 -31.5t44 -31.5t38 -14.5q25 0 34 15.5t9 51.5v20h62
q2 -14 2 -19.5v-7.5z" />
    <glyph glyph-name="hungarumlaut" unicode="&#x2dd;" horiz-adv-x="431" 
d="M236 544v65l158 77v-65zM41 544v65l155 77l1 -65z" />
    <glyph glyph-name="pi" unicode="&#x3c0;" horiz-adv-x="704" 
d="M666 320q0 -87 -15 -162.5t-51 -131t-96.5 -87.5t-151.5 -32t-151.5 32t-96.5 88t-50.5 131.5t-14.5 162.5q0 86 15 161t51 130.5t96 87.5t151 32t151.5 -32t96.5 -87.5t51 -130.5t15 -162zM605 320q0 80 -13 145t-42.5 110.5t-78 70.5t-119.5 25q-70 0 -118 -25
t-77.5 -71t-42.5 -111t-13 -144q0 -80 13 -145t42 -111t77 -70.5t119 -24.5q70 0 118.5 24.5t78.5 70.5t43 110.5t13 145.5zM276 254v-149h-59v426h133q52 0 82.5 -14t46 -35t19.5 -45.5t4 -45.5q0 -29 -7.5 -53.5t-25 -43.5t-45.5 -29.5t-70 -10.5h-78zM444 391q0 15 -3 31
t-12.5 29t-28 21t-49.5 8h-75v-175h78q31 0 49 7.5t27 20t11.5 28t2.5 30.5z" />
    <glyph glyph-name="uni1E02" unicode="&#x1e02;" horiz-adv-x="476" 
d="M54 640h202q50 0 84.5 -13t55 -35.5t29 -53.5t7.5 -66q0 -19 -3 -38t-11.5 -36.5t-24.5 -33.5t-41 -28q28 -13 46.5 -31t30 -38t16 -42t4.5 -44q0 -35 -8 -68t-29.5 -58t-59 -40t-95.5 -15h-203v640zM366 462q0 26 -5 47t-17.5 35.5t-33 22.5t-51.5 8h-137v-219h148
q30 0 48.5 9t29 24t14.5 34t4 39zM379 181q0 24 -4.5 45t-16.5 36.5t-32.5 24.5t-51.5 9h-152v-232h137q38 0 61.5 8.5t36.5 24t17.5 37t4.5 47.5zM281 735q0 -28 -9.5 -39.5t-45.5 -11.5q-37 0 -46 11.5t-9 39.5q0 29 9 41.5t46 12.5t46 -12.5t9 -41.5z" />
    <glyph glyph-name="uni1E03" unicode="&#x1e03;" horiz-adv-x="456" 
d="M44 707h66v-271q22 44 54.5 65t86.5 21t88 -21.5t53.5 -58t27 -84t7.5 -99.5q0 -53 -7.5 -100.5t-27.5 -84.5t-54 -58.5t-87 -21.5q-62 0 -98 24t-57 69l-11 -87h-41v707zM360 259q0 46 -5.5 82.5t-19.5 62.5t-38.5 40t-62.5 14q-39 0 -63.5 -14t-38 -40.5t-18.5 -63
t-5 -81.5q0 -48 5.5 -85.5t19.5 -64t39 -40t63 -13.5q37 0 61.5 14t38 40t19 63.5t5.5 85.5zM303 611q0 -28 -9.5 -39.5t-45.5 -11.5q-37 0 -46 11.5t-9 39.5q0 29 9 41.5t46 12.5t46 -12.5t9 -41.5z" />
    <glyph glyph-name="uni1E0A" unicode="&#x1e0a;" horiz-adv-x="504" 
d="M54 640h190q113 0 167.5 -82.5t54.5 -233.5q0 -75 -14.5 -135t-43.5 -102t-72 -64.5t-101 -22.5h-181v640zM400 324q0 70 -11 118.5t-32.5 78t-53.5 42.5t-73 13h-108v-512h103q42 0 74.5 14.5t55 45.5t34 80.5t11.5 119.5zM292 735q0 -28 -9.5 -39.5t-45.5 -11.5
q-37 0 -46 11.5t-9 39.5q0 29 9 41.5t46 12.5t46 -12.5t9 -41.5z" />
    <glyph glyph-name="uni1E0B" unicode="&#x1e0b;" horiz-adv-x="451" 
d="M409 0h-43l-10 87q-22 -45 -57 -69t-98 -24q-53 0 -87 21.5t-54 58.5t-27.5 84.5t-7.5 100.5q0 52 7 99.5t26.5 84t53.5 58t88 21.5t86.5 -21t55.5 -65v271h67v-707zM344 259q0 44 -5 80.5t-19 63t-39 41t-64 14.5q-38 0 -62 -14t-38 -40t-19.5 -62.5t-5.5 -82.5
q0 -47 5.5 -84.5t19.5 -63.5t38 -40t61 -14q39 0 63.5 13.5t39 39.5t20 63.5t5.5 85.5zM255 611q0 -28 -9.5 -39.5t-45.5 -11.5q-37 0 -46 11.5t-9 39.5q0 29 9 41.5t46 12.5t46 -12.5t9 -41.5z" />
    <glyph glyph-name="uni1E1E" unicode="&#x1e1e;" horiz-adv-x="409" 
d="M122 575v-216h249v-64h-249v-295h-68v640h335v-65h-267zM291 735q0 -28 -9.5 -39.5t-45.5 -11.5q-37 0 -46 11.5t-9 39.5q0 29 9 41.5t46 12.5t46 -12.5t9 -41.5z" />
    <glyph glyph-name="uni1E1F" unicode="&#x1e1f;" horiz-adv-x="260" 
d="M125 452v-452h-65v452h-54v45l54 17v46q0 86 42.5 122.5t147.5 29.5v-62q-37 2 -61 -2t-38 -14.5t-19.5 -29t-5.5 -45.5v-43h124v-64h-125zM225 792q0 -28 -9.5 -39.5t-45.5 -11.5q-37 0 -46 11.5t-9 39.5q0 29 9 41.5t46 12.5t46 -12.5t9 -41.5z" />
    <glyph glyph-name="uni1E40" unicode="&#x1e40;" horiz-adv-x="679" 
d="M557 0v534l-183 -534h-68l-184 534v-534h-68v640h97l189 -551l186 551h100v-640h-69zM395 735q0 -28 -9.5 -39.5t-45.5 -11.5q-37 0 -46 11.5t-9 39.5q0 29 9 41.5t46 12.5t46 -12.5t9 -41.5z" />
    <glyph glyph-name="uni1E41" unicode="&#x1e41;" horiz-adv-x="640" 
d="M535 0v304q0 74 -18 113.5t-70 39.5q-51 0 -71 -39t-20 -114v-304h-66v304q0 74 -18.5 113.5t-70.5 39.5q-51 0 -71 -39t-20 -114v-304h-66v516h35l16 -72q18 36 47 57t77 21q46 0 73 -22t44 -73q17 47 47 71t82 24q43 0 70 -17.5t42 -47.5t20 -70.5t5 -86.5v-300h-67z
M385 611q0 -28 -9.5 -39.5t-45.5 -11.5q-37 0 -46 11.5t-9 39.5q0 29 9 41.5t46 12.5t46 -12.5t9 -41.5z" />
    <glyph glyph-name="uni1E56" unicode="&#x1e56;" horiz-adv-x="474" 
d="M439 430q0 -32 -4 -67.5t-23.5 -66.5t-59.5 -51t-112 -20h-118v-225h-68v640h180q72 0 113 -21t61.5 -52.5t25.5 -68.5t5 -68zM371 430q0 26 -4 52t-18.5 46.5t-41 33.5t-71.5 13h-114v-288h117q45 0 71 12.5t39.5 32.5t17.5 46t4 52zM288 735q0 -28 -9.5 -39.5
t-45.5 -11.5q-37 0 -46 11.5t-9 39.5q0 29 9 41.5t46 12.5t46 -12.5t9 -41.5z" />
    <glyph glyph-name="uni1E57" unicode="&#x1e57;" horiz-adv-x="456" 
d="M44 516h41l11 -87q21 45 57 69t98 24q53 0 87 -22t54 -58.5t27.5 -85t7.5 -100.5t-7.5 -99.5t-27 -83.5t-53.5 -57.5t-88 -21.5t-86.5 20t-54.5 65v-279h-66v716zM360 256q0 47 -5.5 85t-19 64.5t-38 41t-61.5 14.5q-38 0 -63 -14.5t-39 -41t-19.5 -64.5t-5.5 -85
q0 -45 5 -81.5t18.5 -62.5t38 -40t63.5 -14q38 0 62.5 14t38.5 39.5t19.5 62t5.5 82.5zM292 611q0 -28 -9.5 -39.5t-45.5 -11.5q-37 0 -46 11.5t-9 39.5q0 29 9 41.5t46 12.5t46 -12.5t9 -41.5z" />
    <glyph glyph-name="uni1E60" unicode="&#x1e60;" horiz-adv-x="505" 
d="M467 184q0 -32 -9 -65.5t-32.5 -61t-63.5 -45.5t-101 -18q-62 0 -104.5 16t-69.5 46t-39 71.5t-12 92.5h68q2 -75 38 -117t117 -42q40 0 67 9.5t43.5 25.5t23.5 37t7 44q1 33 -13.5 54t-38.5 34.5t-55.5 22t-64 17t-64 19t-56.5 27.5t-40.5 43.5t-15.5 66.5q-1 83 49 134
t151 51q100 0 154.5 -54t54.5 -160h-67q-2 42 -13.5 70.5t-30 46t-44 24.5t-55.5 7q-61 0 -97.5 -27.5t-34.5 -87.5q1 -38 27 -57.5t64.5 -32t83.5 -23t83.5 -29t64 -51t25.5 -88.5zM309 735q0 -28 -9.5 -39.5t-45.5 -11.5q-37 0 -46 11.5t-9 39.5q0 29 9 41.5t46 12.5
t46 -12.5t9 -41.5z" />
    <glyph glyph-name="uni1E61" unicode="&#x1e61;" horiz-adv-x="412" 
d="M387 141q0 -26 -9 -52t-29.5 -47t-53 -34.5t-80.5 -13.5q-99 0 -144 48t-47 143h65q2 -69 32.5 -99.5t92.5 -30.5q58 0 82.5 25t25.5 57q1 33 -20 51t-53 29t-70 19.5t-70.5 23.5t-54.5 40.5t-23 70.5q0 31 9 59t30 48t54 32t81 12q47 0 79.5 -13t53 -37t30 -57.5
t11.5 -73.5h-63q-5 63 -30.5 92t-83.5 29t-81.5 -24.5t-23.5 -62.5q1 -30 22.5 -45.5t54 -26.5t70 -20t69 -25t53 -43.5t21.5 -73.5zM262 611q0 -28 -9.5 -39.5t-45.5 -11.5q-37 0 -46 11.5t-9 39.5q0 29 9 41.5t46 12.5t46 -12.5t9 -41.5z" />
    <glyph glyph-name="uni1E6A" unicode="&#x1e6a;" horiz-adv-x="397" 
d="M232 575v-575h-66v575h-155v65h375v-65h-154zM253 735q0 -28 -9.5 -39.5t-45.5 -11.5q-37 0 -46 11.5t-9 39.5q0 29 9 41.5t46 12.5t46 -12.5t9 -41.5z" />
    <glyph glyph-name="uni1E6B" unicode="&#x1e6b;" horiz-adv-x="270" 
d="M255 -3q-105 -6 -147.5 30.5t-42.5 122.5v301h-54v46l54 19v124h67v-124h123v-65h-123v-301q0 -27 5.5 -45t19.5 -28.5t37.5 -15t60.5 -2.5v-62zM154 735q0 -28 -9.5 -39.5t-45.5 -11.5q-37 0 -46 11.5t-9 39.5q0 29 9 41.5t46 12.5t46 -12.5t9 -41.5z" />
    <glyph glyph-name="Wgrave" unicode="&#x1e80;" horiz-adv-x="752" 
d="M590 0h-80l-134 540l-131 -540h-79l-157 640h71l127 -544l132 544h78l133 -544l126 544h69zM201 751v60l352 -82v-64z" />
    <glyph glyph-name="wgrave" unicode="&#x1e81;" horiz-adv-x="624" 
d="M341 516l106 -425l97 425h71l-128 -516h-73l-105 425l-104 -425h-70l-124 516h71l90 -421l104 421h65zM133 627v60l352 -82v-64z" />
    <glyph glyph-name="Wacute" unicode="&#x1e82;" horiz-adv-x="752" 
d="M590 0h-80l-134 540l-131 -540h-79l-157 640h71l127 -544l132 544h78l133 -544l126 544h69zM201 669v64l351 87v-64z" />
    <glyph glyph-name="wacute" unicode="&#x1e83;" horiz-adv-x="624" 
d="M341 516l106 -425l97 425h71l-128 -516h-73l-105 425l-104 -425h-70l-124 516h71l90 -421l104 421h65zM133 545v64l351 87v-64z" />
    <glyph glyph-name="Wdieresis" unicode="&#x1e84;" horiz-adv-x="752" 
d="M590 0h-80l-134 540l-131 -540h-79l-157 640h71l127 -544l132 544h78l133 -544l126 544h69zM491 736q0 -47 -47 -47q-48 0 -48 47q0 28 11.5 38.5t36.5 10.5t36 -10.5t11 -38.5zM359 736q0 -47 -48 -47q-49 0 -49 47q0 28 11.5 38.5t37.5 10.5q25 0 36.5 -10.5
t11.5 -38.5z" />
    <glyph glyph-name="wdieresis" unicode="&#x1e85;" horiz-adv-x="624" 
d="M341 516l106 -425l97 425h71l-128 -516h-73l-105 425l-104 -425h-70l-124 516h71l90 -421l104 421h65zM423 612q0 -47 -47 -47q-48 0 -48 47q0 28 11.5 38.5t36.5 10.5t36 -10.5t11 -38.5zM291 612q0 -47 -48 -47q-49 0 -49 47q0 28 11.5 38.5t37.5 10.5q25 0 36.5 -10.5
t11.5 -38.5z" />
    <glyph glyph-name="Ygrave" unicode="&#x1ef2;" horiz-adv-x="476" 
d="M270 194v-194h-70v194l-196 446h75l157 -376l161 376h75zM62 751v60l352 -82v-64z" />
    <glyph glyph-name="ygrave" unicode="&#x1ef3;" horiz-adv-x="451" 
d="M409 -1q0 -35 -6.5 -71.5t-26 -66t-56 -48t-96.5 -18.5q-53 0 -88.5 12.5t-57 35t-30.5 54t-9 69.5h66q0 -56 25 -83.5t94 -27.5q37 0 60 10.5t36 29.5t17.5 44t4.5 55v77q-21 -42 -52 -59.5t-81 -17.5q-53 0 -85.5 17.5t-50 49t-23.5 76t-6 98.5v281h66v-287
q0 -43 4.5 -75t17 -53.5t34.5 -32t58 -10.5t58.5 10.5t36 32.5t18.5 54.5t5 76.5v284h67v-517zM48 627v60l352 -82v-64z" />
    <glyph glyph-name="endash" unicode="&#x2013;" horiz-adv-x="497" 
d="M36 227v63h425v-63h-425z" />
    <glyph glyph-name="emdash" unicode="&#x2014;" horiz-adv-x="631" 
d="M36 227v63h560v-63h-560z" />
    <glyph glyph-name="quoteleft" unicode="&#x2018;" horiz-adv-x="151" 
d="M95 640l-16 -128h7q21 0 32 -14t11 -37q0 -28 -13.5 -39.5t-39.5 -11.5t-38.5 11.5t-12.5 39.5q0 4 1 12t3.5 27t7 52.5t12.5 87.5h46z" />
    <glyph glyph-name="quoteright" unicode="&#x2019;" horiz-adv-x="152" 
d="M59 416l16 128h-8q-20 0 -31 14t-11 37q0 28 13.5 39.5t38.5 11.5q26 0 39 -11.5t13 -39.5q0 -4 -1 -12t-3.5 -27t-7.5 -52.5t-12 -87.5h-46z" />
    <glyph glyph-name="quotesinglbase" unicode="&#x201a;" horiz-adv-x="151" 
d="M59 -133l16 128h-8q-20 0 -31 14t-11 37q0 29 13.5 40t38.5 11q26 0 39 -11t13 -40q0 -4 -1 -12t-3.5 -27t-7.5 -52.5t-12 -87.5h-46z" />
    <glyph glyph-name="quotedblleft" unicode="&#x201c;" horiz-adv-x="284" 
d="M96 640l-16 -128h7q21 0 32 -14t11 -37q0 -28 -13.5 -39.5t-39.5 -11.5q-25 0 -38 11.5t-13 39.5q0 4 1 12t3.5 27t7 52.5t12.5 87.5h46zM225 640l-16 -128h7q21 0 32 -14t11 -37q0 -28 -13.5 -39.5t-39.5 -11.5t-38.5 11.5t-12.5 39.5q0 4 1 12t3.5 27t7 52.5t12.5 87.5
h46z" />
    <glyph glyph-name="quotedblright" unicode="&#x201d;" horiz-adv-x="281" 
d="M189 416l16 128h-8q-20 0 -31 14t-11 37q0 28 13.5 39.5t38.5 11.5q26 0 39 -11.5t13 -39.5q0 -4 -1 -12t-3.5 -27t-7.5 -52.5t-12 -87.5h-46zM60 416l16 128h-7q-21 0 -32 14t-11 37q0 28 13.5 39.5t39.5 11.5q25 0 38 -11.5t13 -39.5q0 -4 -1 -12t-3.5 -27t-7.5 -52.5
t-12 -87.5h-46z" />
    <glyph glyph-name="quotedblbase" unicode="&#x201e;" horiz-adv-x="281" 
d="M189 -133l16 128h-8q-20 0 -31 14t-11 37q0 29 13.5 40t38.5 11q26 0 39 -11t13 -40q0 -4 -1 -12t-3.5 -27t-7.5 -52.5t-12 -87.5h-46zM60 -133l16 128h-7q-21 0 -32 14t-11 37q0 29 13.5 40t39.5 11q25 0 38 -11t13 -40q0 -4 -1 -12t-3.5 -27t-7.5 -52.5t-12 -87.5h-46z
" />
    <glyph glyph-name="dagger" unicode="&#x2020;" horiz-adv-x="321" 
d="M195 432v-500h-69v500h-100v62h100v146h69v-145h101v-63h-101z" />
    <glyph glyph-name="daggerdbl" unicode="&#x2021;" horiz-adv-x="331" 
d="M201 291v-359h-70v359h-100v63h100v78h-100v62h100v146h70v-145h100v-63h-100v-78h100v-63h-100z" />
    <glyph glyph-name="bullet" unicode="&#x2022;" horiz-adv-x="636" 
d="M592 319q0 -63 -11 -121.5t-41.5 -103.5t-84 -72.5t-138.5 -27.5q-84 0 -137 27.5t-83 72.5t-41 104t-11 122t11 122t41 104t83 72.5t137 27.5q85 0 138.5 -27.5t84 -73t41.5 -104.5t11 -122z" />
    <glyph glyph-name="ellipsis" unicode="&#x2026;" horiz-adv-x="429" 
d="M404 47q0 -29 -13 -41t-39 -12q-25 0 -38 12t-13 41q0 28 13 39.5t38 11.5q26 0 39 -11.5t13 -39.5zM266 47q0 -29 -12.5 -41t-38.5 -12t-38.5 12t-12.5 41q0 28 12.5 39.5t38.5 11.5t38.5 -11.5t12.5 -39.5zM129 47q0 -29 -13 -41t-39 -12t-39 12t-13 41q0 28 13.5 39.5
t38.5 11.5q26 0 39 -11.5t13 -39.5z" />
    <glyph glyph-name="perthousand" unicode="&#x2030;" horiz-adv-x="1331" 
d="M1297 227q0 -44 -7.5 -86t-27 -74.5t-53.5 -52.5t-88 -20t-88.5 20t-54 53t-26.5 74.5t-7 85.5q0 43 7 84.5t26.5 74.5t54 53t88.5 20t88 -20t53.5 -53t27 -74.5t7.5 -84.5zM911 227q0 -44 -7.5 -86t-27.5 -74.5t-54 -52.5t-88 -20t-88 20t-53.5 53t-26.5 74.5t-7 85.5
q0 43 7 84.5t26.5 74.5t54 53t88.5 20q53 0 87.5 -20t54 -53t27 -74.5t7.5 -84.5zM430 0h-68l148 576h-194q44 -38 57 -80t13 -87q0 -44 -7 -86t-26.5 -74.5t-54 -52.5t-89.5 -20q-54 0 -88.5 20t-53.5 52.5t-26 74.5t-7 86q0 43 7 84.5t27.5 74t57 52.5t95.5 20h371z
M1237 227q0 36 -5.5 66.5t-19 53.5t-35.5 36t-56 13q-33 0 -55.5 -13t-36 -35.5t-19 -53.5t-5.5 -67t5.5 -67t19 -53.5t36 -35.5t55.5 -13t55.5 12.5t36 35t19 53.5t5.5 68zM851 227q0 36 -5.5 66.5t-19 53.5t-35.5 36t-56 13t-56 -13t-35.5 -35.5t-19 -53.5t-5.5 -67
t5.5 -67t18.5 -53.5t35.5 -35.5t55.5 -13q34 0 56.5 12.5t36 35t19 53.5t5.5 68zM326 409q0 36 -5.5 66.5t-19 53t-35.5 35t-56 12.5t-56 -12.5t-35.5 -35t-19 -53t-5.5 -66.5q0 -37 5.5 -68t18.5 -53.5t35.5 -35t55.5 -12.5q34 0 56.5 12.5t36 35t19 53.5t5.5 68z" />
    <glyph glyph-name="guilsinglleft" unicode="&#x2039;" horiz-adv-x="199" 
d="M92 259l82 -213h-65l-83 213l83 214h65z" />
    <glyph glyph-name="guilsinglright" unicode="&#x203a;" horiz-adv-x="199" 
d="M91 46h-65l81 213l-81 214h65l83 -214z" />
    <glyph glyph-name="Euro" unicode="&#x20ac;" horiz-adv-x="565" 
d="M464 392q0 86 -42 137.5t-120 51.5q-42 0 -71.5 -16t-49 -45.5t-29.5 -71.5t-13 -94h230v-64h-232q3 -53 13.5 -95.5t30 -72.5t49.5 -46.5t72 -16.5q78 0 120 50.5t42 139.5h68q0 -54 -13.5 -100.5t-41.5 -81t-71.5 -54t-103.5 -19.5q-65 0 -108 23t-70 63.5t-39.5 94
t-15.5 115.5h-58v64h59q3 61 15.5 114t39.5 92.5t70 62.5t107 23q60 0 103.5 -20t72 -54.5t42.5 -81t14 -98.5h-70z" />
    <glyph glyph-name="trademark" unicode="&#x2122;" horiz-adv-x="754" 
d="M704 640v-445h-59v341l-116 -341h-50l-117 342v-342h-58v445h82l118 -361l117 361h83zM181 582v-387h-61v386h-101v59h262v-58h-100z" />
    <glyph glyph-name="partialdiff" unicode="&#x2202;" horiz-adv-x="459" 
d="M190 643q19 3 42 3q54 0 91.5 -18t61.5 -56.5t35 -99.5t11 -148q0 -71 -7 -131.5t-28 -104.5t-61 -69t-106 -25q-54 0 -91.5 18t-60 48t-32.5 69t-10 80q0 102 49 151t135 49q58 0 93 -29t52 -84q1 70 -4 123.5t-20 90t-41 55t-67 18.5h-17t-16 -2zM101 209
q0 -41 10 -69.5t27 -46.5t40.5 -26.5t50.5 -8.5q62 0 94.5 40t32.5 111q0 31 -6.5 56t-21.5 43t-38.5 28t-57.5 10q-37 0 -62 -10t-40.5 -28t-22 -43t-6.5 -56z" />
    <glyph glyph-name="minus" unicode="&#x2212;" horiz-adv-x="439" 
d="M35 226v64h376v-64h-376z" />
    <glyph glyph-name="notequal" unicode="&#x2260;" horiz-adv-x="497" 
d="M325 397h136v-63h-156l-48 -148h204v-62h-224l-38 -124h-65l38 124h-136v62h156l48 148h-204v63h224l37 119h65z" />
    <glyph glyph-name="lozenge" unicode="&#x25ca;" horiz-adv-x="1030" 
d="M969 286q9 -6 10.5 -13.5t-2 -13.5t-10.5 -8t-16 3l-51 25l-32 -69q13 -7 21.5 -19.5t12 -27t1 -30t-11.5 -27.5q-14 -20 -35 -29t-47 3q-8 -16 -14 -26.5t-9 -17.5l-6 -12q-10 -21 -27 -9l-19 9q-8 5 -10.5 12.5t2.5 15.5l27 53q-1 0 -3 1t-16 10q-9 5 -12 12.5
t-1.5 14.5t7 12.5t13.5 6.5q-9 6 -10 15t3.5 16.5t12.5 11t18 -0.5q-3 7 -2 14.5t5.5 13.5t12 8t17.5 -1l15 -7l35 72l-38 18q-9 4 -12 11t-1.5 13t7.5 9.5t16 2.5l65 -6zM850 541q10 -1 14.5 -7.5t3.5 -14t-6.5 -13.5t-15.5 -6q-46 4 -71 6t-36 3l-15 1q24 -28 38 -63
t14 -74q0 -43 -16.5 -81t-45 -66.5t-66 -45t-80.5 -16.5t-81 16.5t-66 45t-44.5 66.5t-16.5 81q0 41 15 77.5t41 64.5t61 45t75 20l26 5q20 4 60.5 11.5t117.5 21.5q10 2 16 -3.5t7 -13t-3 -15t-14 -9.5l-102 -18l6 -2q1 -1 2 -1l23 -2q17 -2 53.5 -5t105.5 -8zM304 255
q6 -29 0 -58t-26 -53q-17 -21 -39.5 -33t-47 -14.5t-48.5 4t-45 23.5t-32.5 39.5t-14.5 47t4 48.5t24 45t39.5 33.5t47 15t49 -4.5t44.5 -23q8 -5 13.5 -11t10.5 -13h58zM693 457q8 4 9.5 11.5t-1.5 14t-10 9.5t-14 -1l-79 -43q-14 -7 -13.5 -16.5t14.5 -15.5l79 -34
q7 -4 13.5 -1t9.5 9t1 13t-10 11l-45 19zM534 474q-16 19 -40 21t-44 -12q-20 -17 -21 -41t14 -44q16 -19 40 -21t44 14q19 16 21 40t-14 43zM655 311q9 0 13.5 5.5t4.5 12t-4.5 12t-13.5 5.5h-180q-9 0 -15 -4t-6 -13q0 -27 10.5 -45.5t22.5 -29.5q10 -8 23 -15
q11 -6 26.5 -11t33.5 -6q9 -1 14 4.5t5.5 12.5t-3.5 13t-13 6q-14 0 -25 3.5t-19 8.5q-10 5 -17 11q-13 13 -17 30h160zM279 214q-4 4 -9 4q-9 0 -9 -8q0 -6 7 -8l3 -1q2 -1 2 -3t-3 -2q-4 0 -5 3l-5 -4q4 -5 10 -5q10 0 10 9q0 5 -7 7l-3 1q-2 1 -2 3t2 2h1q1 0 3 -2z
M255 207h-11v4h11v6h-18v-26h18v7h-11v4h11v5zM205 256h-7v-12v-1l-21 16v-30h7v14v1l21 -15v27zM231 218h-8v-10h-13v10h-7v-27h7v11h13v-11h8v27zM137 282q0 8 -5.5 12.5t-13.5 4.5q-19 0 -19 -17q0 -8 5.5 -12t13.5 -4q19 0 19 16zM157 258l-16 -26l7 -3l2 5h14l3 -5l6 3
zM197 207h-17v-5h9v-4q-1 0 -2 -0.5t-3 -0.5q-8 0 -8 7t8 7q4 0 7 -2l4 5q-7 4 -12 4q-6 0 -10.5 -4.5t-4.5 -9.5q0 -13 16 -13q8 0 13 4v12zM137 256h-8v-27h8v27zM119 241q1 2 2 3t1 4q0 8 -10 8h-10v-27h7v10h3l1 -1l7 -9l6 5zM164 218h-8v-14q0 -6 -6 -6q-7 0 -7 6v14
h-8v-14q0 -14 15 -14q14 0 14 14v14zM194 170q0 9 -10 9q-9 0 -9 -9v-10q0 -9 9 -9q10 0 10 9v10zM169 170q0 9 -10 9q-9 0 -9 -9v-10q0 -9 9 -9q10 0 10 9v10zM129 218h-7v-10h-13v10h-7v-27h7v11h13v-11h7v27zM144 170q0 4 -3 6.5t-6 2.5q-9 0 -9 -9v-10q0 -9 9 -9
q3 0 6 2.5t3 6.5v10zM120 158h-9l5 6q3 3 3 6q0 9 -10 9q-4 0 -8 -4l-1 -2l5 -4q3 3 4 3q2 0 2.5 -1.5t-0.5 -2.5l-12 -17h21v7zM506 445q0 -9 -6 -15t-16 -6q-9 0 -15.5 7t-6.5 16t7 15.5t17 6.5q9 -1 15 -8t5 -16zM131 282q0 -11 -13 -11t-13 11q0 12 13 12t13 -12z
M153 240l4 6l3 -6h-7zM114 248q0 -3 -3 -3h-2v5h2q3 0 3 -2zM186 160q0 -2 -2 -2q-1 0 -1 2v10q0 2 1 2q2 0 2 -2v-10zM162 160q0 -2 -3 -2q-2 0 -2 2v10q0 2 2 2q3 0 3 -2v-10zM137 160q0 -1 -1 -1t-1 -1q-3 0 -3 2v10q0 2 3 2h1l1 -2v-10zM122 281q-1 -2 -4 -2q-4 0 -4 3
q0 4 4 4q2 0 4 -2l4 2q-3 5 -8 5q-10 0 -10 -9q0 -8 10 -8q4 0 8 4z" />
    <glyph glyph-name="uniFB01" unicode="&#xfb01;" horiz-adv-x="330" 
d="M219 0v453h-94v-453h-65v453h-54v46l54 15v46q0 40 8 68.5t27 47.5t50.5 28t78.5 9h12.5h17.5t17.5 -0.5t13.5 -0.5v-62h-10.5t-15.5 0.5t-15 0.5h-10q-33 0 -54 -5t-33 -16t-16.5 -28.5t-4.5 -42.5v-43h159v-516h-66z" />
    <glyph glyph-name="uniFB02" unicode="&#xfb02;" horiz-adv-x="330" 
d="M219 0v453h-93v-453h-66v453h-54v47l54 15v45q0 87 32 120t97 33h20.5t26 -0.5t26.5 -1t23 -1.5v-710h-66zM219 649q-31 0 -49.5 -4t-28 -14t-12.5 -27.5t-3 -43.5v-44h93v133z" />
    <glyph glyph-name="glyph148" horiz-adv-x="152" 
d="M59 416l16 128h-8q-20 0 -31 14t-11 37q0 28 13.5 39.5t38.5 11.5q26 0 39 -11.5t13 -39.5q0 -4 -1 -12t-3.5 -27t-7.5 -52.5t-12 -87.5h-46z" />
    <glyph glyph-name="glyph155" horiz-adv-x="151" 
d="M72 -213l13 90h-4q-20 0 -29.5 12.5t-9.5 34.5q0 25 12.5 35.5t35.5 10.5t34.5 -10.5t11.5 -35.5q0 -3 -0.5 -8t-2.5 -19t-6.5 -39.5t-11.5 -70.5h-43z" />
    <glyph glyph-name="glyph367" horiz-adv-x="657" 
d="M572 398q1 -1 3.5 -3t7.5 -2q4 0 8 4l10 -8q-8 -5 -11 -6t-7 -1q-25 0 -25 22q0 8 7 14.5t18 6.5q9 0 16.5 -6.5t7.5 -20.5h-35zM551 394q-7 -8 -12 -10t-10 -2q-10 0 -17 6t-7 16q0 8 7 14.5t17 6.5q5 0 9.5 -2t12.5 -9l-10 -9q-8 7 -12 7q-9 0 -9 -8q0 -10 9 -10
q2 0 12 8zM496 436q1 -2 -1.5 -4.5t-4.5 -3.5q-9 0 -9 7q-2 7 6 7q7 2 9 -6zM322 675q-1 -31 -23 -53t-53 -22q-32 0 -53.5 22t-20.5 53q0 31 22 53t53 22q32 0 53.5 -22t21.5 -53zM481 382v42h14v-42h-14zM449 379l-25 40l12 6l3.5 -7t3.5 -5q2 -3 3 -4l3 -5q1 1 1 1.5
t1 1.5q0 1 1 2t3 4q2 2 3.5 4.5t4.5 6.5l11 -6zM386 398q2 -1 3.5 -3t6.5 -2q4 0 9 4l10 -8q-8 -5 -11 -6t-8 -1q-11 0 -18 6t-7 16q0 8 7 14.5t18 6.5t17.5 -6.5t6.5 -20.5h-34zM349 382v3q-2 -2 -5.5 -2.5t-6.5 -0.5q-9 0 -15.5 6t-6.5 16q0 9 6.5 15t15.5 6q3 0 6.5 -1
t5.5 -3v15h14v-54h-14zM418 307q-34 -4 -50.5 -9t-24 -15.5t-10 -30t-7.5 -53.5q-7 -38 -12 -75q-5 -32 -10 -66t-9 -58q-43 -1 -76 19t-56 45q-27 28 -47 65q-20 39 -33.5 84t-21.5 85t-9.5 68.5t3.5 34.5q4 3 9 6q5 2 11.5 3t15.5 -2q-5 -50 -7 -85t1 -69l45 6
q-2 10 -4.5 30t-5 44.5t-4 51t-1 49.5t3 40.5t8.5 23.5q4 3 9 6q5 2 11.5 2.5t15.5 -3.5q-5 -29 -9 -61.5t-7 -65t-4 -62.5t-1 -53l45 8q-1 6 -1 28.5t1 53t2.5 65.5t4.5 65.5t7.5 53t11.5 28.5q5 4 10 6t11.5 2t15.5 -4q-9 -37 -18 -82.5t-15.5 -88.5t-11 -77t-4.5 -49
l40 6q9 91 17 143.5t14 80.5q7 32 13 43q5 5 11 8q5 2 12 2t17 -6q-24 -60 -38.5 -112.5t-22.5 -91.5q-10 -47 -14 -85q-6 -64 2.5 -89t21 -26t25 16.5t15.5 39.5q4 33 -2 59t-10.5 43.5t-1 26.5t27.5 8q10 -1 24 -3.5t27.5 -6t24.5 -9t14 -11.5zM592 409q0 1 -2.5 3t-6.5 2
q-5 0 -7.5 -2t-3.5 -3h20zM287 676q2 16 -9 27t-28 11h-29l-9 -77h28q18 0 31.5 11t15.5 28zM406 409l-3 3t-7 2t-6.5 -2t-3.5 -3h20zM349 404q0 3 -3 5.5t-6 2.5q-11 0 -11 -8q0 -10 11 -10q3 0 6 3t3 7zM266 676q-1 -9 -8 -14.5t-17 -5.5h-6l5 39h6q10 0 16 -5.5t4 -13.5z
" />
    <glyph glyph-name="f.aalt" horiz-adv-x="325" 
d="M274 562q-2 28 -7 45.5t-14.5 27.5t-22.5 13.5t-31 3.5q-34 0 -50.5 -21t-16.5 -72v-43h157v-57h-158v-459h-60v459h-59v40l59 15v45q0 34 5.5 63t19.5 49t38 31.5t61 11.5q38 0 64 -10t42 -29t23 -47.5t8 -65.5h-58z" />
    <glyph glyph-name="t.aalt" horiz-adv-x="349" 
d="M329 151q-2 -77 -31.5 -117t-105.5 -40q-37 0 -61 11t-38.5 31t-20 49t-5.5 64v310h-60v41l60 15v125h60v-124h185v-57h-182v-310q0 -52 16 -73t50 -21q17 0 30.5 4t22.5 14.5t14 29.5t7 48h59v0z" />
    <glyph glyph-name="R.aalt" horiz-adv-x="481" 
d="M375 0v79q0 94 -28.5 133t-97.5 39h-127v-251h-68v640h176q71 0 112 -20t61.5 -49.5t26 -64t5.5 -64.5q0 -21 -3 -42.5t-13 -42.5t-29.5 -40.5t-53.5 -35.5q62 -26 85 -73.5t23 -126.5v-81h-69zM366 442q0 24 -4.5 48t-19 43t-41 31t-70.5 12h-109v-262h113q44 0 70 11
t39.5 29t17.5 41t4 47z" />
    </font>
</defs>
</svg>
